<svg version="1.1" id="Layer_1" xmlns="http://www.w3.org/2000/svg" x="0" y="0" viewBox="0 0 658.6 343.6" xml:space="preserve"><style>.st0{fill:#fff}</style><path class="st0" d="M337.8 200.9h-99.5l183.4-160 7.2 4.5c12.4 7.7 34.3 15.4 48.8 17.1l21.5 2.5-161.4 135.9zM8.7 161.6c-4.6-5.5-8-9.7-8.1-10.5-.4-1.6-.6-14.7-.6-29.3v-3.6c0-14.6 3.4-31.5 7.6-37.7S25.4 63.4 38 56.1l69.9-40.6C120.5 8.2 133.8.6 135.1.4c.7-.1 4.9-.2 10.9-.3L8.7 161.6zm179.7 28.2c0-15.3-5.2-30.2-14.6-42.3L303.2 0h23.2c14.6 0 30.2.6 31.4 1.3s12.4 7.6 24.8 15.3l6 3.7L231 200.9h-43.5c.6-3.6.9-7.4.9-11.1zm427.1 0c0-21.5-10.1-41.8-27.2-54.8l49-42.7c2.4 3.9 5.3 8.7 8.1 13.7 6.6 11.4 13.5 25.3 13.2 27.2s-5.1 14.4-10.7 27.9l-3.5 8.5c-5.6 13.5-13.9 29.2-16.2 30-1.4.4-6.5.8-13.4 1.1.4-3.6.7-7.3.7-10.9zM207.3 0h90L150.9 128.6c-33.8-17.3-75.2-3.9-92.5 29.9-6.5 12.8-8.9 27.4-6.7 41.6-2.1-.1-4.2-.4-6.3-1-2.3-1-12.3-10.6-22.1-21.3l-2.4-2.5c-2.9-3.2-5.9-6.5-8.6-9.5L207.3 0zm339.5 121c-37.9 0-68.7 30.7-68.8 68.6 0 3.8.3 7.5.9 11.3H393l113.7-135 92 10.8c4.7.5 9.5 1.2 14 1.9l-41 47.1c-7.9-3.1-16.4-4.7-24.9-4.7z"/><path class="st0" d="M119.6 141.1c26.9 0 48.6 21.8 48.6 48.6 0 26.9-21.8 48.6-48.6 48.7S71 216.7 71 189.8c0-26.9 21.8-48.6 48.6-48.7zm427.2.1c26.9 0 48.6 21.8 48.6 48.6s-21.8 48.6-48.6 48.6-48.6-21.8-48.6-48.6c0-26.9 21.7-48.6 48.6-48.6zM120.1 333.6l-17.6-74.3h18L126 290c1.7 8.8 3.2 18.4 4.4 25.9h.2c1.2-8 3-17 4.8-26.1l6.3-30.4h17.8l5.9 31.3c1.7 8.7 2.9 16.6 4 24.9h.2c1.1-8.3 2.8-17 4.3-25.8l6.1-30.4h17.1L178 333.6h-18.2l-6.3-31.9c-1.4-7.5-2.6-14.4-3.5-22.9h-.2c-1.3 8.4-2.5 15.4-4.3 22.9l-7.1 31.9h-18.3zm130-31.4h-27.3v17.6h30.5v13.8h-47.4v-74.3h45.8v13.8h-29v15.4H250v13.7zm27.4 31.4l-17.6-74.3h18l5.6 30.6c1.7 8.8 3.2 18.4 4.4 25.9h.2c1.2-8 3-17 4.8-26.1l6.3-30.4H317l5.9 31.3c1.7 8.7 2.9 16.6 4 24.9h.2c1.1-8.3 2.8-17 4.3-25.8l6.1-30.4h17.1l-19.2 74.3h-18.2l-6.3-31.9c-1.4-7.5-2.6-14.4-3.5-22.9h-.2c-1.3 8.4-2.5 15.4-4.3 22.9l-7.1 31.9h-18.3zm97.2-19l-5.3 19.1H352l22.7-74.3h22l23 74.3h-18.1l-5.7-19.1h-21.2zm18.8-12.6l-4.6-15.8c-1.3-4.4-2.6-9.9-3.7-14.3h-.2c-1.1 4.4-2.2 10-3.4 14.3l-4.4 15.8h16.3zm36.7 14.3c4.5 2.3 11.5 4.6 18.6 4.6 7.7 0 11.8-3.2 11.8-8 0-4.6-3.5-7.3-12.4-10.5-12.3-4.3-20.4-11.1-20.4-21.9 0-12.7 10.6-22.4 28.1-22.4 8.4 0 14.5 1.8 18.9 3.7l-3.7 13.6c-3-1.4-8.3-3.5-15.5-3.5-7.3 0-10.8 3.3-10.8 7.2 0 4.7 4.2 6.8 13.8 10.5 13.1 4.8 19.3 11.7 19.3 22.1 0 12.4-9.6 23-30 23-8.5 0-16.9-2.2-21-4.5l3.3-13.9zm75.8-56.9v28.5h27.7v-28.5h16.7v74.3h-16.7v-31.1H506v31.1h-16.9v-74.3H506z"/></svg>