<svg xmlns="http://www.w3.org/2000/svg" width="61.128" height="61.166"><g id="icn10" transform="translate(-527 -2885.213)"><g id="Group_1143" data-name="Group 1143" transform="translate(-350.137 -973)" fill="#fff"><path id="Path_22" data-name="Path 22" d="M101.805 2347.288l-9.843-9.9a1 1 0 0 0-.528-.264l-10.829-1.971a.986.986 0 0 0-1.152.792.68.68 0 0 0 0 .167 5.432 5.432 0 0 1-.083.944l-6.817-1.708v-.319a4.928 4.928 0 1 0-5.914-4.817h1.971a2.957 2.957 0 1 1 2.943 3.012.985.985 0 0 0-.986.985v1.208l-6.817 1.708c0-.319-.069-.625-.083-.944a.958.958 0 0 0-.347-.75.945.945 0 0 0-.805-.208l-10.843 1.971a.917.917 0 0 0-.514.264l-9.857 9.857a.972.972 0 0 0 0 1.388l7.886 7.885a.972.972 0 0 0 1.388 0l2.263-2.263v6.5H45.9a49 49 0 0 0-3.984 15.674 4.535 4.535 0 0 0 1.055 1.069 4.915 4.915 0 0 0 2.929 8.871h35.511a.984.984 0 0 0 .694-.291l7.885-7.886a.972.972 0 0 0 .278-.694v-23.24l2.249 2.263a.986.986 0 0 0 1.388 0l7.872-7.885a.972.972 0 0 0 .028-1.416zm-30.251-10.12l7.164 1.791a8.441 8.441 0 0 1-14.327 0zm-28.571 28.542a2.957 2.957 0 0 1 2.957-2.957h21.671a2.957 2.957 0 0 1 0 5.914H45.94a2.957 2.957 0 0 1-2.957-2.957zm0 7.885a2.957 2.957 0 0 1 2.957-2.957h21.671a2.957 2.957 0 0 1 0 5.914H45.94a2.957 2.957 0 0 1-2.957-2.957zm24.628 10.843H45.94a2.957 2.957 0 1 1 0-5.914h21.671a2.957 2.957 0 0 1 0 5.915zm14.789-1.388v-4.512h4.512zm10.829-28.571l-6.192-6.192-1.388 1.388 2.679 2.666v24.226h-6.945a.986.986 0 0 0-.986.986v6.942h-8.843a4.859 4.859 0 0 0-.875-6.816l-.111-.084a48.589 48.589 0 0 1 .986-14.8 4.9 4.9 0 0 0-3.984-2H54.811v-8.469l2.666-2.665-1.388-1.388-6.206 6.192-6.483-6.483 8.927-8.94 9.51-1.652c.639 4.276 4.776 7.58 9.718 7.58s9.121-3.3 9.718-7.58l9.468 1.721 8.941 8.94z" transform="translate(836.168 1532.941)"/><path id="Rectangle_5" data-name="Rectangle 5" transform="translate(881.122 3897.679)" d="M0 0h23.643v1.971H0z"/><path id="Rectangle_6" data-name="Rectangle 6" transform="translate(881.122 3905.551)" d="M0 0h22.657v1.971H0z"/><path id="Rectangle_7" data-name="Rectangle 7" transform="translate(881.122 3913.437)" d="M0 0h22.657v1.971H0z"/></g></g></svg>