<svg xmlns="http://www.w3.org/2000/svg" width="47.566" height="61.509"><g id="icn1" transform="translate(-371 -2794.26)" fill="#fff"><path id="Path_5" data-name="Path 5" d="M58.22 2100.83h2.042v2.042H58.22z" transform="translate(335.402 746.746)"/><g id="Group_1140" data-name="Group 1140" transform="translate(371 2794.26)"><path id="Path_3" data-name="Path 3" d="M79.734 2103.732H66.425v2.042h13.309v1.021a3.075 3.075 0 0 1-3.075 3.075H50.04a3.075 3.075 0 0 1-3.075-3.075v-1.021h13.309v-2.042H46.965v-12.3H44.91v15.364a5.13 5.13 0 0 0 5.13 5.129h26.619a5.144 5.144 0 0 0 5.13-5.13v-15.365h-2.055z" transform="translate(-39.706 -2050.416)"/><path id="Path_4" data-name="Path 4" d="M46.965 2068.335h32.717v10.247h2.055v-13.375a5.13 5.13 0 0 0-5.13-5.116H50.04a5.117 5.117 0 0 0-5.13 5.117v17.406h2.055zm3.416-6.151h25.938a3.416 3.416 0 0 1 3.416 3.416v.68H47.017v-.68a3.416 3.416 0 0 1 3.364-3.416z" transform="translate(-39.706 -2060.09)"/><path id="Path_6" data-name="Path 6" d="M58.22 2062.48h2.042v1.989H58.22z" transform="translate(-35.598 -2059.352)"/><path id="Path_7" data-name="Path 7" d="M77.886 2076.454a10.2 10.2 0 0 0-2.735.367 10.247 10.247 0 0 0-18.479-1.309 7.158 7.158 0 0 0-8.192 5.025 8.192 8.192 0 0 0 .733 16.359h28.673a10.247 10.247 0 1 0 0-20.481zm0 18.44H49.213a6.151 6.151 0 1 1 .092-12.3 1.008 1.008 0 0 0 1.008-.851 5.078 5.078 0 0 1 5.052-4.266 5.233 5.233 0 0 1 1.544.235 1.034 1.034 0 0 0 1.309-.549 8.192 8.192 0 0 1 15.364 1.243 1.034 1.034 0 0 0 1.309.72h.118a7.861 7.861 0 0 1 3-.589 8.206 8.206 0 0 1 0 16.4z" transform="translate(-40.934 -2056.941)"/></g><path id="Path_8" data-name="Path 8" d="M61.218 2086.388v-9.828h-2.041v9.828l-2.617-2.617-1.44 1.453 5.065 5.065 5.065-5.065-1.44-1.453z" transform="translate(334.445 739.254)"/></g></svg>