<svg xmlns="http://www.w3.org/2000/svg" width="54.91" height="59.821"><g id="icn2" transform="translate(-328 -2795)" fill="#fff"><path id="Path_9" data-name="Path 9" d="M232.4 2094.233a1 1 0 0 0-1 .986v13.966h-29.9V2071.3h29.9v13.883a1 1 0 0 0 2 0v-17.534a4.387 4.387 0 0 0-4.387-4.387h-25.126a4.387 4.387 0 0 0-4.387 4.387v51.034a4.4 4.4 0 0 0 4.387 4.4h25.128a4.4 4.4 0 0 0 4.387-4.4v-23.532a.986.986 0 0 0-1.002-.918zm-28.516-28.918h25.128a2.4 2.4 0 0 1 2.388 2.4v1.583h-29.9v-1.583a2.4 2.4 0 0 1 2.388-2.4zm25.128 55.837h-25.125a2.388 2.388 0 0 1-2.388-2.4v-7.566h29.9v7.566a2.388 2.388 0 0 1-2.388 2.458z" transform="translate(128.5 731.74)"/><path id="Path_10" data-name="Path 10" d="M212.824 2098.5a3.984 3.984 0 1 0 3.984 3.984 3.984 3.984 0 0 0-3.984-3.984zm0 5.984a2 2 0 1 1 2-2 2 2 0 0 1-2 2z" transform="translate(132.127 745.423)"/><path id="Path_13" data-name="Path 13" d="M250.185 2086.73a1.041 1.041 0 0 0 0-.764.877.877 0 0 0-.222-.319L238 2073.68a.986.986 0 0 0-1.388 0 1 1 0 0 0 0 1.389l10.26 10.259h-35.559a1 1 0 1 0 0 1.986H246.8l-10.259 10.273a1 1 0 0 0 .708 1.694.971.971 0 0 0 .694-.291l11.967-11.968a.876.876 0 0 0 .278-.291z" transform="translate(132.653 735.675)"/></g></svg>