<svg xmlns="http://www.w3.org/2000/svg" width="46.709" height="58.477"><g id="icn3" transform="translate(-424 -2795.721)"><path id="Path_14" data-name="Path 14" d="M402.385 2106.843a22.477 22.477 0 0 1-10.412-13.564l-2.527-9.44a16.465 16.465 0 0 0-15.341-12.217l-.944-3.526a4.851 4.851 0 0 0-9.371 2.513l.944 3.526a16.493 16.493 0 0 0-7.178 18.242l2.527 9.44a22.7 22.7 0 0 1 .764 5.789 22.365 22.365 0 0 1-2.985 11.106 2.6 2.6 0 0 0 .181 2.943 2.679 2.679 0 0 0 2.11 1.042 2.866 2.866 0 0 0 .694-.083l13.952-3.749a6.789 6.789 0 0 0 12.981-3.471l13.966-3.735a2.665 2.665 0 0 0 1.958-2.6 2.569 2.569 0 0 0-1.319-2.221zm-36.429-38.943a2.915 2.915 0 0 1 5.331.695l.819 3.068h-.264l-.916.111-.486.083-.986.222h-.4l-1.1.347-.278.111c-.375.139-.75.292-1.111.458h-.083l-.819-3.054a2.86 2.86 0 0 1 .292-2.069zm19.936 48.063a4.859 4.859 0 0 1-9.19 2.457zm15.341-6.122l-40.9 10.884a.721.721 0 0 1-.75-.264.694.694 0 0 1 0-.792 24.239 24.239 0 0 0 2.417-18.421l-2.527-9.44a14.563 14.563 0 0 1 6.872-16.437 13.868 13.868 0 0 1 2.554-1.1c.278-.1.555-.208.833-.277a14.627 14.627 0 0 1 3-.472h.791a14.536 14.536 0 0 1 14.05 10.8l2.526 9.439a24.488 24.488 0 0 0 11.328 14.73.667.667 0 0 1 .361.6.75.75 0 0 1-.541.722z" transform="translate(67.005 731.221)" fill="#fff"/></g></svg>