<svg xmlns="http://www.w3.org/2000/svg" width="45.319" height="62.321"><g id="icn4" transform="translate(-496 -2793.319)"><path id="Path_15" data-name="Path 15" d="M81.028 2235.344a9.882 9.882 0 0 0-1.944-.986l-5.553-2.346-4.04-2.61h-.111v-1.708a10.315 10.315 0 0 0 5.62-7.843 4.693 4.693 0 0 0 3.1-7.857v-6.011a13.786 13.786 0 0 0-13.772-13.772h-1.1a13.786 13.786 0 0 0-13.772 13.772v5.942a4.706 4.706 0 0 0 3.026 7.927 10.371 10.371 0 0 0 5.636 7.844v1.6l-4.165 2.777h-.167l-5.65 2.36a11.02 11.02 0 0 0-3.6 2.291 11.7 11.7 0 0 0-3.582 8.788v7.969a.986.986 0 0 0 .986.986h11.683a.986.986 0 0 0 0-1.971h-2.985v-7.344a1 1 0 0 0-1.985 0v7.344h-5.665v-6.941a9.412 9.412 0 0 1 5.873-9.218h.069l4.706-1.971 5.1 18.2h-1.962a.986.986 0 0 0 0 1.971h28.5a.986.986 0 0 0 .986-.986v-7.969a11.551 11.551 0 0 0-5.234-10.232zm-9.163-2.013l-2.985 6.108-3.693-2.707 3.915-4.054a1.015 1.015 0 0 0 .264-.819v-.125zm-6.011 6.345l-.777 2.069h-2.652l-.875-2.1 2.138-1.569zm-5.734-7.776v-3.526a10.156 10.156 0 0 0 2.624.333h2.013a10.156 10.156 0 0 0 2.624-.333v3.221l-3.679 3.818zm17.229-16.812a2.777 2.777 0 0 1-2.249 2.693v-5.373a2.776 2.776 0 0 1 2.249 2.681zm-24.989 2.693a2.777 2.777 0 0 1 0-5.373zm1-8.33h-.292v.18a5.452 5.452 0 0 0-.944.208v-4.706a11.8 11.8 0 0 1 11.787-11.8h1.069a11.814 11.814 0 0 1 11.8 11.8v4.72a5.044 5.044 0 0 0-1.027-.222v-.2.528h-.1c-3.873-.875-5.04-5.747-5.04-5.8a1.027 1.027 0 0 0-.777-.75.985.985 0 0 0-1 .388c-4.387 6.081-13.952 6.136-14.1 6.136zm.986 8.941v-6.942c2.527-.153 9.246-1 13.564-5.553a9.163 9.163 0 0 0 5.164 5.3v7.205a8.33 8.33 0 0 1-8.33 8.33h-1.986a8.33 8.33 0 0 1-8.358-8.357zm3.748 13.2v.153a1.084 1.084 0 0 0 0 .305.972.972 0 0 0 .25 1l3.762 3.665-3.721 2.777-2.985-6.108zm1.68 17.243l-1.93-6.942h.236a.984.984 0 0 0 .583-.194l1.208-.888.833 2zm1.388 3.61l1.388-8.7h2.318l1.388 8.7zm5.553-9.593l.736-1.943 1.152.861a.984.984 0 0 0 .583.194h.236l.236-.1-1.9 6.969zm17.506 9.593h-5.595v-7.345a1 1 0 0 0-1.985 0v7.344h-7.858l5.067-18.044 4.47 1.86a7.265 7.265 0 0 1 1.527.792 9.5 9.5 0 0 1 4.345 8.427z" transform="translate(455.044 601.109)" fill="#fff"/></g></svg>