<svg xmlns="http://www.w3.org/2000/svg" width="45.064" height="50.992"><g id="icn5" transform="translate(-567 -2806.942)" fill="#fff"><path id="Path_23" data-name="Path 23" d="M243.6 2357.49h-7.33V2334a1.027 1.027 0 0 0-.625-.93 1.015 1.015 0 0 0-1.083.222l-2.777 2.776-2.777-2.777a1 1 0 0 0-1.388 0l-2.777 2.777-2.777-2.777a.986.986 0 0 0-1.388 0l-2.777 2.777-2.777-2.777a.986.986 0 0 0-1.388 0l-2.777 2.777-2.777-2.777a.986.986 0 0 0-1.388 0l-2.777 2.777-2.777-2.777a1.013 1.013 0 0 0-1.708.736v44.786a5.192 5.192 0 0 0 5.178 5.178h35.249a5.178 5.178 0 0 0 4.637-5.178V2358.5a1 1 0 0 0-1-1.014zm-39.428 24.5a3.193 3.193 0 0 1-3.172-3.19v-42.4l1.819 1.819a1 1 0 0 0 1.388 0l2.777-2.777 2.777 2.777a.986.986 0 0 0 1.388 0l2.777-2.777 2.777 2.777a.986.986 0 0 0 1.388 0l2.777-2.777 2.777 2.777a1 1 0 0 0 1.388 0l2.777-2.777 2.777 2.777a1 1 0 0 0 1.388 0l1.819-1.819v42.413a5.15 5.15 0 0 0 1.111 3.193zm38.442-3.193a3.193 3.193 0 1 1-6.372 0v-19.312h6.372v19.325z" transform="translate(367.46 473.942)"/><path id="Path_24" data-name="Path 24" d="M213.608 2346.206a1.555 1.555 0 1 1 1.8-1.528 1 1 0 1 0 1.985 0 3.568 3.568 0 0 0-2.777-3.4v-.681a1 1 0 0 0-1.985 0v.68a3.569 3.569 0 0 0-2.777 3.4 3.665 3.665 0 0 0 3.776 3.526 1.555 1.555 0 1 1-1.791 1.527 1 1 0 0 0-1.985 0 3.568 3.568 0 0 0 2.777 3.4v.819a1 1 0 1 0 1.985 0v-.819a3.568 3.568 0 0 0 2.777-3.4 3.665 3.665 0 0 0-3.79-3.527z" transform="translate(371.467 476.549)"/><path id="Path_25" data-name="Path 25" d="M220.593 2344.39h-1.943a1 1 0 1 0 0 2h1.944a1 1 0 1 0 0-2z" transform="translate(374.492 478.364)"/><path id="Path_26" data-name="Path 26" d="M207.583 2344.39h-1.943a1 1 0 1 0 0 2h1.944a1 1 0 1 0 0-2z" transform="translate(369.44 478.364)"/><path id="Path_27" data-name="Path 27" d="M224.854 2352.372h-15.771a1 1 0 1 0 0 1.985h15.771a1 1 0 1 0 0-1.985z" transform="translate(370.731 481.461)"/><path id="Path_28" data-name="Path 28" d="M205.97 2352.66a.986.986 0 0 0-1.388 0 .929.929 0 0 0-.292.694.958.958 0 0 0 .291.708.985.985 0 0 0 1.388 0 .957.957 0 0 0 .292-.708.931.931 0 0 0-.291-.695z" transform="translate(369.304 481.464)"/><path id="Path_29" data-name="Path 29" d="M224.854 2357.1h-15.771a1 1 0 1 0 0 1.985h15.771a1 1 0 1 0 0-1.985z" transform="translate(370.731 483.297)"/><path id="Path_30" data-name="Path 30" d="M205.97 2357.39a.986.986 0 0 0-1.388 0 .958.958 0 0 0-.292.708.93.93 0 0 0 .292.694.986.986 0 0 0 1.388 0 .93.93 0 0 0 .292-.694.958.958 0 0 0-.292-.708z" transform="translate(369.304 483.301)"/><path id="Path_31" data-name="Path 31" d="M224.821 2361.83H209.05a1 1 0 0 0 0 2h15.771a1 1 0 0 0 0-2z" transform="translate(370.764 485.136)"/><path id="Path_32" data-name="Path 32" d="M205.967 2362.08a.986.986 0 0 0-1.388 0 1 1 0 0 0 0 1.389.985.985 0 0 0 1.388 0 1 1 0 0 0 0-1.388z" transform="translate(369.307 485.122)"/></g></svg>