<svg xmlns="http://www.w3.org/2000/svg" width="68.957" height="49.538"><g id="icn6" transform="translate(-221 -2897.228)" fill="#fff"><path id="Path_19" data-name="Path 19" d="M371.765 2222.7a1.458 1.458 0 0 0 1.027.417 1.483 1.483 0 0 0 1.027-.417 1.458 1.458 0 0 0-.028-2.041l-3.485-3.457v-7.102a1.444 1.444 0 0 0-2.888 0v7.691a1.513 1.513 0 0 0 .444 1.027z" transform="translate(-131.065 696.81)"/><path id="Path_20" data-name="Path 20" d="M420.749 2228.8h-.333l-6.178-11.551a7.469 7.469 0 0 0-6.664-3.943h-12.231a1.457 1.457 0 0 0-1.485 1.388v14.05H388.3a17.006 17.006 0 0 0 2.666-9.2 17.312 17.312 0 0 0-34.61 0 17.007 17.007 0 0 0 2.665 9.2h-.791a1.554 1.554 0 0 0-1.5 1.513v14.591a1.458 1.458 0 0 0 1.5 1.389h3.5a7.33 7.33 0 0 0 14.424 0h31.07a7.316 7.316 0 0 0 14.4 0h2.207a1.388 1.388 0 0 0 1.485-1.388V2233.3a4.581 4.581 0 0 0-4.567-4.5zm-23.99-12.606h10.8a4.6 4.6 0 0 1 4.165 2.429l5.456 10.176h-20.421zm-23.06-10.968a14.424 14.424 0 1 1-14.411 14.424 14.424 14.424 0 0 1 14.411-14.424zm-4.72 44.245a4.443 4.443 0 1 1 4.429-4.428 4.442 4.442 0 0 1-4.429 4.428zm0-11.773a7.441 7.441 0 0 0-7.164 5.734h-2.138v-11.731h1.735a17.3 17.3 0 0 0 24.684 0h7.816v11.731h-17.783a7.414 7.414 0 0 0-7.15-5.734zm45.411 11.773a4.443 4.443 0 1 1 4.429-4.428 4.442 4.442 0 0 1-4.429 4.428zm8-6.039h-.861a7.33 7.33 0 0 0-14.3 0h-10.47v-11.731h23.99a1.68 1.68 0 0 1 1.638 1.666z" transform="translate(-135.36 694.504)"/></g></svg>