<svg xmlns="http://www.w3.org/2000/svg" width="239" height="195.55"><g id="Group_1" data-name="Group 1" transform="translate(-855 -91.45)"><g id="Group_1-2" data-name="Group 1" transform="translate(-6.993 -413)"><path id="Rectangle_2" data-name="Rectangle 2" transform="translate(995.491 574.453)" fill="#ff503b" d="M0 0h19.495v46.202H0z"/><path id="Rectangle_3" data-name="Rectangle 3" transform="translate(971.46 574.453)" fill="#ffb300" d="M0 0h19.495v59.547H0z"/><path id="Path_2" data-name="Path 2" d="M88.652 76.611L48.777 99.65a3.846 3.846 0 0 0-1.772 3.544v9.747s0 3.544 4.431 3.544 4.431-5.317 4.431-5.317v-6.2l35.444-20.382s.886-1.772 3.544 0 34.559 20.381 34.559 20.381.886 0 .886 1.772v7.089s0 2.658 3.544 2.658c0 0 5.317.886 5.317-3.544v-9.747a5.476 5.476 0 0 0-3.544-4.431c-3.544-1.772-38.1-22.153-38.1-22.153v-5.317s14.178-3.544 10.633-20.381c0 0-2.658-10.633-16.836-10.633 0 0-12.406 1.772-14.178 13.292 0 0-.886 4.431 3.544 4.431 0 0 1.772.886 4.431-4.431a11.183 11.183 0 0 1 10.633-5.317s8.856 3.545 3.542 13.292a11.643 11.643 0 0 1-7.975 2.658 3.952 3.952 0 0 0-2.658 3.544z" transform="translate(888 464.17)" fill="#fff"/><path id="Rectangle_4" data-name="Rectangle 4" transform="translate(947.411 574.453)" fill="#46c6ff" d="M0 0h19.495v36.331H0z"/></g><text id="laundroman" transform="translate(855 247)" fill="#fff" font-size="39" font-family="Metropolis-SemiBold, Metropolis" font-weight="600"><tspan x="0" y="31">laundroman</tspan></text></g></svg>