<svg xmlns="http://www.w3.org/2000/svg" width="63.964" height="42.234"><g id="icn8" transform="translate(-328 -2904.109)"><g id="Group_1141" data-name="Group 1141" transform="translate(-1130.008 -490)" fill="#fff"><path id="Path_17" data-name="Path 17" d="M199.028 2228.867a1.386 1.386 0 0 0 .75.652l8.177 2.777a1.1 1.1 0 0 0 .417.07 1.389 1.389 0 0 0 1.236-.875l6.414-18.728.319.125a6.62 6.62 0 0 0 5.1-.292l.805-.389a3.957 3.957 0 0 1 3.054-.18l14.91 5.136a2.776 2.776 0 0 1-.972 1.61 3.1 3.1 0 0 1-2.776 0l-6.692-2.277a1.263 1.263 0 0 0-1.027.083 1.387 1.387 0 0 0-.639.806 8.926 8.926 0 0 1-3.859 5.053 8.329 8.329 0 0 1-6.789.083 1.3 1.3 0 1 0-.833 2.457 13.666 13.666 0 0 0 4.443.819 9.215 9.215 0 0 0 4.429-1.1 10.843 10.843 0 0 0 4.637-5.332l5.553 1.875a5.553 5.553 0 0 0 5-.348 6.108 6.108 0 0 0 2.235-4.567 1.388 1.388 0 0 0-.875-1.264l-15.938-5.553a6.621 6.621 0 0 0-5.039.305l-.805.4a4.163 4.163 0 0 1-3.1.18l-1.319-.472a.786.786 0 0 0-.236-.125l-8.149-2.777a1.292 1.292 0 0 0-1.638.806l-6.789 20.005a1.389 1.389 0 0 0 0 1.027zm8.83-18.922l5.734 1.957-6.011 17.548-5.72-1.957z" transform="translate(1259.079 1187.149)"/><path id="Path_18" data-name="Path 18" d="M209.015 2240.668a3.79 3.79 0 0 0 3.276 2.125 3.779 3.779 0 0 0 3.79 3.79 3.628 3.628 0 0 0 1.652-.4l.68-.333a4.17 4.17 0 0 0 .347 1.18 3.791 3.791 0 0 0 5.081 1.735l14.855-7.275a38.406 38.406 0 0 0 9.079-6.206l3.318-3.054 7.594-3.707a1.291 1.291 0 0 0 .6-1.722l-9.26-18.978a1.223 1.223 0 0 0-.736-.652 1.253 1.253 0 0 0-1 0l-7.761 3.8a1.278 1.278 0 0 0-.583 1.721l8.857 18.118-2.777 2.513a35.633 35.633 0 0 1-8.469 5.789l-14.855 7.275a1.139 1.139 0 0 1-.93 0 1.207 1.207 0 0 1-.139-2.235l8.33-4.068a1.291 1.291 0 0 0-1.138-2.3l-8.33 4.067-3.929 1.916a1.194 1.194 0 0 1-1.61-.569 1.11 1.11 0 0 1 0-.916 1.166 1.166 0 0 1 .611-.695l11.912-5.83a1.291 1.291 0 0 0 .6-1.721 1.387 1.387 0 0 0-1.735-.6l-13.383 6.553a1.208 1.208 0 1 1-1.055-2.167l5.276-2.6 6.858-3.346a1.291 1.291 0 1 0-1.138-2.318l-10.676 5.22a1.235 1.235 0 0 1-1.624-.541 1.249 1.249 0 0 1 .555-1.624l5.664-2.777a1.291 1.291 0 0 0-1.138-2.318l-5.664 2.777a3.79 3.79 0 0 0-1.735 5.081 3.972 3.972 0 0 0 1.069 1.318 3.707 3.707 0 0 0-.339 3.974zm33.819-27.891l5.428-2.666 8.149 16.66-5.428 2.665z" transform="translate(1262.558 1187.19)"/></g></g></svg>