<svg xmlns="http://www.w3.org/2000/svg" width="59.336" height="54.088"><g id="icn9" transform="translate(-430 -2897.239)"><path id="Path_21" data-name="Path 21" d="M530.7 2211.861a4.9 4.9 0 0 1-2.263 3.693c-.361.305-1.041.861-1.041 1.069a1.389 1.389 0 0 1-1.458 1.458 1.388 1.388 0 0 1-1.388-1.389 4.359 4.359 0 0 1 2.082-3.332c.722-.625 1.208-1.055 1.208-1.388a1.458 1.458 0 1 0-2.915 0 1.472 1.472 0 1 1-2.929 0 4.4 4.4 0 1 1 8.788 0zm-4.734 7.58a1.388 1.388 0 0 0-1.388 1.472 1.388 1.388 0 0 0 1.388 1.472 1.472 1.472 0 0 0 0-2.943zm-29.626 10.232a1.471 1.471 0 1 0 0 2.943h.125a1.472 1.472 0 0 0 0-2.944zm5.109 0a1.471 1.471 0 1 0 0 2.943h.1a1.472 1.472 0 0 0 0-2.944zm43.176-23.476v16.548a7.066 7.066 0 0 1-7.053 7.094h-20.046a5.678 5.678 0 0 0-.694 0c-.125.083-.416.361-.708.625l-.389.347-5.4 4.915a1.471 1.471 0 0 1-1.6.264 1.5 1.5 0 0 1-.9-1.389v-15.577h-15.41a4.165 4.165 0 0 0-4.165 4.165v16.548a4.165 4.165 0 0 0 4.165 4.1h21.3a1.385 1.385 0 0 1 .986.416l4.4 4.054v-13.98a1.472 1.472 0 1 1 2.929 0v17.373a1.388 1.388 0 0 1-.861 1.389 1.413 1.413 0 0 1-1.569-.278l-6.456-5.914h-20.728a7.094 7.094 0 0 1-7.136-7.053v-16.6a7.149 7.149 0 0 1 7.136-7.122h15.41v-9.922a7.136 7.136 0 0 1 7.164-7.07h22.532a7.039 7.039 0 0 1 7.053 7.066zm-2.943 0a4.165 4.165 0 0 0-4.165-4.165H515a4.165 4.165 0 0 0-4.165 4.165v25.114l2.943-2.665c.139-.125.292-.236.4-.347a3.719 3.719 0 0 1 3.457-1.388h19.95a4.165 4.165 0 0 0 4.165-4.165V2206.2z" transform="translate(-55.29 698.109)" fill="#fff"/></g></svg>