<svg id="Layer_1" data-name="Layer 1" xmlns="http://www.w3.org/2000/svg" viewBox="0 0 29 38.07"><defs><style>.cls-1{fill:#fff}</style></defs><path class="cls-1" d="M591 581.43a1.77 1.77 0 1 0-1.77-1.77 1.77 1.77 0 0 0 1.77 1.77zm0-2.43a.66.66 0 0 1 .65.66.65.65 0 0 1-.65.65.66.66 0 0 1-.66-.65.67.67 0 0 1 .66-.66zm19 2.43a1.77 1.77 0 1 0-1.77-1.77 1.77 1.77 0 0 0 1.77 1.77zm0-2.43a.67.67 0 0 1 .66.66.66.66 0 0 1-1.31 0 .66.66 0 0 1 .65-.66z" transform="translate(-586 -549.36)"/><path class="cls-1" d="M586.56 575.49h1.12a2.93 2.93 0 0 0-.84 2.1v.06l.69 5.39a1.67 1.67 0 0 0 1.33 1.64v1.62a1.15 1.15 0 0 0 1.13 1.16h1.77a1.17 1.17 0 0 0 1.16-1.16v-1.55h15.14v1.55a1.17 1.17 0 0 0 1.16 1.16H611a1.15 1.15 0 0 0 1.13-1.16v-1.63a1.73 1.73 0 0 0 1.3-1.63l.72-5.39v-.07a3 3 0 0 0-.87-2.11h1.15a.56.56 0 0 0 .56-.56 5 5 0 0 0-.21-1.08 2.13 2.13 0 0 0-2.12-1.32h-2l-.91-1.68c-.68-1.22-1.68-2.62-3.36-2.62h-11.66c-1.37 0-2.57.93-3.4 2.62l-1 1.68h-2a2.12 2.12 0 0 0-2.12 1.32 4.41 4.41 0 0 0-.22 1.08.56.56 0 0 0 .16.43.56.56 0 0 0 .41.15zm5.26 10.79H590v-1.55h1.84zm19.18 0h-1.77v-1.55H611v1.59zm1.67-12.74a1.07 1.07 0 0 1 1.06.55l.06.2h-2.13l-.42-.76zm-20.36-2.27c.36-.75 1.16-2 2.4-2h11.64c.87 0 1.58.61 2.38 2l1.84 3.38h-1.75a3 3 0 0 0-5.89 0H590.4zm15.39 3.38h-3.61a1.87 1.87 0 0 1 3.61 0zm3.81 1.11a1.63 1.63 0 0 1 1.52 1.71l-.71 5.39v.14a.62.62 0 0 1-.62.62h-22.44a.61.61 0 0 1-.61-.62v-.07l-.68-5.39a1.64 1.64 0 0 1 1.4-1.72h22.15zm-24.23-1.67a1.05 1.05 0 0 1 1.06-.55h1.42l-.43.75h-2.11a.89.89 0 0 1 .06-.16z" transform="translate(-586 -549.36)"/><path class="cls-1" d="M594.89 580.66h11.23a.54.54 0 0 0 .55-.52.31.31 0 0 0 0-.19l-.38-1.15a2.32 2.32 0 0 0-2.08-1.48h-7.39a2.28 2.28 0 0 0-2.06 1.5l-.37 1.14a.49.49 0 0 0 .08.48.5.5 0 0 0 .42.22zm.9-1.51a1.16 1.16 0 0 1 1-.72h7.39a1.19 1.19 0 0 1 1 .72l.14.4h-9.68zm-2.04 3.66h13.85a.55.55 0 0 0 .56-.55.56.56 0 0 0-.56-.56h-13.85a.56.56 0 0 0-.56.56.55.55 0 0 0 .56.55zm1.57-24.14h10.36a.57.57 0 0 0 .56-.57 5.76 5.76 0 0 0-5-5.7v-2.47a.56.56 0 1 0-1.12 0v2.45a5.75 5.75 0 0 0-5.33 5.73.55.55 0 0 0 .53.56zm5.18-5.17a4.61 4.61 0 0 1 4.59 4.06h-9.18a4.61 4.61 0 0 1 4.59-4.06zm-5.97 6.77h12a.56.56 0 0 0 0-1.12h-12a.56.56 0 0 0 0 1.12zm0 2.96a.56.56 0 0 0 .55-.56v-1.12a.56.56 0 0 0-1.11 0v1.12a.56.56 0 0 0 .56.56zm11.95 0a.56.56 0 0 0 .55-.56v-1.12a.56.56 0 0 0-1.11 0v1.12a.56.56 0 0 0 .56.56zm-9.96 0a.56.56 0 0 0 .56-.56v-1.12a.56.56 0 0 0-1.12 0v1.12a.56.56 0 0 0 .56.56zm1.99 0a.56.56 0 0 0 .56-.56v-1.12a.56.56 0 0 0-1.12 0v1.12a.56.56 0 0 0 .56.56zm1.99 0a.56.56 0 0 0 .56-.56v-1.12a.56.56 0 0 0-1.12 0v1.12a.56.56 0 0 0 .56.56zm1.99 0a.56.56 0 0 0 .56-.56v-1.12a.56.56 0 0 0-1.11 0v1.12a.56.56 0 0 0 .55.56zm1.99 0a.56.56 0 0 0 .56-.56v-1.12a.56.56 0 0 0-1.11 0v1.12a.56.56 0 0 0 .55.56zm-9 .55a.56.56 0 0 0-.56.56v1.12a.56.56 0 0 0 1.12 0v-1.12a.56.56 0 0 0-.56-.56zm1.99 2.22a.55.55 0 0 0 .56-.55v-1.12a.56.56 0 1 0-1.11 0v1.12a.55.55 0 0 0 .55.55zm2 0a.55.55 0 0 0 .55-.55v-1.12a.56.56 0 1 0-1.11 0v1.12a.55.55 0 0 0 .56.55zm1.99 0a.55.55 0 0 0 .56-.55v-1.12a.56.56 0 0 0-1.12 0v1.12a.55.55 0 0 0 .56.55zm1.99 0a.55.55 0 0 0 .56-.55v-1.12a.56.56 0 0 0-1.12 0v1.12a.55.55 0 0 0 .56.55zm1.99 0a.55.55 0 0 0 .56-.55v-1.12a.56.56 0 0 0-1.12 0v1.12a.55.55 0 0 0 .56.55z" transform="translate(-586 -549.36)"/></svg>