<svg id="Layer_1" data-name="Layer 1" xmlns="http://www.w3.org/2000/svg" viewBox="0 0 23.26 23.23"><defs><style>.cls-1{fill:#fff}</style></defs><path class="cls-1" d="M877.62 235.07a.38.38 0 0 0-.39.39v9.29a.39.39 0 0 1-.39.39H862.9a.39.39 0 0 1-.38-.39v-20.91a.39.39 0 0 1 .38-.39h13.94a.39.39 0 0 1 .39.39v2.32a.39.39 0 1 0 .77 0v-2.32a1.16 1.16 0 0 0-1.16-1.16H862.9a1.16 1.16 0 0 0-1.16 1.16v20.91a1.16 1.16 0 0 0 1.16 1.16h13.94a1.16 1.16 0 0 0 1.16-1.16v-9.29a.38.38 0 0 0-.38-.39z" transform="translate(-861.74 -222.68)"/><path class="cls-1" d="M884.43 224a1.93 1.93 0 0 0-2.73 0l-2.55 2.55-13.33 13.33a.41.41 0 0 0-.07.11l-1.64 3.82a.4.4 0 0 0 0 .37.37.37 0 0 0 .32.17.41.41 0 0 0 .16 0l3.82-1.64a.41.41 0 0 0 .11-.07l13.33-13.33 2.55-2.55a1.93 1.93 0 0 0 .03-2.76zm-19.24 19.24l1-2.42 1.39 1.38zm3.1-1.45l-1.65-1.65 12.79-12.78 1.64 1.64zm13.33-13.34l-1.62-1.64.64-.63 1.64 1.64zm2.27-2.27l-1.1 1.1-1.64-1.65 1.1-1.09a1.16 1.16 0 0 1 1.64 1.64zm-9.37-.02h-9.29a.39.39 0 0 0-.39.39.38.38 0 0 0 .39.39h9.29a.39.39 0 0 0 .39-.39.4.4 0 0 0-.39-.39zm.39 2.71a.39.39 0 0 0-.39-.38h-9.29a.39.39 0 1 0 0 .77h9.29a.39.39 0 0 0 .39-.39zm-9.68 1.94a.38.38 0 0 0-.39.39.39.39 0 0 0 .39.39h7a.39.39 0 0 0 .38-.39.38.38 0 0 0-.38-.39z" transform="translate(-861.74 -222.68)"/></svg>