<svg version="1.1" id="Layer_1" xmlns="http://www.w3.org/2000/svg" x="0" y="0" viewBox="0 0 129 110.9" xml:space="preserve"><path fill="#ef3c3c" d="M72.6 39.5h11v26.1h-11z"/><path fill="#ef9a3c" d="M59.1 39.5h11v33.6h-11z"/><path d="M62 20.5l-22.5 13c-.7.4-1.1 1.2-1 2V41s0 2 2.5 2 2.5-3 2.5-3v-3.5l20-11.5s.5-1 2 0S85 36.5 85 36.5s.5 0 .5 1v4s0 1.5 2 1.5c0 0 3 .5 3-2v-5.5c-.1-1.1-.9-2.1-2-2.5-2-1-21.5-12.5-21.5-12.5v-3s8-2 6-11.5c0 0-1.5-6-9.5-6 0 0-7 1-8 7.5 0 0-.5 2.5 2 2.5 0 0 1 .5 2.5-2.5 1.3-2.1 3.6-3.2 6-3 0 0 5 2 2 7.5-1.3 1-2.9 1.6-4.5 1.5-.9.3-1.5 1.1-1.5 2v5z" fill="#acb4b7"/><path fill="#3abaf1" d="M45.5 39.5h11V60h-11z"/><path d="M15.9 92.2v3H6.2V81.8h3.3v10.3h6.4zm10.8-3v5.9h-3.2v-.9c-.7.7-1.7 1.1-2.8 1.1-2.1 0-3.8-1.3-3.8-3.2 0-2 1.9-3.3 4.2-3.3.7 0 1.6.2 2.3.5v-.1c0-1.1-.8-1.8-2.2-1.8-.9 0-1.7.3-2.5.7l-1-2.1c1.4-.7 2.8-1.1 4.4-1.1 2.6 0 4.6 1.6 4.6 4.3zm-3.2 2.9V91c-.5-.2-1.2-.3-1.9-.3-.9 0-1.6.6-1.6 1.3 0 .8.6 1.3 1.5 1.3 1 .1 1.9-.4 2-1.2zm15.1-7v10h-3.3V94c-.6.9-1.7 1.4-2.9 1.4-2.1 0-3.7-1.6-3.7-3.9v-6.4h3.1v5.6c0 1.1.7 1.9 1.7 1.9s1.8-.8 1.8-1.7v.1-5.8h3.3zm12.1 3.7v6.4h-3.1v-5.6c0-1.1-.7-1.9-1.7-1.9s-1.8.8-1.8 1.7v-.1 5.8h-3.3v-10h3.3v1.1c.6-.9 1.7-1.4 2.9-1.4 2.2.1 3.7 1.7 3.7 4zm12.8-7.2v13.5h-3.3v-1.3c-.8.9-1.9 1.5-3.3 1.5-2.7 0-4.6-2.2-4.6-5.2 0-3.1 1.9-5.2 4.6-5.2 1.3 0 2.5.6 3.3 1.5v-4.8h3.3zm-3.2 8.5c0-1.5-.9-2.5-2.3-2.5s-2.4 1-2.4 2.5 1 2.5 2.4 2.5c1.3 0 2.3-1 2.3-2.5zm12-5.2v2.7c-2 0-3.3 1.2-3.3 3v4.5h-3.3v-10H69V87c.7-1.3 1.9-2.1 3.3-2.1zm.8 5.2c0-2.8 2.5-5.2 5.6-5.2 3 0 5.6 2.4 5.6 5.2 0 2.8-2.5 5.2-5.6 5.2-3.1.1-5.6-2.3-5.6-5.2zm8 0c0-1.4-1.1-2.5-2.5-2.5s-2.5 1.1-2.5 2.5 1.1 2.5 2.5 2.5 2.5-1.1 2.5-2.5zm20.8-1.3v6.4h-3.1v-5.8c0-1-.7-1.7-1.6-1.7-1 0-1.7.7-1.7 1.6v5.9h-3.1v-5.8c0-1-.7-1.7-1.6-1.7-1 0-1.7.7-1.7 1.6v5.9h-3.3v-10h3.3v1.3c.5-.9 1.5-1.5 2.7-1.5 1.3 0 2.5.7 3.2 1.7.5-1 1.8-1.7 3.2-1.7 2.1-.1 3.7 1.5 3.7 3.8zm11.4.4v5.9h-3.2v-.9c-.7.7-1.7 1.1-2.8 1.1-2.1 0-3.8-1.3-3.8-3.2 0-2 1.9-3.3 4.2-3.3.7 0 1.6.2 2.3.5v-.1c0-1.1-.8-1.8-2.2-1.8-.9 0-1.7.3-2.5.7l-1-2.1c1.4-.7 2.8-1.1 4.4-1.1 2.6 0 4.6 1.6 4.6 4.3zm-3.2 2.9V91c-.5-.2-1.2-.3-1.9-.3-.9 0-1.6.6-1.6 1.3 0 .8.6 1.3 1.5 1.3 1 .1 1.9-.4 2-1.2zm15.2-3.3v6.4h-3.1v-5.6c0-1.1-.7-1.9-1.7-1.9s-1.8.8-1.8 1.7v-.1 5.8h-3.3v-10h3.3v1.1c.6-.9 1.7-1.4 2.9-1.4 2.1.1 3.7 1.7 3.7 4z" fill="#fff"/></svg>