<svg xmlns="http://www.w3.org/2000/svg" width="227.188" height="41.525"><g id="newagesmb" transform="translate(-604 -3888.594)"><g id="_Group_" data-name="&lt;Group&gt;" transform="translate(604 3888.594)" fill="#fff"><path id="_Path_" data-name="&lt;Path&gt;" d="M113 2647.8h6.827l15.264 20.53v-20.53h6.827v31.725h-6.827l-15.264-20.53v20.53H113z" transform="translate(-113 -2647.8)"/><path id="_Compound_Path_" data-name="&lt;Compound Path&gt;" d="M149.423 2669.146l4.3 4.385a14.632 14.632 0 0 1-9.783 3.7 12.307 12.307 0 0 1-12.69-12.607 12.092 12.092 0 0 1 12.308-12.458c7.491 0 11.876 5.714 11.876 14.684h-17.206a5.88 5.88 0 0 0 5.714 4.368 9.058 9.058 0 0 0 5.481-2.076zm-11.128-7.109h10.68a4.983 4.983 0 0 0-5.116-3.853 5.845 5.845 0 0 0-5.564 3.854z" transform="translate(-100.939 -2644.912)"/><path id="_Path_2" data-name="&lt;Path&gt;" d="M144.38 2652.53h6.644l4.518 14.949 4.75-14.949h5.564l4.75 14.949 4.518-14.949h6.644l-8.155 23.868h-6.079l-4.451-15.048-4.451 15.048h-6.079z" transform="translate(-92.259 -2644.674)"/><path id="_Compound_Path_2" data-name="&lt;Compound Path&gt;" d="M188.6 2662.332v14.4h-6.528v-2.375a9.549 9.549 0 0 1-7.042 2.957c-5.116 0-9.052-3.04-9.052-7.624s4.385-7.939 9.966-7.939a18.268 18.268 0 0 1 6.079 1.179v-.432c0-2.524-1.561-4.75-5.5-4.75a13.762 13.762 0 0 0-6.229 1.661l-2.292-4.452a22.179 22.179 0 0 1 9.966-2.674c6.416-.183 10.632 3.753 10.632 10.049zm-6.528 6.743v-2.226a16.162 16.162 0 0 0-5.116-.88c-2.442 0-4.368 1.412-4.368 3.322s1.661 3.106 4 3.106c2.597.103 5.038-1.097 5.487-3.322z" transform="translate(-77.982 -2644.841)"/><path id="_Compound_Path_3" data-name="&lt;Compound Path&gt;" d="M205.387 2652.769v21.343c0 6.163-5.348 10.464-12.839 10.464a17.756 17.756 0 0 1-10.531-3.189l2.375-4.75a11.23 11.23 0 0 0 7.126 2.308c4.368 0 7.109-2.009 7.109-5.115v-2.674a10.246 10.246 0 0 1-7.923 3.7c-6.013 0-10.614-4.75-10.614-11.344s4.6-11.345 10.614-11.345a9.967 9.967 0 0 1 7.923 3.787v-3.322h6.76zm-6.827 10.746a5.813 5.813 0 1 0-5.813 5.813 5.813 5.813 0 0 0 5.813-5.813z" transform="translate(-68.655 -2644.912)"/><path id="_Compound_Path_4" data-name="&lt;Compound Path&gt;" d="M213.967 2669.146l4.3 4.385a14.6 14.6 0 0 1-9.783 3.7 12.291 12.291 0 0 1-12.673-12.607 12.075 12.075 0 0 1 12.308-12.457c7.491 0 11.859 5.713 11.859 14.683h-17.206a5.88 5.88 0 0 0 5.714 4.368 9.035 9.035 0 0 0 5.481-2.076zm-11.112-7.109h10.68a4.983 4.983 0 0 0-5.116-3.853 5.829 5.829 0 0 0-5.564 3.854z" transform="translate(-58.267 -2644.912)"/></g><g id="_Group_2" data-name="&lt;Group&gt;" transform="translate(764.965 3893.178)"><g id="_Group_3" data-name="&lt;Group&gt;" fill="#fff"><path id="_Path_3" data-name="&lt;Path&gt;" d="M209.91 2674.8l4.534-5.349a14.947 14.947 0 0 0 9.418 3.488c2.226 0 3.322-.747 3.322-2.009s-.98-1.544-4.983-2.508c-6.229-1.412-10.962-3.04-10.962-8.986a8.619 8.619 0 0 1 2.442-6.228c3.787-3.854 9.717-3.041 13.288 1.045a27.22 27.22 0 0 1 3.04 4.452 19.937 19.937 0 0 0-7.64-1.926c-1.927 0-2.89.813-2.89 1.843 0 1.495.963 1.927 5.116 2.824 6.644 1.412 10.83 3.189 10.83 8.67 0 6.013-4.6 9.567-11.793 9.567a20.779 20.779 0 0 1-13.72-4.883z" transform="translate(-209.91 -2650.462)"/><path id="_Path_4" data-name="&lt;Path&gt;" d="M220.689 2650.74h8.089l7.64 13.653 7.624-13.653h8.089v28.917h-8.089v-15.646l-7.624 13.653-7.64-13.653-4-6.644-1.113-1.777a11.63 11.63 0 0 0-2.591-2.956 10.355 10.355 0 0 0-2.076-1.263l-1.495-.6z" transform="translate(-204.893 -2650.441)"/><path id="_Path_5" data-name="&lt;Path&gt;" d="M238.833 2679.926h7.408s10.83-.3 10.83-8.006a8.521 8.521 0 0 0-5.332-7.707 6.644 6.644 0 0 0 3.92-6.378c0-5.2-5.564-7.275-8.753-7.275h-8.072v7.126h5.93s2.591-.15 2.591 1.777-2.076 2.143-2.674 2.143h-5.93v6.013h6.644a3.172 3.172 0 0 1 3.322 2.741 2.94 2.94 0 0 1-2.957 3.039h-6.976z" transform="translate(-190.848 -2650.559)"/></g></g><g id="_Group_4" data-name="&lt;Group&gt;" transform="translate(604.332 3923.8)" fill="#fff"><path id="_Path_6" data-name="&lt;Path&gt;" d="M114.861 2669.987H113.2v-.9h4.534v.9h-1.661v4.983h-1.113z" transform="translate(-113.2 -2668.933)"/><path id="_Path_7" data-name="&lt;Path&gt;" d="M117.723 2669.09v2.375h2.525v-2.375h1.113v6.013h-1.113v-2.674h-2.525v2.674h-1.113v-6.013z" transform="translate(-110.946 -2668.933)"/><path id="_Path_8" data-name="&lt;Path&gt;" d="M123.879 2672.429h-2.226v1.777h2.525v.9h-3.638v-6.013h3.488v.9h-2.375v1.544h2.226z" transform="translate(-108.348 -2668.933)"/><path id="_Path_9" data-name="&lt;Path&gt;" d="M129.385 2674.932a3.325 3.325 0 0 1-1.561.3 2.807 2.807 0 0 1-3.04-3.04 2.99 2.99 0 0 1 3.189-3.189 2.89 2.89 0 0 1 1.478.3l-.216.88a2.843 2.843 0 0 0-1.2-.216 1.993 1.993 0 0 0-2.076 2.227 1.926 1.926 0 0 0 2.076 2.142 2.851 2.851 0 0 0 1.2-.216z" transform="translate(-105.55 -2668.995)"/><path id="_Compound_Path_5" data-name="&lt;Compound Path&gt;" d="M133.735 2672.064a2.857 2.857 0 0 1-2.907 3.189 2.741 2.741 0 0 1-2.741-3.057 2.857 2.857 0 0 1 2.824-3.106 2.708 2.708 0 0 1 2.824 2.974zm-4.451 0c0 1.179.581 2.226 1.661 2.226s1.661-.963 1.661-2.226-.6-2.226-1.661-2.226-1.661 1.03-1.661 2.292z" transform="translate(-103.372 -2668.935)"/><path id="_Path_10" data-name="&lt;Path&gt;" d="M137.436 2672.645v-2.525c-.216.748-.448 1.561-.747 2.309l-.88 2.591h-.814l-.814-2.591a23.571 23.571 0 0 1-.6-2.309v2.525l-.149 2.458h-1.112l.382-6.013h1.412l.814 2.441c.216.664.365 1.412.515 2.076a19.521 19.521 0 0 1 .6-2.077l.814-2.375h1.412l.365 6.013h-1.046z" transform="translate(-100.562 -2668.933)"/><path id="_Compound_Path_6" data-name="&lt;Compound Path&gt;" d="M137.073 2669.189a10.014 10.014 0 0 1 1.661-.133 2.377 2.377 0 0 1 1.777.515 1.662 1.662 0 0 1 .6 1.33 1.56 1.56 0 0 1-.515 1.329 2.641 2.641 0 0 1-1.927.681h-.515v2.226h-1.114zm1.113 2.824c.149 0 .282.083.515.083.814 0 1.329-.382 1.329-1.113s-.448-1.046-1.179-1.046a1.459 1.459 0 0 0-.664.083z" transform="translate(-97.442 -2668.966)"/><path id="_Path_11" data-name="&lt;Path&gt;" d="M140.38 2669.09h1.063v4.983h2.442v.88h-3.555z" transform="translate(-95.268 -2668.933)"/><path id="_Path_12" data-name="&lt;Path&gt;" d="M146.635 2672.429h-2.193v1.777h2.508v.9h-3.62v-6.013h3.47v.9h-2.359v1.544h2.226z" transform="translate(-93.285 -2668.933)"/><path id="_Path_13" data-name="&lt;Path&gt;" d="M147.761 2669.987H146.1v-.9h4.534v.9h-1.661v4.983h-1.113z" transform="translate(-91.454 -2668.933)"/><path id="_Path_14" data-name="&lt;Path&gt;" d="M152.849 2672.429h-2.226v1.777h2.525v.9h-3.638v-6.013H153v.9h-2.375v1.544h2.226z" transform="translate(-89.2 -2668.933)"/><path id="_Path_15" data-name="&lt;Path&gt;" d="M154.042 2673.931a2.821 2.821 0 0 0 1.478.365c.681 0 1.113-.282 1.113-.813s-.282-.731-1.03-.964-1.661-.88-1.661-1.777.814-1.661 2.143-1.661a3.113 3.113 0 0 1 1.412.282l-.3.9a2.239 2.239 0 0 0-1.179-.3c-.681 0-.963.365-.963.747s.365.665 1.113.963c1.03.366 1.545.88 1.545 1.777s-.731 1.777-2.292 1.777a3.323 3.323 0 0 1-1.661-.365z" transform="translate(-86.391 -2668.94)"/><path id="_Compound_Path_7" data-name="&lt;Compound Path&gt;" d="M162.485 2672.064a2.858 2.858 0 0 1-2.907 3.189 2.74 2.74 0 0 1-2.741-3.057 2.857 2.857 0 0 1 2.824-3.106 2.708 2.708 0 0 1 2.824 2.974zm-4.451 0c0 1.179.581 2.226 1.661 2.226s1.661-.963 1.661-2.226-.6-2.226-1.661-2.226-1.661 1.03-1.661 2.292z" transform="translate(-84.369 -2668.935)"/><path id="_Path_16" data-name="&lt;Path&gt;" d="M161.12 2669.09h1.113v4.983h2.442v.88h-3.555z" transform="translate(-81.526 -2668.933)"/><path id="_Path_17" data-name="&lt;Path&gt;" d="M164.92 2669.09v3.488c0 1.179.515 1.661 1.262 1.661s1.262-.515 1.262-1.661v-3.488h1.113v3.322c0 1.86-.963 2.674-2.375 2.674s-2.292-.748-2.292-2.674v-3.322z" transform="translate(-79.695 -2668.933)"/><path id="_Path_18" data-name="&lt;Path&gt;" d="M169.1 2669.987h-1.66v-.9h4.534v.9h-1.661v4.983H169.2z" transform="translate(-77.349 -2668.933)"/><path id="_Path_19" data-name="&lt;Path&gt;" d="M171.923 2669.09v6.013h-1.113v-6.013z" transform="translate(-75.121 -2668.933)"/><path id="_Compound_Path_8" data-name="&lt;Compound Path&gt;" d="M178.008 2672.064a2.857 2.857 0 0 1-2.89 3.189 2.74 2.74 0 0 1-2.741-3.057 2.84 2.84 0 0 1 2.824-3.106 2.691 2.691 0 0 1 2.807 2.974zm-4.518 0c0 1.179.6 2.226 1.661 2.226s1.661-.963 1.661-2.226-.581-2.226-1.661-2.226-1.727 1.03-1.727 2.292z" transform="translate(-74.098 -2668.935)"/><path id="_Path_20" data-name="&lt;Path&gt;" d="M176.61 2675.1v-6.013h1.262l1.561 2.591c.365.665.731 1.346 1.03 2.01v-4.6h1.03v6.013h-1.113l-1.561-2.608c-.365-.664-.814-1.4-1.113-2.076a23.531 23.531 0 0 1 .083 2.525v2.159z" transform="translate(-71.288 -2668.933)"/></g></g></svg>