<svg version="1.1" id="Layer_1" xmlns="http://www.w3.org/2000/svg" x="0" y="0" viewBox="0 0 91 98" xml:space="preserve"><style>.st0{fill:#00c6db}.st1{fill:#fff}.st2{fill:#ff3e83}</style><path class="st0" d="M31.2 72.2H14.9V25.6l16.3 13.5z"/><path class="st1" d="M27.7 72.2V28.5l19.5-13.8v57.5h4.5V6.3L23.2 26.4v45.8z"/><path class="st2" d="M51.3 68.3h33.2v3.9H51.3z"/><path class="st2" d="M74.8 70H58.4V35.8l16.4 13.4z"/><path class="st0" d="M36 72.2l15.7-15.7 15.8 15.7h11.9L51.7 44.6 24.1 72.2z"/><path class="st1" d="M51.7 44.6v11.9l15.8 15.7h11.9zM7.1 68.3h44.7v3.9H7.1zm.4 8.4c1-.2 2.6-.3 4.3-.3 2.1 0 3.6.3 4.6 1.1.8.7 1.3 1.7 1.3 3 0 1.8-1.3 3-2.5 3.5 1 .4 1.5 1.3 1.9 2.6.4 1.6.9 3.4 1.2 4H15c-.2-.4-.6-1.6-1-3.3-.4-1.8-1-2.2-2.3-2.3h-1v5.6H7.5V76.7zm3.2 6.1H12c1.6 0 2.5-.8 2.5-2 0-1.3-.9-2-2.4-2-.8 0-1.2.1-1.4.1v3.9zm11.6 3.7c.1 1.3 1.4 2 2.9 2 1.1 0 2-.1 2.8-.4l.4 2.2c-1 .4-2.3.6-3.7.6-3.5 0-5.5-2-5.5-5.2 0-2.6 1.6-5.5 5.2-5.5 3.3 0 4.6 2.6 4.6 5.1 0 .5-.1 1-.1 1.3h-6.6zm3.8-2.1c0-.8-.3-2.1-1.8-2.1-1.3 0-1.9 1.2-2 2.1h3.8zm10.3-.3v2.1h-5.5v-2.1h5.5zm14 1.1c-.1-1.7-.1-3.8-.1-5.8h-.1c-.4 1.8-1 3.8-1.6 5.5l-1.7 5.5h-2.5l-1.5-5.5c-.5-1.7-.9-3.7-1.3-5.5-.1 1.9-.1 4.1-.3 5.9l-.3 5.4h-3l1-14.2h4.3l1.4 4.7c.4 1.6.9 3.4 1.2 5.1h.1c.4-1.6.9-3.5 1.3-5.1l1.5-4.7H53l.8 14.2h-3.1l-.3-5.5zm15.9.2c0 3.8-2.7 5.5-5.4 5.5-3 0-5.3-2-5.3-5.3s2.2-5.4 5.5-5.4c3.1 0 5.2 2.1 5.2 5.2zm-7.5.1c0 1.8.7 3.1 2.1 3.1 1.2 0 2-1.2 2-3.1 0-1.5-.6-3.1-2-3.1-1.5 0-2.1 1.6-2.1 3.1zm9.4 5.2c0-.7.1-1.9.1-3.1V75.7h3.2v5.9c.6-.9 1.7-1.4 3.1-1.4 2.5 0 4.3 2 4.2 5.2 0 3.7-2.4 5.5-4.7 5.5-1.2 0-2.4-.4-3.1-1.7l-.1 1.4h-2.7zm3.2-4.4c0 .2 0 .4.1.6.2.9.9 1.5 1.9 1.5 1.4 0 2.2-1.1 2.2-2.9 0-1.6-.7-2.9-2.2-2.9-.9 0-1.7.7-1.9 1.6 0 .2-.1.4-.1.6v1.5zm12.7-8.8c0 .9-.7 1.6-1.7 1.6s-1.7-.7-1.7-1.6c0-.9.7-1.6 1.7-1.6s1.7.7 1.7 1.6zm-3.3 13.2V80.4H84v10.3h-3.2z"/></svg>