<svg xmlns="http://www.w3.org/2000/svg" width="27.014" height="35.1"><g id="rm_1" transform="translate(-390 -318)" fill="#fff"><path id="Path_1" data-name="Path 1" d="M37.9 41.1h-7.6v1.2h7.6v.6a1.793 1.793 0 0 1-1.8 1.8H20.9a1.793 1.793 0 0 1-1.8-1.8v-.6h7.6v-1.2h-7.6v-7h-1.2v8.8a2.9 2.9 0 0 0 2.9 2.9h15.3a2.9 2.9 0 0 0 2.9-2.9V34h-1.2v7.1z" transform="translate(375.114 307.3)"/><path id="Path_2" data-name="Path 2" d="M19.1 15.3h18.8v5.9h1.2v-7.6a2.9 2.9 0 0 0-2.9-2.9H20.9a2.9 2.9 0 0 0-2.9 2.9v10h1.2v-8.3zm2.4-3.6h14.1a2.326 2.326 0 0 1 2.3 2.3H19.1a2.416 2.416 0 0 1 2.4-2.3z" transform="translate(375.114 307.3)"/><path id="Path_3" data-name="Path 3" d="M27.9 41.1h1.2v1.2h-1.2z" transform="translate(375.114 307.3)"/><path id="Path_4" data-name="Path 4" d="M27.9 12.3h1.2v1.2h-1.2z" transform="translate(375.114 307.3)"/><path id="Path_5" data-name="Path 5" d="M36.1 21.7a8.752 8.752 0 0 0-1.6.2 5.89 5.89 0 0 0-10.6-.7 4.123 4.123 0 0 0-4.7 2.9 4.708 4.708 0 0 0 .4 9.4H36a5.911 5.911 0 0 0 5.9-5.9 5.764 5.764 0 0 0-5.8-5.9zm0 10.6H19.7a3.5 3.5 0 0 1 0-7 .634.634 0 0 0 .6-.5 2.819 2.819 0 0 1 2.9-2.4 2.769 2.769 0 0 1 .9.1.517.517 0 0 0 .7-.3 4.634 4.634 0 0 1 6.2-2.3 4.827 4.827 0 0 1 2.6 3 .569.569 0 0 0 .7.4h.1a4.667 4.667 0 1 1 1.7 9z" transform="translate(375.114 307.3)"/><path id="Path_6" data-name="Path 6" d="M29.1 28.5v-5.6h-1.2v5.6L26.4 27l-.8.8 2.9 2.9 2.9-2.9-.8-.8z" transform="translate(375.114 307.3)"/></g></svg>