<svg xmlns="http://www.w3.org/2000/svg" width="32.366" height="32.25"><g id="rm_2" transform="translate(-65.635 -10.75)"><g id="Group_8" data-name="Group 8"><g id="Group_7" data-name="Group 7"><path id="Path_28" data-name="Path 28" d="M97.4 41.7h-2.8v-5a.6.6 0 0 0-1.2 0v5h-7.6v-12a.645.645 0 0 0-.6-.6h-6.6a.645.645 0 0 0-.6.6v12h-7.6V27.5h.2a.52.52 0 0 0 .4-.2l10.8-10.8 10.8 10.8a.758.758 0 0 0 .4.2h.2v4.7a.6.6 0 0 0 1.2 0v-4.7h2.8a.675.675 0 0 0 .6-.4.878.878 0 0 0-.1-.7L82.3 10.9a.746.746 0 0 0-.9 0l-5.9 5.9a.636.636 0 0 0 .9.9l5.5-5.5 14 14h-2.5l-11.1-11a.746.746 0 0 0-.9 0l-11.1 11h-2.5l5-5a.636.636 0 0 0-.9-.9l-6.1 6.1a.616.616 0 0 0-.1.7.675.675 0 0 0 .6.4h2.8v14.3h-2.8a.6.6 0 1 0 0 1.2h31.1a.645.645 0 0 0 .6-.6c0-.3-.3-.7-.6-.7zm-12.9 0h-5.3V30.4h5.3z" fill="#fff"/></g></g><g id="Group_10" data-name="Group 10"><g id="Group_9" data-name="Group 9"><path id="Path_29" data-name="Path 29" d="M91.3 29.1h-3.5a.645.645 0 0 0-.6.6V36a.645.645 0 0 0 .6.6h3.5a.645.645 0 0 0 .6-.6v-6.3a.576.576 0 0 0-.6-.6zm-.6 6.3h-2.3v-5h2.3z" fill="#fff"/></g></g><g id="Group_12" data-name="Group 12"><g id="Group_11" data-name="Group 11"><path id="Path_30" data-name="Path 30" d="M75.9 29.1h-3.5a.645.645 0 0 0-.6.6V36a.645.645 0 0 0 .6.6h3.5a.645.645 0 0 0 .6-.6v-6.3a.576.576 0 0 0-.6-.6zm-.6 6.3H73v-5h2.3z" fill="#fff"/></g></g><g id="Group_14" data-name="Group 14"><g id="Group_13" data-name="Group 13"><path id="Path_31" data-name="Path 31" d="M81.8 21.1a2.9 2.9 0 1 0 2.9 2.9 2.9 2.9 0 0 0-2.9-2.9zm0 4.5a1.6 1.6 0 1 1 1.6-1.6 1.522 1.522 0 0 1-1.6 1.6z" fill="#fff"/></g></g><g id="Group_16" data-name="Group 16"><g id="Group_15" data-name="Group 15"><path id="Path_32" data-name="Path 32" d="M81.1 35.6a.758.758 0 0 0-.4-.2.52.52 0 0 0-.4.2.85.85 0 0 0-.3.5.52.52 0 0 0 .2.4.758.758 0 0 0 .4.2.52.52 0 0 0 .4-.2.758.758 0 0 0 .2-.4c0-.1 0-.4-.1-.5z" fill="#fff"/></g></g><g id="Group_18" data-name="Group 18"><g id="Group_17" data-name="Group 17"><path id="Path_33" data-name="Path 33" d="M74.5 18.6a.758.758 0 0 0-.4-.2.52.52 0 0 0-.4.2.758.758 0 0 0-.2.4.52.52 0 0 0 .2.4.758.758 0 0 0 .4.2.52.52 0 0 0 .4-.2.758.758 0 0 0 .2-.4c0-.1-.1-.2-.2-.4z" fill="#fff"/></g></g><g id="Group_20" data-name="Group 20"><g id="Group_19" data-name="Group 19"><path id="Path_34" data-name="Path 34" d="M94.4 33.9a.758.758 0 0 0-.4-.2.52.52 0 0 0-.4.2.6.6 0 0 0 .4 1 .52.52 0 0 0 .4-.2.758.758 0 0 0 .2-.4.52.52 0 0 0-.2-.4z" fill="#fff"/></g></g></g></svg>