<svg xmlns="http://www.w3.org/2000/svg" width="23.4" height="33.1"><g id="rm_3" transform="translate(-393.714 -274.3)" fill="#fff"><path id="XMLID_393_" transform="translate(394.314 299)" d="M0 0h8v8H0z"/><path id="Path_7" data-name="Path 7" d="M151.4 17.8h-8.7l1.5-1.5a.636.636 0 0 0-.9-.9l-2.5 2.5a.746.746 0 0 0 0 .9l2.5 2.5a.5.5 0 0 0 .8 0 .746.746 0 0 0 0-.9l-1.5-1.5h8.1v23h-12.9v-3.4a.645.645 0 0 0-.6-.6h-8a.645.645 0 0 0-.6.6v8a.645.645 0 0 0 .6.6h8a.645.645 0 0 0 .6-.6v-3.4h13.6a.645.645 0 0 0 .6-.6v-24a.669.669 0 0 0-.6-.7zm-14.8 28.3h-6.8v-6.8h6.8z" transform="translate(265.114 260.3)"/><path id="Path_8" data-name="Path 8" d="M128.6 26.6v8a.645.645 0 0 0 .6.6h8a.645.645 0 0 0 .6-.6v-8a.645.645 0 0 0-.6-.6h-8a.576.576 0 0 0-.6.6zm1.2.6h6.8V34h-6.8z" transform="translate(265.114 260.3)"/><g id="Group_3" data-name="Group 3" transform="translate(265.114 260.3)"><path id="Path_9" data-name="Path 9" d="M137.2 22a.52.52 0 0 0-.4.2.758.758 0 0 0-.2.4.6.6 0 0 0 1.2 0 .758.758 0 0 0-.2-.4.52.52 0 0 0-.4-.2z"/><path id="Path_10" data-name="Path 10" d="M135.2 22a.6.6 0 1 0 .6.6.645.645 0 0 0-.6-.6z"/><path id="Path_11" data-name="Path 11" d="M131.2 22a.6.6 0 1 0 .6.6.645.645 0 0 0-.6-.6z"/><path id="Path_12" data-name="Path 12" d="M133.2 22a.6.6 0 1 0 .6.6.645.645 0 0 0-.6-.6z"/><path id="Path_13" data-name="Path 13" d="M129.2 22a.52.52 0 0 0-.4.2.758.758 0 0 0-.2.4.6.6 0 0 0 1.2 0 .707.707 0 0 0-.6-.6z"/><path id="Path_14" data-name="Path 14" d="M129.2 20a.6.6 0 1 0 .6.6.645.645 0 0 0-.6-.6z"/><path id="Path_15" data-name="Path 15" d="M129.2 16a.6.6 0 1 0 .6.6.576.576 0 0 0-.6-.6z"/><path id="Path_16" data-name="Path 16" d="M129.2 18a.6.6 0 1 0 .6.6.645.645 0 0 0-.6-.6z"/><path id="Path_17" data-name="Path 17" d="M129.2 14a.52.52 0 0 0-.4.2.758.758 0 0 0-.2.4.6.6 0 0 0 1.2 0 .758.758 0 0 0-.2-.4.4.4 0 0 0-.4-.2z"/><path id="Path_18" data-name="Path 18" d="M135.2 14a.6.6 0 1 0 .6.6.576.576 0 0 0-.6-.6z"/><path id="Path_19" data-name="Path 19" d="M131.2 14a.6.6 0 1 0 .6.6.576.576 0 0 0-.6-.6z"/><path id="Path_20" data-name="Path 20" d="M133.2 14a.6.6 0 1 0 .6.6.576.576 0 0 0-.6-.6z"/><path id="Path_21" data-name="Path 21" d="M137.2 15.2a.52.52 0 0 0 .4-.2.758.758 0 0 0 .2-.4.52.52 0 0 0-.2-.4.6.6 0 0 0-1 .4.707.707 0 0 0 .6.6z"/><path id="Path_22" data-name="Path 22" d="M137.2 20a.6.6 0 1 0 .6.6.645.645 0 0 0-.6-.6z"/><path id="Path_23" data-name="Path 23" d="M137.2 16a.6.6 0 1 0 .6.6.576.576 0 0 0-.6-.6z"/><path id="Path_24" data-name="Path 24" d="M137.2 18a.6.6 0 1 0 .6.6.645.645 0 0 0-.6-.6z"/></g></g></svg>