<svg xmlns="http://www.w3.org/2000/svg" width="37.005" height="37"><g id="rm_4" transform="translate(-432.114 -320)"><g id="Untitled-3" transform="translate(203.114 307.3)"><g id="rm_4-2" data-name="rm_4"><path id="Path_25" data-name="Path 25" d="M242.9 40.6a.472.472 0 0 0-.5.5v1.3a.5.5 0 0 0 1 0v-1.3c.1-.2-.2-.5-.5-.5z" fill="#fff"/><g id="Group_27" data-name="Group 27"><path id="Path_26" data-name="Path 26" d="M266 19.9a1.278 1.278 0 0 0-1.1-1.2c-4-.4-6.6-3.9-7.6-5.4a1.219 1.219 0 0 0-2.1 0c-1 1.5-3.6 5.1-7.6 5.4a1.278 1.278 0 0 0-1.1 1.2c0 1.1.1 2.3.2 3.5h-.6l-1-1a1.335 1.335 0 0 0-2 0l-1 1h-7.6a.713.713 0 0 0-.6.3l-4.6 6.9a.7.7 0 0 0 .6 1.1h1.7v13a2.087 2.087 0 0 0-1.4 2.2h-.3a.9.9 0 0 0-.9.9v1a.9.9 0 0 0 .9.9h4.7a.5.5 0 0 0 0-1h-4.5V48h28.2v.6h-21.6a.5.5 0 0 0 0 1h21.8a.9.9 0 0 0 .9-.9v-1a.9.9 0 0 0-.9-.9h-.3a2.3 2.3 0 0 0-1.4-2.2v-9a17.4 17.4 0 0 0 3.3-1.8.57.57 0 1 0-.7-.9 11.666 11.666 0 0 1-3.1 1.7 11.04 11.04 0 0 1-4.1-2.5c-3.2-3-4.6-7.9-4.5-12.3a.1.1 0 0 1 .1-.1c3.6-.3 6.5-2.9 8.4-6 0-.1.2-.1.2 0 1.9 3 4.8 5.6 8.4 6a.1.1 0 0 1 .1.1c.1 4-1.1 8.7-3.9 11.7a.566.566 0 0 0 .8.8c3-3.2 4.3-8.1 4.2-12.4zm-31.3 4.5h6.4l-1.3 1.3h-5.9zm-1.6 2.4h5.6l-1.4 1.4h-5.1zm-2.5 3.9l.9-1.3h4.7l-1.3 1.3zm4.7 2.2a2.092 2.092 0 0 0 .6.4v9.9a2.906 2.906 0 0 0-3.2.4V31.7h1.9a1.89 1.89 0 0 0 .7 1.2zm3.9 14h-8a1.107 1.107 0 0 1 .9-1.2.645.645 0 0 0 .6-.6 1.714 1.714 0 0 1 1.7-1.3 1.921 1.921 0 0 1 1.8 1.5.8.8 0 0 0 1.2.5 1.214 1.214 0 0 1 1.8 1.1zm13.3-13.1a16.544 16.544 0 0 0 3.2 1.8v9c-.2 0-.3.1-.4.1a2.589 2.589 0 0 0-.7-1.1 3.748 3.748 0 0 0-2.1-.9zm1.3 10.6c.7.7.3 1.3 1 1.5a.616.616 0 0 0 .7-.1 1.091 1.091 0 0 1 1.7 1h-8a1.107 1.107 0 0 1 .9-1.2.645.645 0 0 0 .6-.6 1.934 1.934 0 0 1 3.1-.6zm-2.4-7.7h-2V36h2zm0-1.8h-.8v-.7h.8zm-.1-1.8H250a.472.472 0 0 0-.5.5v1.2h-.7a.472.472 0 0 0-.5.5v1.8a.472.472 0 0 0 .5.5h2.6V43a2.982 2.982 0 0 0-1.6 1.7 2.252 2.252 0 0 0-1.7 2.2h-.2v-5.3a.5.5 0 0 0-1 0v5.2h-5.1v-10h5.1v2.6a.5.5 0 1 0 1 0v-2.7a1 1 0 0 0-1-1h-5.3a1 1 0 0 0-1 1v10.2h-.2a2.243 2.243 0 0 0-3-2.2c-.1-.2-.2-.5-.3-.7v-.6h1.3a.472.472 0 0 0 .5-.5v-1.2h.7a.472.472 0 0 0 .5-.5v-1.8a.472.472 0 0 0-.5-.5H237v-5.7c.3-.2.4-.3 7.2-7.1 7.4 7.4 6.9 6.9 7.1 7zm-13.5 8.6v.7h-.8v-.7zm-.8-1.1v-.7h2v.7zm11.4-11.8l-3-3c-.7-.7-.9-1.1-1.4-1-.2.1.4-.5-7.4 7.3a.454.454 0 0 1-.5 0l-.3-.3a.454.454 0 0 1 0-.5l8.2-8.2a.454.454 0 0 1 .5 0l3 3a14.262 14.262 0 0 0 .9 2.7z" fill="#fff"/></g><path id="Path_27" data-name="Path 27" d="M259.3 21.3l-3.8 6.7-2.4-2.1a.566.566 0 0 0-.8.8c3 2.6 2.9 2.7 3.3 2.7a.55.55 0 0 0 .5-.3l4.1-7.3c.1-.3.1-.6-.2-.7-.2-.2-.5-.1-.7.2z" fill="#fff"/></g></g></g></svg>