<svg xmlns="http://www.w3.org/2000/svg" width="30.945" height="29.4"><g id="rm_5" transform="translate(-441.08 -281.5)"><g id="Group_22" data-name="Group 22" transform="translate(270.114 261.3)" fill="#fff"><path id="Path_35" data-name="Path 35" d="M200.7 20.2H179a1.324 1.324 0 0 0-1.3 1.3v6l-1-1.5a1.6 1.6 0 0 0-2.1-.5l-2 1.2a2.827 2.827 0 0 0-1.4 1.8c-.7 2.7-.2 7.4 6.7 14.2 5.4 5.4 9.5 6.9 12.3 6.9a6.279 6.279 0 0 0 1.9-.3 3.1 3.1 0 0 0 1.8-1.4l1.2-2a1.6 1.6 0 0 0-.5-2.1l-4.9-3.3a1.664 1.664 0 0 0-2.1.3l-1.4 1.8a.377.377 0 0 1-.6.1l-.3-.1a16.432 16.432 0 0 1-4.2-3.3l-.7-.7h20.2a1.324 1.324 0 0 0 1.3-1.3v-16c.1-.5-.5-1.1-1.2-1.1zm-15.8 23.5l.3.1a1.551 1.551 0 0 0 2-.4l1.4-1.8a.494.494 0 0 1 .7-.1l4.9 3.3a.574.574 0 0 1 .2.7l-1.2 2a2.151 2.151 0 0 1-1.2.9c-2.4.7-6.7.1-13.2-6.4s-7.1-10.8-6.4-13.2a2.151 2.151 0 0 1 .9-1.2l2-1.2a.527.527 0 0 1 .7.2l3.3 4.9a.616.616 0 0 1-.1.7l-1.8 1.4a1.551 1.551 0 0 0-.4 2l.1.3a19.817 19.817 0 0 0 3.5 4.5 14.783 14.783 0 0 0 4.3 3.3zm16.1-6.2a.265.265 0 0 1-.3.3h-21.1a10.064 10.064 0 0 1-1.7-2.5l-.1-.3c-.1-.2-.1-.5.1-.6l1.8-1.4a1.552 1.552 0 0 0 .3-2.1l-1.2-1.8v-7.5c0-.1 0-.1.1-.2s.1-.1.2-.1h21.7c.1 0 .1 0 .2.1s.1.1.1.2l-.1 15.9z"/><path id="Path_36" data-name="Path 36" d="M198.9 22.6l-8.6 6.6a.608.608 0 0 1-.8 0l-8.6-6.6a.5.5 0 1 0-.6.8l8.6 6.5a1.658 1.658 0 0 0 2.1 0l8.6-6.5c.1-.1.2-.2.2-.3a.6.6 0 0 0-.1-.4.619.619 0 0 0-.8-.1z"/><path id="Path_37" data-name="Path 37" d="M185.4 30l-5.3 5.7a.495.495 0 0 0 .7.7l5.3-5.7a.483.483 0 0 0 0-.7c-.1-.2-.5-.2-.7 0z"/><path id="Path_38" data-name="Path 38" d="M194.3 30a.495.495 0 0 0-.7.7l5.3 5.7a.495.495 0 0 0 .7-.7z"/></g></g></svg>