<svg xmlns="http://www.w3.org/2000/svg" width="165.453" height="30.043" viewBox="0 0 165.453 30.043">
  <g id="newageSMB" transform="translate(-0.061)">
    <path id="Path_849" data-name="Path 849" d="M1.4,17.6l3.3-3.9a10.56,10.56,0,0,0,6.8,2.5c1.6,0,2.4-.5,2.4-1.4,0-1-.7-1.1-3.6-1.8-4.5-1-7.9-2.2-7.9-6.5A6.267,6.267,0,0,1,4.2,2c2.7-2.8,7-2.2,9.6.8A22.738,22.738,0,0,1,16,6a14.89,14.89,0,0,0-5.5-1.4c-1.5,0-2.2.6-2.2,1.3C8.3,7,9,7.3,12,8c4.8,1,7.8,2.3,7.8,6.3,0,4.3-3.3,6.9-8.5,6.9a14.912,14.912,0,0,1-9.9-3.6Z" transform="translate(116.214 3.324)" fill="#0063f2"/>
    <path id="Path_850" data-name="Path 850" d="M12.8.3h5.8l5.5,9.9L29.6.3h5.8V21.2H29.6V9.9l-5.5,9.9L18.6,9.9,15.7,5l-.8-1.3A7.561,7.561,0,0,0,13,1.6,5.968,5.968,0,0,0,11.5.7L10.4.3h2.4Zm23.3,21h5.4s7.8-.2,7.8-5.8a6.217,6.217,0,0,0-3.9-5.6,4.723,4.723,0,0,0,2.8-4.6c0-3.8-4-5.3-6.3-5.3H36.1V5.1h4.3c.1,0,1.9-.1,1.9,1.3S40.8,8,40.4,8H36v4.3h4.8a2.376,2.376,0,0,1,2.4,2,2.12,2.12,0,0,1-2,2.2H36.1v4.8Z" transform="translate(116.214 3.324)" fill="#0063f2"/>
    <path id="Path_851" data-name="Path 851" d="M1.1.8H-.1V.2H3.2V.8H1.9V4.4H1.1V.8ZM4.8.2V1.9H6.6V.2h.8V4.5H6.6V2.6H4.8V4.5H4V.2Zm6.3,2.4H9.5V3.9h1.8v.6H8.7V.2h2.5V.8H9.5V1.9h1.6Zm6,1.7a2.153,2.153,0,0,1-1.1.2,2.017,2.017,0,0,1-2.2-1.8V2.3a2.138,2.138,0,0,1,2-2.3h.3a4.253,4.253,0,0,1,1.1.2L17,.9a2.92,2.92,0,0,0-.9-.2,1.453,1.453,0,0,0-1.5,1.4v.2a1.456,1.456,0,0,0,1.2,1.6h.3a1.486,1.486,0,0,0,.9-.2Zm4.7-2A2.041,2.041,0,0,1,20,4.6h-.3a2.006,2.006,0,0,1-2-2V2.4A2.026,2.026,0,0,1,19.6.2h.2a1.844,1.844,0,0,1,2,1.8v.3Zm-3.2.1c0,.8.4,1.6,1.2,1.6S21,3.3,21,2.4c0-.8-.4-1.6-1.2-1.6S18.6,1.4,18.6,2.4Zm7.9.3c0-.5-.1-1.2-.1-1.8A13.636,13.636,0,0,1,26,2.6l-.6,1.9h-.6l-.6-1.9A15.426,15.426,0,0,1,23.7.9c0,.6-.1,1.2-.1,1.8l-.1,1.8h-.8L23,.2h1L24.6,2A8.331,8.331,0,0,1,25,3.5c.1-.5.3-1,.4-1.5L26,.2h1l.3,4.3h-.8V2.7Zm2-2.5A4.869,4.869,0,0,1,29.7.1,2.01,2.01,0,0,1,31,.5a1.159,1.159,0,0,1,.4,1,1.284,1.284,0,0,1-.4,1,2.389,2.389,0,0,1-1.4.5h-.4V4.6h-.8V.2Zm.8,2c.1,0,.2.1.4.1.6,0,1-.3,1-.8s-.3-.8-.9-.8a.9.9,0,0,0-.5.1Zm3.2-2h.8V3.8h1.8v.6H32.5V.2Zm5.9,2.4H36.8V3.9h1.8v.6H36V.2h2.5V.8H36.8V1.9h1.6ZM40.6.8H39.4V.2h3.3V.8H41.5V4.4h-.8Zm5.3,1.8H44.3V3.9h1.8v.6H43.5V.2H46V.8H44.3V1.9h1.6v.7Zm2.9,1a2.016,2.016,0,0,0,1.1.3c.5,0,.8-.2.8-.6,0-.3-.2-.5-.8-.7-.7-.3-1.2-.6-1.2-1.3S49.3.1,50.3.1a2.958,2.958,0,0,1,1,.2l-.2.7a2.92,2.92,0,0,0-.9-.2c-.5,0-.7.3-.7.5,0,.3.3.5.8.7.8.3,1.1.6,1.1,1.3s-.5,1.3-1.7,1.3a2.663,2.663,0,0,1-1.2-.3l.3-.7Zm7.6-1.3a2.114,2.114,0,0,1-1.8,2.3h-.3a2.006,2.006,0,0,1-2-2V2.4A2.026,2.026,0,0,1,54.2.2h.2a1.844,1.844,0,0,1,2,1.8v.3Zm-3.3.1c0,.9.4,1.6,1.2,1.6s1.2-.7,1.2-1.6c0-.8-.4-1.6-1.2-1.6s-1.2.6-1.2,1.6ZM57.4.2h.8V3.8H60v.6H57.4Zm4.1,0V2.7c0,.9.4,1.2.9,1.2q.9,0,.9-1.2V.2h.8V2.7c0,1.3-.7,1.9-1.7,1.9s-1.7-.6-1.7-2V.2h.8Zm4.7.6H65V.2h3.3V.8H67V4.4h-.8ZM69.9.2V4.5h-.8V.2h.8ZM75,2.3a2.114,2.114,0,0,1-1.8,2.3h-.3a2.006,2.006,0,0,1-2-2V2.4A2.026,2.026,0,0,1,72.8.2H73A1.838,1.838,0,0,1,75,2v.3Zm-3.3.1c0,.9.4,1.6,1.2,1.6s1.2-.7,1.2-1.6c0-.8-.4-1.6-1.2-1.6s-1.2.6-1.2,1.6ZM76,4.5V.2h.9L78.1,2c.3.5.5,1,.8,1.4a10.283,10.283,0,0,1-.1-1.8V.2h.8V4.5h-.8L77.7,2.6a10.93,10.93,0,0,1-.8-1.5A9.723,9.723,0,0,1,77,2.9V4.5Z" transform="translate(0.161 25.443)" fill="#fff" opacity="0.6"/>
    <path id="Path_852" data-name="Path 852" d="M.2,0H5.1L16.2,14.9V0h5V23h-5L5.1,8.1V23H.2ZM35.1,17.5l3.1,3.2a10.529,10.529,0,0,1-7.1,2.7,8.91,8.91,0,0,1-9.2-9.1,8.757,8.757,0,0,1,8.9-9c5.4,0,8.6,4.1,8.6,10.7H27a4.174,4.174,0,0,0,4.1,3.1,5.76,5.76,0,0,0,4-1.6Zm-8-5.1h7.7a3.6,3.6,0,0,0-3.7-2.8A4.117,4.117,0,0,0,27.1,12.4ZM37.6,5.7h4.8l3.3,10.8L49.1,5.7h4.1l3.4,10.8L60.9,5.7h4.8L58.7,23H54.3L51.1,12.1,47.9,23H43.5L37.6,5.7ZM77.2,19.4H66.9L65.5,23H60L69.4,0h5.5l9.4,23H78.7l-1.5-3.6Zm-1.7-4.2L72.1,6.8l-3.4,8.4Z" fill="#fff"/>
    <path id="Path_853" data-name="Path 853" d="M100.2,5.7V21.2c0,4.5-3.9,7.6-9.3,7.6a13.187,13.187,0,0,1-7.6-2.3L85,23a8.067,8.067,0,0,0,5.2,1.6c3.1,0,5.2-1.4,5.2-3.7V19a7.26,7.26,0,0,1-5.7,2.7c-4.4,0-7.7-3.4-7.7-8.2s3.3-8.2,7.7-8.2A7.12,7.12,0,0,1,95.4,8V5.7Zm-4.9,7.8a3.964,3.964,0,0,0-4.2-4.1,4.02,4.02,0,0,0-4.2,4.1,4.2,4.2,0,0,0,8.4,0Zm18.5,4,3.1,3.2a10.529,10.529,0,0,1-7.1,2.7,8.91,8.91,0,0,1-9.2-9.1,8.757,8.757,0,0,1,8.9-9c5.4,0,8.6,4.1,8.6,10.7H105.6a4.174,4.174,0,0,0,4.1,3.1A5.826,5.826,0,0,0,113.8,17.5Zm-8-5.1h7.7a3.6,3.6,0,0,0-3.7-2.8A4.209,4.209,0,0,0,105.8,12.4Z" fill="#fff"/>
  </g>
</svg>
