<?xml version="1.0" encoding="utf-8"?>
<!-- Generator: Adobe Illustrator 22.0.1, SVG Export Plug-In . SVG Version: 6.00 Build 0)  -->
<svg version="1.1" id="Layer_1" xmlns="http://www.w3.org/2000/svg" xmlns:xlink="http://www.w3.org/1999/xlink" x="0px" y="0px"
	 viewBox="0 0 71.9 72" style="enable-background:new 0 0 71.9 72;" xml:space="preserve">
<style type="text/css">
	.st0{fill-rule:evenodd;clip-rule:evenodd;fill:#FBEE23;}
</style>
<title>Icons/External</title>
<desc>Created with Sketch.</desc>
<g>
	<path class="st0" d="M52.7,39.6c-0.8,0-1.4-0.6-1.4-1.4c0-9.8-8-17.9-17.9-17.9c-0.8,0-1.4-0.6-1.4-1.4c0-0.8,0.6-1.4,1.4-1.4
		c11.4,0,20.7,9.3,20.7,20.7C54.2,39,53.5,39.6,52.7,39.6z M61.6,39.6c-0.8,0-1.4-0.6-1.4-1.4c0-14.7-12-26.7-26.7-26.7
		c-0.8,0-1.4-0.6-1.4-1.4c0-0.8,0.6-1.4,1.4-1.4C49.7,8.6,63,21.9,63,38.2C63,39,62.4,39.6,61.6,39.6z M70.4,39.6
		c-0.8,0-1.4-0.6-1.4-1.4C69,18.7,53.2,2.9,33.7,2.9c-0.8,0-1.4-0.6-1.4-1.4c0-0.8,0.6-1.4,1.4-1.4c21.1,0,38.2,17.1,38.2,38.2
		C71.9,39,71.2,39.6,70.4,39.6z M48.5,69c0,0,0.1,0,0.1,0c1.7,0.4,3.5-0.2,4.8-1.4l3.6-3.6L44.1,51.3l-3.6,3.6
		c-3,3-7.5,3.7-11.1,1.6c-3.2-1.9-6-4-8.4-6.4c-2-2-3.9-4.4-5.5-7c-2.3-3.7-1.7-8.6,1.5-11.4c0.1-0.1,0.2-0.1,0.2-0.2l3.6-3.6
		L8,15.1l-3.6,3.6c-1,1-1.6,2.4-1.5,3.8c0,0,0,0,0,0c0,0.5,0.1,1,0.2,1.4c0,0.1,0,0.1,0,0.2c1,5.3,4.5,18.6,14.8,29
		C30.4,65.4,47.3,68.8,48.5,69z M49.7,72c-0.5,0-1-0.1-1.6-0.2c0,0,0,0,0,0c-0.8-0.1-18.7-3.3-32.1-16.8C5.1,44.2,1.4,30.3,0.4,24.7
		C0.1,24,0,23.3,0,22.6c0-0.1,0-0.2,0-0.2c0-2.2,0.8-4.2,2.4-5.8L6.9,12c0.3-0.3,0.6-0.4,1-0.4c0.4,0,0.7,0.1,1,0.4l14.8,14.8
		c0.6,0.6,0.6,1.5,0,2l-4.6,4.6c-0.1,0.1-0.2,0.2-0.4,0.3c-2.1,1.9-2.6,5.2-1,7.7c1.5,2.4,3.3,4.6,5.1,6.5c2.2,2.2,4.9,4.2,7.9,6
		c2.4,1.4,5.6,1,7.6-1.1l4.6-4.6c0.6-0.6,1.5-0.6,2,0L60,63c0.6,0.6,0.6,1.5,0,2l-4.6,4.6C53.9,71.2,51.8,72,49.7,72z"/>
</g>
</svg>
