<?xml version="1.0" encoding="utf-8"?>
<!-- Generator: Adobe Illustrator 22.1.0, SVG Export Plug-In . SVG Version: 6.00 Build 0)  -->
<svg version="1.1" id="Layer_1" xmlns="http://www.w3.org/2000/svg" xmlns:xlink="http://www.w3.org/1999/xlink" x="0px" y="0px"
	 viewBox="0 0 489.5 978.5" style="enable-background:new 0 0 489.5 978.5;" xml:space="preserve">
<style type="text/css">
	.st0{fill:#9AA7FF;}
	.st1{fill:#8194EF;}
</style>
<g>
	<path class="st0" d="M327.5,628.5c-24.4,0-44.3-19.9-44.3-44.3c0-1.5-1.2-2.8-2.8-2.8s-2.8,1.2-2.8,2.8c0,24.4-19.9,44.3-44.3,44.3
		c-1.5,0-2.8,1.2-2.8,2.8c0,1.5,1.2,2.8,2.8,2.8c24.4,0,44.3,19.9,44.3,44.3c0,1.5,1.2,2.8,2.8,2.8s2.8-1.2,2.8-2.8
		c0-24.4,19.9-44.3,44.3-44.3c1.5,0,2.8-1.2,2.8-2.8C330.3,629.8,329,628.5,327.5,628.5z"/>
	<path class="st1" d="M275.4,631.3c7.1-6.2,12.2-14.6,14.2-24.1c-4.1-6.7-6.4-14.6-6.4-23c0-1.5-1.2-2.8-2.8-2.8s-2.8,1.2-2.8,2.8
		c0,15.7-8.3,29.6-20.7,37.5c-1.7,1.1-3.4,2-5.2,2.8c-0.1,0-0.1,0.1-0.2,0.1c-1.8,0.8-3.6,1.5-5.5,2.1c-0.1,0-0.3,0.1-0.4,0.1
		c-0.8,0.2-1.6,0.4-2.4,0.6c-0.2,0-0.3,0.1-0.5,0.1c-0.9,0.2-1.9,0.4-2.8,0.5c-0.2,0-0.3,0-0.5,0.1c-0.8,0.1-1.6,0.2-2.4,0.3
		c-0.3,0-0.5,0-0.8,0.1c-0.9,0.1-1.8,0.1-2.8,0.1c0,0-0.1,0-0.1,0c-1.5,0-2.8,1.2-2.8,2.8l0,0l0,0c0,1.5,1.2,2.8,2.8,2.8
		c0,0,0.1,0,0.1,0c0.9,0,1.8,0,2.8,0.1c0.3,0,0.5,0,0.8,0.1c0.8,0.1,1.6,0.1,2.4,0.3c0.2,0,0.3,0,0.5,0.1c0.9,0.1,1.9,0.3,2.8,0.5
		c0.2,0,0.3,0.1,0.5,0.1c0.8,0.2,1.6,0.4,2.4,0.6c0.1,0,0.3,0.1,0.4,0.1c1.9,0.6,3.7,1.3,5.5,2.1c0.1,0,0.1,0.1,0.2,0.1
		c1.8,0.8,3.6,1.8,5.2,2.8c12.4,7.9,20.7,21.7,20.7,37.5c0,1.5,1.2,2.8,2.8,2.8s2.8-1.2,2.8-2.8c0-8.4,2.4-16.3,6.4-23
		C287.6,645.9,282.5,637.5,275.4,631.3z"/>
	<g>
		<circle class="st1" cx="359.4" cy="727.1" r="18.8"/>
	</g>
	<path class="st0" d="M269.6,845.9c-85.8-28.4-147.9-109.3-147.9-204.5c0-47.6,15.3-92.8,44.1-130.6c3.8-4.9,3.7-11.8-0.2-16.7
		c-3.9-4.9-10.6-6.5-16.2-3.9c-43.9,20.1-81.2,52.1-107.8,92.7C14.4,624.5,0,672.9,0,722.8c0,141,114.7,255.6,255.6,255.6
		c49.9,0,98.3-14.4,139.9-41.7c40.5-26.6,72.6-63.8,92.7-107.8c2.6-5.7,1-12.4-3.9-16.2c-4.9-3.9-11.7-4-16.7-0.2
		c-37.8,28.9-82.9,44.1-130.6,44.1c-13.2,0-26.1-1.2-38.6-3.5"/>
	<path class="st1" d="M418.9,913.6c-41.6,27.3-90,41.7-139.9,41.7c-141,0-255.6-114.7-255.6-255.6c0-49.9,14.4-98.3,41.7-139.9
		c6.8-10.4,14.3-20.2,22.4-29.3c-17.5,15.3-32.9,32.9-45.8,52.6C14.4,624.5,0,672.9,0,722.8c0,141,114.7,255.6,255.6,255.6
		c49.9,0,98.3-14.4,139.9-41.7c19.3-12.6,36.7-27.7,51.7-44.8C438.4,899.8,428.9,907,418.9,913.6z"/>
	<g>
		<circle class="st0" cx="280.4" cy="738.2" r="11.2"/>
		<circle class="st0" cx="352" cy="565.6" r="11.2"/>
	</g>
</g>
<g>
	<path class="st0" d="M327.5,139.5c-24.4,0-44.3-19.9-44.3-44.3c0-1.5-1.2-2.8-2.8-2.8s-2.8,1.2-2.8,2.8c0,24.4-19.9,44.3-44.3,44.3
		c-1.5,0-2.8,1.2-2.8,2.8s1.2,2.8,2.8,2.8c24.4,0,44.3,19.9,44.3,44.3c0,1.5,1.2,2.8,2.8,2.8s2.8-1.2,2.8-2.8
		c0-24.4,19.9-44.3,44.3-44.3c1.5,0,2.8-1.2,2.8-2.8C330.3,140.8,329,139.5,327.5,139.5z"/>
	<path class="st1" d="M275.4,142.3c7.1-6.2,12.2-14.6,14.2-24.1c-4.1-6.7-6.4-14.6-6.4-23c0-1.5-1.2-2.8-2.8-2.8s-2.8,1.2-2.8,2.8
		c0,15.7-8.3,29.6-20.7,37.5c-1.7,1.1-3.4,2-5.2,2.8c-0.1,0-0.1,0.1-0.2,0.1c-1.8,0.8-3.6,1.5-5.5,2.1c-0.1,0-0.3,0.1-0.4,0.1
		c-0.8,0.2-1.6,0.4-2.4,0.6c-0.2,0-0.3,0.1-0.5,0.1c-0.9,0.2-1.9,0.4-2.8,0.5c-0.2,0-0.3,0-0.5,0.1c-0.8,0.1-1.6,0.2-2.4,0.3
		c-0.3,0-0.5,0-0.8,0.1c-0.9,0.1-1.8,0.1-2.8,0.1c0,0-0.1,0-0.1,0c-1.5,0-2.8,1.2-2.8,2.8l0,0l0,0c0,1.5,1.2,2.8,2.8,2.8
		c0,0,0.1,0,0.1,0c0.9,0,1.8,0,2.8,0.1c0.3,0,0.5,0,0.8,0.1c0.8,0.1,1.6,0.1,2.4,0.3c0.2,0,0.3,0,0.5,0.1c0.9,0.1,1.9,0.3,2.8,0.5
		c0.2,0,0.3,0.1,0.5,0.1c0.8,0.2,1.6,0.4,2.4,0.6c0.1,0,0.3,0.1,0.4,0.1c1.9,0.6,3.7,1.3,5.5,2.1c0.1,0,0.1,0.1,0.2,0.1
		c1.8,0.8,3.6,1.8,5.2,2.8c12.4,7.9,20.7,21.7,20.7,37.5c0,1.5,1.2,2.8,2.8,2.8s2.8-1.2,2.8-2.8c0-8.4,2.4-16.3,6.4-23
		C287.6,156.9,282.5,148.5,275.4,142.3z"/>
	<g>
		<circle class="st1" cx="359.4" cy="238.1" r="18.8"/>
	</g>
	<path class="st0" d="M269.6,356.9c-85.8-28.4-147.9-109.3-147.9-204.5c0-47.6,15.3-92.8,44.1-130.6c3.8-4.9,3.7-11.8-0.2-16.7
		c-3.9-4.9-10.6-6.5-16.2-3.9C105.5,21.3,68.2,53.4,41.7,93.9C14.4,135.5,0,183.9,0,233.8c0,141,114.7,255.6,255.6,255.6
		c49.9,0,98.3-14.4,139.9-41.7c40.5-26.6,72.6-63.8,92.7-107.8c2.6-5.7,1-12.4-3.9-16.2c-4.9-3.9-11.7-4-16.7-0.2
		c-37.8,28.9-82.9,44.1-130.6,44.1c-13.2,0-26.1-1.2-38.6-3.5"/>
	<path class="st1" d="M418.9,424.6c-41.6,27.3-90,41.7-139.9,41.7c-141,0-255.6-114.7-255.6-255.6c0-49.9,14.4-98.3,41.7-139.9
		c6.8-10.4,14.3-20.2,22.4-29.3C70,56.6,54.5,74.2,41.7,93.9C14.4,135.5,0,183.9,0,233.8c0,141,114.7,255.6,255.6,255.6
		c49.9,0,98.3-14.4,139.9-41.7c19.3-12.6,36.7-27.7,51.7-44.8C438.4,410.8,428.9,418,418.9,424.6z"/>
	<g>
		<circle class="st0" cx="280.4" cy="249.2" r="11.2"/>
		<circle class="st0" cx="352" cy="76.6" r="11.2"/>
	</g>
</g>
</svg>
