<svg xmlns="http://www.w3.org/2000/svg" width="308" height="314" viewBox="0 0 308 314">
  <g id="define-idea" transform="translate(-229 -496)">
    <circle id="Ellipse_47" data-name="Ellipse 47" cx="136" cy="136" r="136" transform="translate(265 538)" fill="#f4f4f4"/>
    <g id="undraw_ideas_s70l_1_" data-name="undraw_ideas_s70l (1)" transform="translate(228.602 495.491)">
      <ellipse id="Ellipse_48" data-name="Ellipse 48" cx="111.759" cy="19.744" rx="111.759" ry="19.744" transform="translate(60.39 231.108)" fill="#3f3d56"/>
      <path id="Path_164" data-name="Path 164" d="M272.274,269.677A53.217,53.217,0,1,0,247.582,289.5a17.214,17.214,0,1,0,24.692-19.825Z" transform="translate(-174.5 -146.66)" fill="#0063ff"/>
      <rect id="Rectangle_63" data-name="Rectangle 63" width="63.305" height="4.998" transform="translate(21.911 82.669)" fill="#fff"/>
      <rect id="Rectangle_64" data-name="Rectangle 64" width="63.305" height="4.998" transform="translate(21.911 90.999)" fill="#fff"/>
      <rect id="Rectangle_65" data-name="Rectangle 65" width="63.305" height="4.998" transform="translate(21.911 99.328)" fill="#fff"/>
      <path id="Path_165" data-name="Path 165" d="M740.287,160.4a53.217,53.217,0,1,1,24.692,19.825A17.214,17.214,0,1,1,740.287,160.4Z" transform="translate(-529.264 -76.973)" fill="#0063ff"/>
      <rect id="Rectangle_66" data-name="Rectangle 66" width="63.305" height="4.998" transform="translate(286.886 48.081) rotate(180)" fill="#fff"/>
      <rect id="Rectangle_67" data-name="Rectangle 67" width="63.305" height="4.998" transform="translate(286.886 56.41) rotate(180)" fill="#fff"/>
      <rect id="Rectangle_68" data-name="Rectangle 68" width="63.305" height="4.998" transform="translate(286.886 64.74) rotate(180)" fill="#fff"/>
      <path id="Path_166" data-name="Path 166" d="M492.269,626.968a29.71,29.71,0,1,1,13.785,11.068,9.61,9.61,0,1,1-13.785-11.068Z" transform="translate(-373.658 -397.875)" fill="#0063ff"/>
      <circle id="Ellipse_49" data-name="Ellipse 49" cx="3.438" cy="3.438" r="3.438" transform="translate(128.156 208.392)" fill="#fff"/>
      <circle id="Ellipse_50" data-name="Ellipse 50" cx="3.438" cy="3.438" r="3.438" transform="translate(139.887 208.392)" fill="#fff"/>
      <circle id="Ellipse_51" data-name="Ellipse 51" cx="3.438" cy="3.438" r="3.438" transform="translate(151.617 208.392)" fill="#fff"/>
      <path id="Path_167" data-name="Path 167" d="M568.4,366.381s15.341.417,17.874,1.339,3.667,7.513,3.667,7.513l-11.911,3.744-8.909-.5-6.7.474,3.744-9.8Z" transform="translate(-421.634 -261.214)" fill="#2f2e41"/>
      <path id="Path_168" data-name="Path 168" d="M578.1,352.486s1.009,3.9-1.231,6.658,9.63,12.6,9.63,12.6l6.262-1.076s-1.38-11.978.474-15.011S578.1,352.486,578.1,352.486Z" transform="translate(-430.671 -252.352)" fill="#9f616a"/>
      <path id="Path_169" data-name="Path 169" d="M578.1,352.486s1.009,3.9-1.231,6.658,9.63,12.6,9.63,12.6l6.262-1.076s-1.38-11.978.474-15.011S578.1,352.486,578.1,352.486Z" transform="translate(-430.671 -252.352)" opacity="0.1"/>
      <path id="Path_170" data-name="Path 170" d="M496.9,590.132l-13.816,18.322,9.429,5.505,12.977-21.232Z" transform="translate(-307.823 -376.023)" fill="#9f616a"/>
      <path id="Path_171" data-name="Path 171" d="M657.642,710.111s-5.088-5.912-4.861-4.593-3.62,12.5-.041,13.579,34.271,3.95,34.693.484-9.156-5.891-9.156-5.891-5.69-5.469-6.952-4.913S657.642,710.111,657.642,710.111Z" transform="translate(-478.259 -477.37)" fill="#2f2e41"/>
      <path id="Path_172" data-name="Path 172" d="M512.663,635.941l11.036,18.8,8.332-4.825L520.9,634.525Z" transform="translate(-326.688 -404.334)" fill="#9f616a"/>
      <path id="Path_173" data-name="Path 173" d="M704.7,589.643l-3.275,4.635s-15.614,21.685-13.955,23.436,8.564,8.368,12.076,7.086,15.989-23.446,15.989-23.446l-3.255-13.013Z" transform="translate(-501.307 -402.764)" fill="#2f2e41"/>
      <path id="Path_174" data-name="Path 174" d="M548.466,535.341a19.836,19.836,0,0,0,12.359,8.734c8.862,2.209,18.121,6.725,18.451,6.669s1.262-.556,1.488.762,2.657,3.615,2.657,3.615,9.789,33.266,13.528,33.3,11.422-2.642,11.581-3.687-11.448-35.017-11.561-35.676l-1.36-7.91s15.351,2.451,16.783,2.884,14.167,7.4,14.167,7.4,12.982-9.357.839-18.806-33.014-16.381-33.014-16.381l-7.487-2.106-6.526-.39-.961-3.685-15.455.892-16.129,6.844Z" transform="translate(-412.329 -352.849)" fill="#2f2e41"/>
      <circle id="Ellipse_52" data-name="Ellipse 52" cx="12.039" cy="12.039" r="12.039" transform="translate(144.495 83.815)" fill="#9f616a"/>
      <path id="Path_175" data-name="Path 175" d="M562.76,366.945l1.448-.249s2.615,10.069,10.705,11.732c0,0,3.992-4.782,3.822-5.589s3.161-5.112,4.933-2.7-.432,44.863,1.056,45.626,4.681,1.571,2.111,4.387-12.776,6.607-15.037,5.3-6.88-12.39-8.878-16.118-5.2-16.412-5.2-16.412-4.084-13.888-1.571-17.035S562.76,366.945,562.76,366.945Z" transform="translate(-417.118 -261.415)" fill="#d0cde1"/>
      <path id="Path_176" data-name="Path 176" d="M556.265,416.629a68.688,68.688,0,0,1-1.379,8.792c-.59,2.358-1.278,3.781-2.062,3.72-2-.15-2.912,2.786-3.381,6.171-.5,3.591-.5,7.688-.776,9.135-.364,1.913-2.693,3.373-7.348,2.944a32.844,32.844,0,0,1-8.1-1.986c-6.284-2.285-6.1-20.814-5.047-34.564.643-8.428,1.609-15.064,1.609-15.064a74.816,74.816,0,0,1-2.519-9.6,12.754,12.754,0,0,1-.182-2.155c.093-3.409,6.317-12.621,10.077-18.359s8.9-1.529,8.9-1.529l-1.787,5.395s2.77,4.274,2.79,8.343,6.632,7,9.006,8.973C557.563,388.087,557.526,404.606,556.265,416.629Z" transform="translate(-399.1 -258.835)" fill="#2f2e41"/>
      <path id="Path_177" data-name="Path 177" d="M620.739,372.081s.434.513,2.42.263c2.382-.3,5.658.524,6.419,2.8,1.4,4.171,5.33,21.139,5.33,21.139s1.638,19.4,2.374,23.683.371,8.08,1.1,10.33-7.168-4.2-10.078-3.358-4.779-10.037-4.413-13.832.675-7.92-.335-11.818.78-14.215.713-16.579S617.851,376.387,620.739,372.081Z" transform="translate(-458.347 -264.849)" fill="#2f2e41"/>
      <path id="Path_178" data-name="Path 178" d="M640.151,538.507s12.747,6.954,13.967,16.852-17.049-9.584-17.049-9.584Z" transform="translate(-469.242 -370.984)" fill="#9f616a"/>
      <path id="Path_179" data-name="Path 179" d="M665.664,517.138s3.906,19.687,9.99,18.642-3.4-19.774-3.4-19.774Z" transform="translate(-487.478 -356.634)" fill="#9f616a"/>
      <path id="Path_180" data-name="Path 180" d="M713.531,751.053s-3.115,3.589-3.888,3.043-2.549,6.885-.948,8.306,7.771,3.754,7.838,6.118,16.613,1.9,17.2-.582-2.075-8.126-3.95-9.161-8.805-10.562-8.805-10.562S715.555,749.009,713.531,751.053Z" transform="translate(-514.507 -504.723)" fill="#2f2e41"/>
      <path id="Path_181" data-name="Path 181" d="M568.3,476.828c-2.956-2.087-11.21-2.6-18.537-3.086-3.215-.206-6.252-.408-8.585-.736-2.248-.311-4.27-2.366-6.066-5.427-2.722-4.638-4.921-11.594-6.616-18.307.643-8.428,1.609-15.064,1.609-15.064a74.827,74.827,0,0,1-2.519-9.6,5.136,5.136,0,0,1,1.626-1.464c7.772-3.336,15.193,29.5,16.135,34.648.016.085.028.166.04.234.457,2.653,5.395,4.922,9.819,5.819,2.726.554,5.261.59,6.43-.129,3.069-1.884,12.508,5.657,13.224,5.872S572.546,479.833,568.3,476.828Z" transform="translate(-399.42 -297.265)" opacity="0.1"/>
      <path id="Path_182" data-name="Path 182" d="M525.392,417.57s-5.649,2.667-3.167,15.135,7.482,33.663,15.13,34.724,22.875.819,27.123,3.821,7.276-7.019,6.561-7.235-10.155-7.755-13.224-5.871-15.511-1.406-16.247-5.69S533.291,414.176,525.392,417.57Z" transform="translate(-395.6 -293.707)" fill="#2f2e41"/>
      <path id="Path_183" data-name="Path 183" d="M644.446,401.484l6.209,14.406s.625-.312,1.351,1.939,1.066,4.228,2.338,5.706,6.931,22.56,7.1,23.549-7.817,4.4-9.6,1.65S644.446,401.484,644.446,401.484Z" transform="translate(-473.946 -283.6)" fill="#2f2e41"/>
      <path id="Path_184" data-name="Path 184" d="M573.518,312.039c.461-.123.529-.736.545-1.213.083-2.556,1.622-5.179,4.069-5.923a6.84,6.84,0,0,1,2.883-.159,10.92,10.92,0,0,1,3.9,1.3,6.092,6.092,0,0,0,1.985.9c.477.072,2.544.673,3.02.758,1.045.186,2.016,1.121,3.019.773.959-.333,1.172-1.575,1.2-2.59.053-2.313-1.7-5.514-3.25-7.235a8.068,8.068,0,0,0-4.668-2.222,31.078,31.078,0,0,0-6.105-.371,19.4,19.4,0,0,0-8.1,1.459c-2.493,1.2-4.587,3.577-4.706,6.339-.025.575.034,1.153-.014,1.727-.118,1.4-.862,2.665-1.21,4.026a7.366,7.366,0,0,0,1.029,5.887c.925,1.361,2.379,2.593,2.326,4.238l2.006-2.078a1.647,1.647,0,0,0,.49-2.013l-.71-2.77a2.5,2.5,0,0,1-.061-1.541C571.926,309.453,572.749,312.245,573.518,312.039Z" transform="translate(-423.833 -216.353)" fill="#2f2e41"/>
      <path id="Path_185" data-name="Path 185" d="M833.465,559.912c-.083-.136-2.043-3.409-2.723-10.206-.623-6.236-.223-16.746,5.228-31.408,10.327-27.775-2.38-50.186-2.51-50.409l.627-.364a55.634,55.634,0,0,1,5.249,14.869,64.867,64.867,0,0,1-2.687,36.157c-10.309,27.728-2.645,40.854-2.566,40.984Z" transform="translate(-592.613 -325.717)" fill="#3f3d56"/>
      <circle id="Ellipse_53" data-name="Ellipse 53" cx="4.709" cy="4.709" r="4.709" transform="translate(232.105 131.122)" fill="#0063ff"/>
      <circle id="Ellipse_54" data-name="Ellipse 54" cx="4.709" cy="4.709" r="4.709" transform="translate(246.958 148.511)" fill="#3f3d56"/>
      <circle id="Ellipse_55" data-name="Ellipse 55" cx="4.709" cy="4.709" r="4.709" transform="translate(236.814 160.103)" fill="#0063ff"/>
      <circle id="Ellipse_56" data-name="Ellipse 56" cx="4.709" cy="4.709" r="4.709" transform="translate(249.131 169.885)" fill="#0063ff"/>
      <circle id="Ellipse_57" data-name="Ellipse 57" cx="4.709" cy="4.709" r="4.709" transform="translate(233.191 185.1)" fill="#3f3d56"/>
      <path id="Path_186" data-name="Path 186" d="M845.173,687.314s-4.709-11.593,9.419-20.287Z" transform="translate(-601.476 -452.946)" fill="#3f3d56"/>
      <path id="Path_187" data-name="Path 187" d="M797.536,700.93S795.392,688.6,778.8,688.708Z" transform="translate(-559.631 -466.772)" fill="#3f3d56"/>
    </g>
  </g>
</svg>
