<svg xmlns="http://www.w3.org/2000/svg" width="479.342" height="399.502" viewBox="0 0 479.342 399.502">
  <g id="dream-app" transform="translate(1)">
    <path id="Path_6" data-name="Path 6" d="M543.806,524.549H298.074c-65.127-14.423-118.313-64.1-118.313-138.386a154.694,154.694,0,0,1,3.623-33.416l198.071-31.905,152.8-24.611a273.27,273.27,0,0,1,31.256,23.825L419.253,375.847l-69,26.321,77.484-19.259,160.823-39.971a274.32,274.32,0,0,1,26.553,34.941l-48.635,36.362,54.948-26.008q.349.6.695,1.2C656.6,449.6,613.145,524.549,543.806,524.549Z" transform="translate(-179.761 -183.995)" fill="#f2f2f2"/>
    <path id="Path_7" data-name="Path 7" d="M508.114,245.706c-37.2,7.683-82.926,17.392-129.946,27.486-67.983,14.6-138.656,30.006-190.109,41.269q1.705-6.671,3.969-13.068a272.688,272.688,0,0,1,150.043-79.322h0a275.058,275.058,0,0,1,46.332-3.912A272.19,272.19,0,0,1,508.114,245.706Z" transform="translate(-183.337 -150.356)" fill="#f2f2f2"/>
    <circle id="Ellipse_1" data-name="Ellipse 1" cx="39.777" cy="39.777" r="39.777" transform="translate(25.963 28.85)" fill="#ff6584"/>
    <path id="Path_8" data-name="Path 8" d="M543.339,486.672c-24.478,23.45-106.5,24.445-237.294,1.577q-4.014-.7-7.972-1.577c-35.494-7.86-67.441-26.192-89.245-53.371-18.057-22.508-29.068-51.214-29.068-85.015a154.694,154.694,0,0,1,3.623-33.416q.512-2.338,1.1-4.647,1.705-6.671,3.969-13.068c18.425-52.011,64.128-88.833,117.593-88.833,13.281,0,23.754,3.519,32.45,9.511h0c15.853,10.922,25.8,30.067,36.092,51.121,2.25,4.6,4.514,9.293,6.863,14.011,9.686,19.453,20.755,39.327,37.8,55a107.5,107.5,0,0,0,8.488,7.062q2.231,1.677,4.59,3.254C534.075,416.363,568.069,462.975,543.339,486.672Z" transform="translate(-180.761 -146.118)" fill="#3f3d56"/>
    <ellipse id="Ellipse_2" data-name="Ellipse 2" cx="42.392" cy="7.156" rx="42.392" ry="7.156" transform="translate(239.157 310.35)" opacity="0.1"/>
    <ellipse id="Ellipse_3" data-name="Ellipse 3" cx="42.392" cy="7.156" rx="42.392" ry="7.156" transform="translate(11.331 230.777)" opacity="0.1"/>
    <path id="Path_9" data-name="Path 9" d="M279.368,469.943c-7,9.156-6.2,21.531-6.2,21.531S285.319,489,292.32,479.847s6.2-21.531,6.2-21.531S286.369,460.787,279.368,469.943Z" transform="translate(-219.995 -253.832)" fill="#d0cde1"/>
    <path id="Path_10" data-name="Path 10" d="M279.755,465.942C278.4,477.388,269.2,485.706,269.2,485.706s-6.994-10.24-5.636-21.686,10.556-19.764,10.556-19.764S281.113,454.5,279.755,465.942Z" transform="translate(-215.794 -247.774)" fill="#6c63ff"/>
    <ellipse id="Ellipse_4" data-name="Ellipse 4" cx="36.251" cy="6.12" rx="36.251" ry="6.12" transform="translate(136.358 278.589)" opacity="0.1"/>
    <path id="Path_11" data-name="Path 11" d="M487.5,558.96c-5.987,7.83-5.3,18.412-5.3,18.412s10.392-2.113,16.379-9.943,5.3-18.412,5.3-18.412S493.491,551.13,487.5,558.96Z" transform="translate(-310.063 -292.913)" fill="#d0cde1"/>
    <path id="Path_12" data-name="Path 12" d="M487.834,555.538c-1.162,9.788-9.027,16.9-9.027,16.9s-5.981-8.757-4.819-18.545,9.027-16.9,9.027-16.9S489,545.75,487.834,555.538Z" transform="translate(-306.47 -287.732)" fill="#6c63ff"/>
    <path id="Path_13" data-name="Path 13" d="M691.517,494.395c.019,39.732-23.594,53.614-52.728,53.628q-1.015,0-2.02-.022-2.026-.043-4.009-.183c-26.3-1.849-46.734-16.422-46.751-53.373-.019-38.239,48.83-86.52,52.494-90.09,0,0,0,0,.006,0,.139-.136.21-.2.21-.2S691.5,454.667,691.517,494.395Z" transform="translate(-354.801 -230.493)" fill="#6c63ff"/>
    <path id="Path_14" data-name="Path 14" d="M659.29,541.947l19.281-26.968-19.329,29.927-.05,3.1q-2.025-.043-4.009-.183l2.059-39.749-.016-.308.036-.058.2-3.756-19.406-29.983,19.463,27.169.049.8L659.12,471.9,642.5,440.915l16.817,25.707,1.6-62.265.006-.207v.2l-.248,49.1L677.2,433.982l-16.583,23.7-.424,26.891,15.422-25.813-15.482,29.767-.236,14.953,22.382-35.932L659.811,508.7Z" transform="translate(-377.225 -230.494)" fill="#3f3d56"/>
    <ellipse id="Ellipse_5" data-name="Ellipse 5" cx="55.325" cy="9.339" rx="55.325" ry="9.339" transform="translate(56.395 178.398)" opacity="0.1"/>
    <path id="Path_15" data-name="Path 15" d="M398.319,216.8c.025,51.853-30.792,69.971-68.815,69.989q-1.325,0-2.637-.028-2.643-.056-5.232-.238c-34.318-2.413-60.991-21.433-61.015-69.656C260.6,166.965,324.349,103.955,329.13,99.3c0,0,0,0,.008,0,.182-.178.275-.266.275-.266S398.294,164.954,398.319,216.8Z" transform="translate(-214.601 -99.025)" fill="#6c63ff"/>
    <path id="Path_16" data-name="Path 16" d="M356.26,278.863l25.164-35.2L356.2,282.725l-.066,4.04q-2.643-.056-5.232-.238l2.688-51.876-.021-.4.046-.076.255-4.9-25.327-39.13,25.4,35.458.064,1.039,2.03-39.194-21.685-40.438,21.948,33.55L358.4,99.3l.008-.27v.266l-.324,64.083,21.551-25.416L357.99,168.893l-.553,35.095L377.564,170.3l-20.205,38.848-.307,19.514,29.211-46.894-29.322,53.7Z" transform="translate(-243.867 -99.025)" fill="#3f3d56"/>
    <circle id="Ellipse_6" data-name="Ellipse 6" cx="38.1" cy="38.1" r="38.1" transform="translate(366.706 83.904)" fill="#2f2e41"/>
    <path id="Path_17" data-name="Path 17" d="M895.007,639.282c-11.417,32.065-32.941,59.736-32.941,59.736H809.358l7.069-14.507,3.54-7.262,5.116-10.5,2.516-5.162,6.8-13.955-10.148,13.534L819.864,667l-8.309,11.087-6.932,9.243a476.334,476.334,0,0,1-67.51,9.681c-.086-2.675.341-7.934,3.739-15.247a66.583,66.583,0,0,1,6.471-10.882,99.333,99.333,0,0,1,7.569-9.2c1.5-1.628,3.085-3.29,4.718-4.968,21.263-21.86,51.945-46.857,51.945-46.857l-8.782-34.7,63.208-10.734a5.7,5.7,0,0,1,6.642,5.2c.341,4.581,1.548,10.472,5.259,13.443C884.466,588.333,906.429,607.222,895.007,639.282Z" transform="translate(-419.903 -299.516)" fill="#2f2e41"/>
    <path id="Path_18" data-name="Path 18" d="M711.011,746.158a1.184,1.184,0,0,1-.051.341c-.888,3.386-14.6,9.47-36.794,15.207-3.705.951-7.649,1.9-11.8,2.823a476.329,476.329,0,0,1-67.51,9.681c-11.508.837-23.522,1.315-35.884,1.315-82.7,0-149.977-21.382-151.986-29.026a1.185,1.185,0,0,1-.051-.341.932.932,0,0,1,.023-.216.493.493,0,0,1,.034-.131c2.2-6.642,69.4,3.193,151.981,3.193,16.067,0,31.558-.37,46.094-.922,28.872-1.1,54.011-2.9,72.541-3.881,1.8-.091,3.546-.182,5.219-.256,17-.8,27.3-.666,28.132,1.867a.49.49,0,0,1,.034.131A.933.933,0,0,1,711.011,746.158Z" transform="translate(-277.641 -376.713)" fill="#3f3d56"/>
    <path id="Path_19" data-name="Path 19" d="M711.011,746.158a1.184,1.184,0,0,1-.051.341c-.888,3.386-14.6,9.47-36.794,15.207-3.705.951-7.649,1.9-11.8,2.823a476.329,476.329,0,0,1-67.51,9.681c-11.508.837-23.522,1.315-35.884,1.315-82.7,0-149.977-21.382-151.986-29.026a1.185,1.185,0,0,1-.051-.341.932.932,0,0,1,.023-.216.493.493,0,0,1,.034-.131c2.2-6.642,69.4,3.193,151.981,3.193,16.067,0,31.558-.37,46.094-.922,28.872-1.1,54.011-2.9,72.541-3.881,1.8-.091,3.546-.182,5.219-.256,17-.8,27.3-.666,28.132,1.867a.49.49,0,0,1,.034.131A.933.933,0,0,1,711.011,746.158Z" transform="translate(-277.641 -376.713)" opacity="0.1"/>
    <ellipse id="Ellipse_7" data-name="Ellipse 7" cx="152.042" cy="13.262" rx="152.042" ry="13.262" transform="translate(129.288 356.185)" fill="#3f3d56"/>
    <ellipse id="Ellipse_8" data-name="Ellipse 8" cx="25.611" cy="5.691" rx="25.611" ry="5.691" transform="translate(345.735 365.593)" opacity="0.1"/>
    <ellipse id="Ellipse_9" data-name="Ellipse 9" cx="13.659" cy="2.277" rx="13.659" ry="2.277" transform="translate(357.687 366.731)" fill="#6c63ff"/>
    <path id="Path_20" data-name="Path 20" d="M837.6,703.1s-28.132,21.883-18.03,24.079,26.354-21.961,26.354-21.961Z" transform="translate(-454.493 -359.303)" fill="#a0616a"/>
    <circle id="Ellipse_10" data-name="Ellipse 10" cx="25.036" cy="25.036" r="25.036" transform="translate(372.985 110.929)" fill="#a0616a"/>
    <path id="Path_21" data-name="Path 21" d="M863.482,366.976s8.785,22.4,1.757,26.354-10.541,4.392-10.541,4.392l-7.467,12.738-4.392,13.177,35.138,1.318,24.6-39.091s-11.859-6.149-18.008-32.5Z" transform="translate(-465.461 -208.61)" fill="#a0616a"/>
    <path id="Path_22" data-name="Path 22" d="M903.194,410.018s-4.468-2.935-8.6-1.907a31.961,31.961,0,0,0-5.892,1.907s-22.84,31.185-35.138,32.064c0,0-16.251,4.392-12.3-2.2s12.615-20.456,12.615-20.456-15.689,3.765-15.689,9.036-3.075,14.934-3.075,14.934-14.934,14.934,0,32.5,9.224,33.381,9.224,33.381l65.884-11.859Z" transform="translate(-459.273 -232.106)" fill="#d0cde1"/>
    <path id="Path_23" data-name="Path 23" d="M834.829,508.868l-3.953,60.614,3.953,56.221s16.252,3.514,20.2,0-8.345-94.434-8.345-94.434Z" transform="translate(-460.307 -275.614)" fill="#d0cde1"/>
    <circle id="Ellipse_11" data-name="Ellipse 11" cx="15.766" cy="15.766" r="15.766" transform="translate(404.827 71.593)" fill="#2f2e41"/>
    <path id="Path_24" data-name="Path 24" d="M879.348,225.578a15.767,15.767,0,0,1,14.122-15.68,15.936,15.936,0,0,0-1.641-.085,15.766,15.766,0,1,0,0,31.531,15.929,15.929,0,0,0,1.642-.085,15.767,15.767,0,0,1-14.123-15.68Z" transform="translate(-479.777 -146.76)" fill="#2f2e41"/>
    <ellipse id="Ellipse_12" data-name="Ellipse 12" cx="15.766" cy="26.276" rx="15.766" ry="26.276" transform="matrix(0.257, -0.966, 0.966, 0.257, 371.185, 130.362)" fill="#2f2e41"/>
    <path id="Path_25" data-name="Path 25" d="M859.211,709.276s-28.132,21.883-18.03,24.079,26.354-21.961,26.354-21.961Z" transform="translate(-463.804 -361.963)" fill="#a0616a"/>
    <path id="Path_26" data-name="Path 26" d="M907.406,413.456s12.3-10.542,18.008,3.953-3.075,86.089-3.075,86.089l-42.166,85.21s-20.2.879-15.812-13.616,34.04-82.795,35.8-84.552S907.406,413.456,907.406,413.456Z" transform="translate(-474.465 -232.908)" fill="#d0cde1"/>
    <path id="Path_27" data-name="Path 27" d="M842.459,530.232s9.693,20.553,8.908,26.049S842.459,530.232,842.459,530.232Z" transform="translate(-465.297 -284.819)" opacity="0.1"/>
    <ellipse id="Ellipse_13" data-name="Ellipse 13" cx="2.196" cy="4.392" rx="2.196" ry="4.392" transform="translate(422.618 130.255)" fill="#a0616a"/>
    <ellipse id="Ellipse_14" data-name="Ellipse 14" cx="25.611" cy="5.691" rx="25.611" ry="5.691" transform="translate(188.086 365.593)" opacity="0.1"/>
    <circle id="Ellipse_15" data-name="Ellipse 15" cx="13.659" cy="13.659" r="13.659" transform="translate(200.037 343.966)" fill="#6c63ff"/>
    <ellipse id="Ellipse_16" data-name="Ellipse 16" cx="25.611" cy="5.691" rx="25.611" ry="5.691" transform="translate(260.934 365.593)" opacity="0.1"/>
    <circle id="Ellipse_17" data-name="Ellipse 17" cx="13.659" cy="13.659" r="13.659" transform="translate(272.886 343.966)" fill="#6c63ff"/>
    <rect id="Rectangle_5" data-name="Rectangle 5" width="3.415" height="17.074" transform="translate(211.853 348.863)" fill="#d0cde1"/>
    <rect id="Rectangle_6" data-name="Rectangle 6" width="3.415" height="17.074" transform="translate(281.856 348.863)" fill="#d0cde1"/>
    <rect id="Rectangle_7" data-name="Rectangle 7" width="3.415" height="17.074" transform="translate(286.978 348.863)" fill="#d0cde1"/>
  </g>
</svg>
