<svg xmlns="http://www.w3.org/2000/svg" width="122" height="90" viewBox="0 0 122 90">
  <g id="Group_97" data-name="Group 97" transform="translate(-405 -319)" opacity="0.3">
    <circle id="Ellipse_4694" data-name="Ellipse 4694" cx="1" cy="1" r="1" transform="translate(405 319)" fill="#ffe2eb"/>
    <circle id="Ellipse_4695" data-name="Ellipse 4695" cx="1" cy="1" r="1" transform="translate(413 319)" fill="#ffe2eb"/>
    <circle id="Ellipse_4696" data-name="Ellipse 4696" cx="1" cy="1" r="1" transform="translate(421 319)" fill="#ffe2eb"/>
    <circle id="Ellipse_4697" data-name="Ellipse 4697" cx="1" cy="1" r="1" transform="translate(429 319)" fill="#ffe2eb"/>
    <circle id="Ellipse_4698" data-name="Ellipse 4698" cx="1" cy="1" r="1" transform="translate(437 319)" fill="#ffe2eb"/>
    <circle id="Ellipse_4699" data-name="Ellipse 4699" cx="1" cy="1" r="1" transform="translate(445 319)" fill="#ffe2eb"/>
    <circle id="Ellipse_4700" data-name="Ellipse 4700" cx="1" cy="1" r="1" transform="translate(453 319)" fill="#ffe2eb"/>
    <circle id="Ellipse_4701" data-name="Ellipse 4701" cx="1" cy="1" r="1" transform="translate(461 319)" fill="#ffe2eb"/>
    <circle id="Ellipse_4702" data-name="Ellipse 4702" cx="1" cy="1" r="1" transform="translate(469 319)" fill="#ffe2eb"/>
    <circle id="Ellipse_4703" data-name="Ellipse 4703" cx="1" cy="1" r="1" transform="translate(477 319)" fill="#ffe2eb"/>
    <circle id="Ellipse_4704" data-name="Ellipse 4704" cx="1" cy="1" r="1" transform="translate(485 319)" fill="#ffe2eb"/>
    <circle id="Ellipse_4705" data-name="Ellipse 4705" cx="1" cy="1" r="1" transform="translate(493 319)" fill="#ffe2eb"/>
    <circle id="Ellipse_4706" data-name="Ellipse 4706" cx="1" cy="1" r="1" transform="translate(501 319)" fill="#ffe2eb"/>
    <circle id="Ellipse_4707" data-name="Ellipse 4707" cx="1" cy="1" r="1" transform="translate(509 319)" fill="#ffe2eb"/>
    <circle id="Ellipse_4708" data-name="Ellipse 4708" cx="1" cy="1" r="1" transform="translate(517 319)" fill="#ffe2eb"/>
    <circle id="Ellipse_4709" data-name="Ellipse 4709" cx="1" cy="1" r="1" transform="translate(525 319)" fill="#ffe2eb"/>
    <circle id="Ellipse_4710" data-name="Ellipse 4710" cx="1" cy="1" r="1" transform="translate(405 327)" fill="#ffe2eb"/>
    <circle id="Ellipse_4711" data-name="Ellipse 4711" cx="1" cy="1" r="1" transform="translate(413 327)" fill="#ffe2eb"/>
    <circle id="Ellipse_4712" data-name="Ellipse 4712" cx="1" cy="1" r="1" transform="translate(421 327)" fill="#ffe2eb"/>
    <circle id="Ellipse_4713" data-name="Ellipse 4713" cx="1" cy="1" r="1" transform="translate(429 327)" fill="#ffe2eb"/>
    <circle id="Ellipse_4714" data-name="Ellipse 4714" cx="1" cy="1" r="1" transform="translate(437 327)" fill="#ffe2eb"/>
    <circle id="Ellipse_4715" data-name="Ellipse 4715" cx="1" cy="1" r="1" transform="translate(445 327)" fill="#ffe2eb"/>
    <circle id="Ellipse_4716" data-name="Ellipse 4716" cx="1" cy="1" r="1" transform="translate(453 327)" fill="#ffe2eb"/>
    <circle id="Ellipse_4717" data-name="Ellipse 4717" cx="1" cy="1" r="1" transform="translate(461 327)" fill="#ffe2eb"/>
    <circle id="Ellipse_4718" data-name="Ellipse 4718" cx="1" cy="1" r="1" transform="translate(469 327)" fill="#ffe2eb"/>
    <circle id="Ellipse_4719" data-name="Ellipse 4719" cx="1" cy="1" r="1" transform="translate(477 327)" fill="#ffe2eb"/>
    <circle id="Ellipse_4720" data-name="Ellipse 4720" cx="1" cy="1" r="1" transform="translate(485 327)" fill="#ffe2eb"/>
    <circle id="Ellipse_4721" data-name="Ellipse 4721" cx="1" cy="1" r="1" transform="translate(493 327)" fill="#ffe2eb"/>
    <circle id="Ellipse_4722" data-name="Ellipse 4722" cx="1" cy="1" r="1" transform="translate(501 327)" fill="#ffe2eb"/>
    <circle id="Ellipse_4723" data-name="Ellipse 4723" cx="1" cy="1" r="1" transform="translate(509 327)" fill="#ffe2eb"/>
    <circle id="Ellipse_4724" data-name="Ellipse 4724" cx="1" cy="1" r="1" transform="translate(517 327)" fill="#ffe2eb"/>
    <circle id="Ellipse_4725" data-name="Ellipse 4725" cx="1" cy="1" r="1" transform="translate(525 327)" fill="#ffe2eb"/>
    <circle id="Ellipse_4726" data-name="Ellipse 4726" cx="1" cy="1" r="1" transform="translate(405 335)" fill="#ffe2eb"/>
    <circle id="Ellipse_4727" data-name="Ellipse 4727" cx="1" cy="1" r="1" transform="translate(413 335)" fill="#ffe2eb"/>
    <circle id="Ellipse_4728" data-name="Ellipse 4728" cx="1" cy="1" r="1" transform="translate(421 335)" fill="#ffe2eb"/>
    <circle id="Ellipse_4729" data-name="Ellipse 4729" cx="1" cy="1" r="1" transform="translate(429 335)" fill="#ffe2eb"/>
    <circle id="Ellipse_4730" data-name="Ellipse 4730" cx="1" cy="1" r="1" transform="translate(437 335)" fill="#ffe2eb"/>
    <circle id="Ellipse_4731" data-name="Ellipse 4731" cx="1" cy="1" r="1" transform="translate(445 335)" fill="#ffe2eb"/>
    <circle id="Ellipse_4732" data-name="Ellipse 4732" cx="1" cy="1" r="1" transform="translate(453 335)" fill="#ffe2eb"/>
    <circle id="Ellipse_4733" data-name="Ellipse 4733" cx="1" cy="1" r="1" transform="translate(461 335)" fill="#ffe2eb"/>
    <circle id="Ellipse_4734" data-name="Ellipse 4734" cx="1" cy="1" r="1" transform="translate(469 335)" fill="#ffe2eb"/>
    <circle id="Ellipse_4735" data-name="Ellipse 4735" cx="1" cy="1" r="1" transform="translate(477 335)" fill="#ffe2eb"/>
    <circle id="Ellipse_4736" data-name="Ellipse 4736" cx="1" cy="1" r="1" transform="translate(485 335)" fill="#ffe2eb"/>
    <circle id="Ellipse_4737" data-name="Ellipse 4737" cx="1" cy="1" r="1" transform="translate(493 335)" fill="#ffe2eb"/>
    <circle id="Ellipse_4738" data-name="Ellipse 4738" cx="1" cy="1" r="1" transform="translate(501 335)" fill="#ffe2eb"/>
    <circle id="Ellipse_4739" data-name="Ellipse 4739" cx="1" cy="1" r="1" transform="translate(509 335)" fill="#ffe2eb"/>
    <circle id="Ellipse_4740" data-name="Ellipse 4740" cx="1" cy="1" r="1" transform="translate(517 335)" fill="#ffe2eb"/>
    <circle id="Ellipse_4741" data-name="Ellipse 4741" cx="1" cy="1" r="1" transform="translate(525 335)" fill="#ffe2eb"/>
    <circle id="Ellipse_4742" data-name="Ellipse 4742" cx="1" cy="1" r="1" transform="translate(405 343)" fill="#ffe2eb"/>
    <circle id="Ellipse_4743" data-name="Ellipse 4743" cx="1" cy="1" r="1" transform="translate(413 343)" fill="#ffe2eb"/>
    <circle id="Ellipse_4744" data-name="Ellipse 4744" cx="1" cy="1" r="1" transform="translate(421 343)" fill="#ffe2eb"/>
    <circle id="Ellipse_4745" data-name="Ellipse 4745" cx="1" cy="1" r="1" transform="translate(429 343)" fill="#ffe2eb"/>
    <circle id="Ellipse_4746" data-name="Ellipse 4746" cx="1" cy="1" r="1" transform="translate(437 343)" fill="#ffe2eb"/>
    <circle id="Ellipse_4747" data-name="Ellipse 4747" cx="1" cy="1" r="1" transform="translate(445 343)" fill="#ffe2eb"/>
    <circle id="Ellipse_4748" data-name="Ellipse 4748" cx="1" cy="1" r="1" transform="translate(453 343)" fill="#ffe2eb"/>
    <circle id="Ellipse_4749" data-name="Ellipse 4749" cx="1" cy="1" r="1" transform="translate(461 343)" fill="#ffe2eb"/>
    <circle id="Ellipse_4750" data-name="Ellipse 4750" cx="1" cy="1" r="1" transform="translate(469 343)" fill="#ffe2eb"/>
    <circle id="Ellipse_4751" data-name="Ellipse 4751" cx="1" cy="1" r="1" transform="translate(477 343)" fill="#ffe2eb"/>
    <circle id="Ellipse_4752" data-name="Ellipse 4752" cx="1" cy="1" r="1" transform="translate(485 343)" fill="#ffe2eb"/>
    <circle id="Ellipse_4753" data-name="Ellipse 4753" cx="1" cy="1" r="1" transform="translate(493 343)" fill="#ffe2eb"/>
    <circle id="Ellipse_4754" data-name="Ellipse 4754" cx="1" cy="1" r="1" transform="translate(501 343)" fill="#ffe2eb"/>
    <circle id="Ellipse_4755" data-name="Ellipse 4755" cx="1" cy="1" r="1" transform="translate(509 343)" fill="#ffe2eb"/>
    <circle id="Ellipse_4756" data-name="Ellipse 4756" cx="1" cy="1" r="1" transform="translate(517 343)" fill="#ffe2eb"/>
    <circle id="Ellipse_4757" data-name="Ellipse 4757" cx="1" cy="1" r="1" transform="translate(525 343)" fill="#ffe2eb"/>
    <circle id="Ellipse_4758" data-name="Ellipse 4758" cx="1" cy="1" r="1" transform="translate(405 351)" fill="#ffe2eb"/>
    <circle id="Ellipse_4759" data-name="Ellipse 4759" cx="1" cy="1" r="1" transform="translate(413 351)" fill="#ffe2eb"/>
    <circle id="Ellipse_4760" data-name="Ellipse 4760" cx="1" cy="1" r="1" transform="translate(421 351)" fill="#ffe2eb"/>
    <circle id="Ellipse_4761" data-name="Ellipse 4761" cx="1" cy="1" r="1" transform="translate(429 351)" fill="#ffe2eb"/>
    <circle id="Ellipse_4762" data-name="Ellipse 4762" cx="1" cy="1" r="1" transform="translate(437 351)" fill="#ffe2eb"/>
    <circle id="Ellipse_4763" data-name="Ellipse 4763" cx="1" cy="1" r="1" transform="translate(445 351)" fill="#ffe2eb"/>
    <circle id="Ellipse_4764" data-name="Ellipse 4764" cx="1" cy="1" r="1" transform="translate(453 351)" fill="#ffe2eb"/>
    <circle id="Ellipse_4765" data-name="Ellipse 4765" cx="1" cy="1" r="1" transform="translate(461 351)" fill="#ffe2eb"/>
    <circle id="Ellipse_4766" data-name="Ellipse 4766" cx="1" cy="1" r="1" transform="translate(469 351)" fill="#ffe2eb"/>
    <circle id="Ellipse_4767" data-name="Ellipse 4767" cx="1" cy="1" r="1" transform="translate(477 351)" fill="#ffe2eb"/>
    <circle id="Ellipse_4768" data-name="Ellipse 4768" cx="1" cy="1" r="1" transform="translate(485 351)" fill="#ffe2eb"/>
    <circle id="Ellipse_4769" data-name="Ellipse 4769" cx="1" cy="1" r="1" transform="translate(493 351)" fill="#ffe2eb"/>
    <circle id="Ellipse_4770" data-name="Ellipse 4770" cx="1" cy="1" r="1" transform="translate(501 351)" fill="#ffe2eb"/>
    <circle id="Ellipse_4771" data-name="Ellipse 4771" cx="1" cy="1" r="1" transform="translate(509 351)" fill="#ffe2eb"/>
    <circle id="Ellipse_4772" data-name="Ellipse 4772" cx="1" cy="1" r="1" transform="translate(517 351)" fill="#ffe2eb"/>
    <circle id="Ellipse_4773" data-name="Ellipse 4773" cx="1" cy="1" r="1" transform="translate(525 351)" fill="#ffe2eb"/>
    <circle id="Ellipse_4774" data-name="Ellipse 4774" cx="1" cy="1" r="1" transform="translate(405 359)" fill="#ffe2eb"/>
    <circle id="Ellipse_4775" data-name="Ellipse 4775" cx="1" cy="1" r="1" transform="translate(413 359)" fill="#ffe2eb"/>
    <circle id="Ellipse_4776" data-name="Ellipse 4776" cx="1" cy="1" r="1" transform="translate(421 359)" fill="#ffe2eb"/>
    <circle id="Ellipse_4777" data-name="Ellipse 4777" cx="1" cy="1" r="1" transform="translate(429 359)" fill="#ffe2eb"/>
    <circle id="Ellipse_4778" data-name="Ellipse 4778" cx="1" cy="1" r="1" transform="translate(437 359)" fill="#ffe2eb"/>
    <circle id="Ellipse_4779" data-name="Ellipse 4779" cx="1" cy="1" r="1" transform="translate(445 359)" fill="#ffe2eb"/>
    <circle id="Ellipse_4780" data-name="Ellipse 4780" cx="1" cy="1" r="1" transform="translate(453 359)" fill="#ffe2eb"/>
    <circle id="Ellipse_4781" data-name="Ellipse 4781" cx="1" cy="1" r="1" transform="translate(461 359)" fill="#ffe2eb"/>
    <circle id="Ellipse_4782" data-name="Ellipse 4782" cx="1" cy="1" r="1" transform="translate(469 359)" fill="#ffe2eb"/>
    <circle id="Ellipse_4783" data-name="Ellipse 4783" cx="1" cy="1" r="1" transform="translate(477 359)" fill="#ffe2eb"/>
    <circle id="Ellipse_4784" data-name="Ellipse 4784" cx="1" cy="1" r="1" transform="translate(485 359)" fill="#ffe2eb"/>
    <circle id="Ellipse_4785" data-name="Ellipse 4785" cx="1" cy="1" r="1" transform="translate(493 359)" fill="#ffe2eb"/>
    <circle id="Ellipse_4786" data-name="Ellipse 4786" cx="1" cy="1" r="1" transform="translate(501 359)" fill="#ffe2eb"/>
    <circle id="Ellipse_4787" data-name="Ellipse 4787" cx="1" cy="1" r="1" transform="translate(509 359)" fill="#ffe2eb"/>
    <circle id="Ellipse_4788" data-name="Ellipse 4788" cx="1" cy="1" r="1" transform="translate(517 359)" fill="#ffe2eb"/>
    <circle id="Ellipse_4789" data-name="Ellipse 4789" cx="1" cy="1" r="1" transform="translate(525 359)" fill="#ffe2eb"/>
    <circle id="Ellipse_4790" data-name="Ellipse 4790" cx="1" cy="1" r="1" transform="translate(405 367)" fill="#ffe2eb"/>
    <circle id="Ellipse_4791" data-name="Ellipse 4791" cx="1" cy="1" r="1" transform="translate(413 367)" fill="#ffe2eb"/>
    <circle id="Ellipse_4792" data-name="Ellipse 4792" cx="1" cy="1" r="1" transform="translate(421 367)" fill="#ffe2eb"/>
    <circle id="Ellipse_4793" data-name="Ellipse 4793" cx="1" cy="1" r="1" transform="translate(429 367)" fill="#ffe2eb"/>
    <circle id="Ellipse_4794" data-name="Ellipse 4794" cx="1" cy="1" r="1" transform="translate(437 367)" fill="#ffe2eb"/>
    <circle id="Ellipse_4795" data-name="Ellipse 4795" cx="1" cy="1" r="1" transform="translate(445 367)" fill="#ffe2eb"/>
    <circle id="Ellipse_4796" data-name="Ellipse 4796" cx="1" cy="1" r="1" transform="translate(453 367)" fill="#ffe2eb"/>
    <circle id="Ellipse_4797" data-name="Ellipse 4797" cx="1" cy="1" r="1" transform="translate(461 367)" fill="#ffe2eb"/>
    <circle id="Ellipse_4798" data-name="Ellipse 4798" cx="1" cy="1" r="1" transform="translate(469 367)" fill="#ffe2eb"/>
    <circle id="Ellipse_4799" data-name="Ellipse 4799" cx="1" cy="1" r="1" transform="translate(477 367)" fill="#ffe2eb"/>
    <circle id="Ellipse_4800" data-name="Ellipse 4800" cx="1" cy="1" r="1" transform="translate(485 367)" fill="#ffe2eb"/>
    <circle id="Ellipse_4801" data-name="Ellipse 4801" cx="1" cy="1" r="1" transform="translate(493 367)" fill="#ffe2eb"/>
    <circle id="Ellipse_4802" data-name="Ellipse 4802" cx="1" cy="1" r="1" transform="translate(501 367)" fill="#ffe2eb"/>
    <circle id="Ellipse_4803" data-name="Ellipse 4803" cx="1" cy="1" r="1" transform="translate(509 367)" fill="#ffe2eb"/>
    <circle id="Ellipse_4804" data-name="Ellipse 4804" cx="1" cy="1" r="1" transform="translate(517 367)" fill="#ffe2eb"/>
    <circle id="Ellipse_4805" data-name="Ellipse 4805" cx="1" cy="1" r="1" transform="translate(525 367)" fill="#ffe2eb"/>
    <circle id="Ellipse_4806" data-name="Ellipse 4806" cx="1" cy="1" r="1" transform="translate(405 375)" fill="#ffe2eb"/>
    <circle id="Ellipse_4807" data-name="Ellipse 4807" cx="1" cy="1" r="1" transform="translate(413 375)" fill="#ffe2eb"/>
    <circle id="Ellipse_4808" data-name="Ellipse 4808" cx="1" cy="1" r="1" transform="translate(421 375)" fill="#ffe2eb"/>
    <circle id="Ellipse_4809" data-name="Ellipse 4809" cx="1" cy="1" r="1" transform="translate(429 375)" fill="#ffe2eb"/>
    <circle id="Ellipse_4810" data-name="Ellipse 4810" cx="1" cy="1" r="1" transform="translate(437 375)" fill="#ffe2eb"/>
    <circle id="Ellipse_4811" data-name="Ellipse 4811" cx="1" cy="1" r="1" transform="translate(445 375)" fill="#ffe2eb"/>
    <circle id="Ellipse_4812" data-name="Ellipse 4812" cx="1" cy="1" r="1" transform="translate(453 375)" fill="#ffe2eb"/>
    <circle id="Ellipse_4813" data-name="Ellipse 4813" cx="1" cy="1" r="1" transform="translate(461 375)" fill="#ffe2eb"/>
    <circle id="Ellipse_4814" data-name="Ellipse 4814" cx="1" cy="1" r="1" transform="translate(469 375)" fill="#ffe2eb"/>
    <circle id="Ellipse_4815" data-name="Ellipse 4815" cx="1" cy="1" r="1" transform="translate(477 375)" fill="#ffe2eb"/>
    <circle id="Ellipse_4816" data-name="Ellipse 4816" cx="1" cy="1" r="1" transform="translate(485 375)" fill="#ffe2eb"/>
    <circle id="Ellipse_4817" data-name="Ellipse 4817" cx="1" cy="1" r="1" transform="translate(493 375)" fill="#ffe2eb"/>
    <circle id="Ellipse_4818" data-name="Ellipse 4818" cx="1" cy="1" r="1" transform="translate(501 375)" fill="#ffe2eb"/>
    <circle id="Ellipse_4819" data-name="Ellipse 4819" cx="1" cy="1" r="1" transform="translate(509 375)" fill="#ffe2eb"/>
    <circle id="Ellipse_4820" data-name="Ellipse 4820" cx="1" cy="1" r="1" transform="translate(517 375)" fill="#ffe2eb"/>
    <circle id="Ellipse_4821" data-name="Ellipse 4821" cx="1" cy="1" r="1" transform="translate(525 375)" fill="#ffe2eb"/>
    <circle id="Ellipse_4822" data-name="Ellipse 4822" cx="1" cy="1" r="1" transform="translate(405 383)" fill="#ffe2eb"/>
    <circle id="Ellipse_4823" data-name="Ellipse 4823" cx="1" cy="1" r="1" transform="translate(413 383)" fill="#ffe2eb"/>
    <circle id="Ellipse_4824" data-name="Ellipse 4824" cx="1" cy="1" r="1" transform="translate(421 383)" fill="#ffe2eb"/>
    <circle id="Ellipse_4825" data-name="Ellipse 4825" cx="1" cy="1" r="1" transform="translate(429 383)" fill="#ffe2eb"/>
    <circle id="Ellipse_4826" data-name="Ellipse 4826" cx="1" cy="1" r="1" transform="translate(437 383)" fill="#ffe2eb"/>
    <circle id="Ellipse_4827" data-name="Ellipse 4827" cx="1" cy="1" r="1" transform="translate(445 383)" fill="#ffe2eb"/>
    <circle id="Ellipse_4828" data-name="Ellipse 4828" cx="1" cy="1" r="1" transform="translate(453 383)" fill="#ffe2eb"/>
    <circle id="Ellipse_4829" data-name="Ellipse 4829" cx="1" cy="1" r="1" transform="translate(461 383)" fill="#ffe2eb"/>
    <circle id="Ellipse_4830" data-name="Ellipse 4830" cx="1" cy="1" r="1" transform="translate(469 383)" fill="#ffe2eb"/>
    <circle id="Ellipse_4831" data-name="Ellipse 4831" cx="1" cy="1" r="1" transform="translate(477 383)" fill="#ffe2eb"/>
    <circle id="Ellipse_4832" data-name="Ellipse 4832" cx="1" cy="1" r="1" transform="translate(485 383)" fill="#ffe2eb"/>
    <circle id="Ellipse_4833" data-name="Ellipse 4833" cx="1" cy="1" r="1" transform="translate(493 383)" fill="#ffe2eb"/>
    <circle id="Ellipse_4834" data-name="Ellipse 4834" cx="1" cy="1" r="1" transform="translate(501 383)" fill="#ffe2eb"/>
    <circle id="Ellipse_4835" data-name="Ellipse 4835" cx="1" cy="1" r="1" transform="translate(509 383)" fill="#ffe2eb"/>
    <circle id="Ellipse_4836" data-name="Ellipse 4836" cx="1" cy="1" r="1" transform="translate(517 383)" fill="#ffe2eb"/>
    <circle id="Ellipse_4837" data-name="Ellipse 4837" cx="1" cy="1" r="1" transform="translate(525 383)" fill="#ffe2eb"/>
    <circle id="Ellipse_4838" data-name="Ellipse 4838" cx="1" cy="1" r="1" transform="translate(405 391)" fill="#ffe2eb"/>
    <circle id="Ellipse_4839" data-name="Ellipse 4839" cx="1" cy="1" r="1" transform="translate(413 391)" fill="#ffe2eb"/>
    <circle id="Ellipse_4840" data-name="Ellipse 4840" cx="1" cy="1" r="1" transform="translate(421 391)" fill="#ffe2eb"/>
    <circle id="Ellipse_4841" data-name="Ellipse 4841" cx="1" cy="1" r="1" transform="translate(429 391)" fill="#ffe2eb"/>
    <circle id="Ellipse_4842" data-name="Ellipse 4842" cx="1" cy="1" r="1" transform="translate(437 391)" fill="#ffe2eb"/>
    <circle id="Ellipse_4843" data-name="Ellipse 4843" cx="1" cy="1" r="1" transform="translate(445 391)" fill="#ffe2eb"/>
    <circle id="Ellipse_4844" data-name="Ellipse 4844" cx="1" cy="1" r="1" transform="translate(453 391)" fill="#ffe2eb"/>
    <circle id="Ellipse_4845" data-name="Ellipse 4845" cx="1" cy="1" r="1" transform="translate(461 391)" fill="#ffe2eb"/>
    <circle id="Ellipse_4846" data-name="Ellipse 4846" cx="1" cy="1" r="1" transform="translate(469 391)" fill="#ffe2eb"/>
    <circle id="Ellipse_4847" data-name="Ellipse 4847" cx="1" cy="1" r="1" transform="translate(477 391)" fill="#ffe2eb"/>
    <circle id="Ellipse_4848" data-name="Ellipse 4848" cx="1" cy="1" r="1" transform="translate(485 391)" fill="#ffe2eb"/>
    <circle id="Ellipse_4849" data-name="Ellipse 4849" cx="1" cy="1" r="1" transform="translate(493 391)" fill="#ffe2eb"/>
    <circle id="Ellipse_4850" data-name="Ellipse 4850" cx="1" cy="1" r="1" transform="translate(501 391)" fill="#ffe2eb"/>
    <circle id="Ellipse_4851" data-name="Ellipse 4851" cx="1" cy="1" r="1" transform="translate(509 391)" fill="#ffe2eb"/>
    <circle id="Ellipse_4852" data-name="Ellipse 4852" cx="1" cy="1" r="1" transform="translate(517 391)" fill="#ffe2eb"/>
    <circle id="Ellipse_4853" data-name="Ellipse 4853" cx="1" cy="1" r="1" transform="translate(525 391)" fill="#ffe2eb"/>
    <circle id="Ellipse_4854" data-name="Ellipse 4854" cx="1" cy="1" r="1" transform="translate(405 399)" fill="#ffe2eb"/>
    <circle id="Ellipse_4855" data-name="Ellipse 4855" cx="1" cy="1" r="1" transform="translate(413 399)" fill="#ffe2eb"/>
    <circle id="Ellipse_4856" data-name="Ellipse 4856" cx="1" cy="1" r="1" transform="translate(421 399)" fill="#ffe2eb"/>
    <circle id="Ellipse_4857" data-name="Ellipse 4857" cx="1" cy="1" r="1" transform="translate(429 399)" fill="#ffe2eb"/>
    <circle id="Ellipse_4858" data-name="Ellipse 4858" cx="1" cy="1" r="1" transform="translate(437 399)" fill="#ffe2eb"/>
    <circle id="Ellipse_4859" data-name="Ellipse 4859" cx="1" cy="1" r="1" transform="translate(445 399)" fill="#ffe2eb"/>
    <circle id="Ellipse_4860" data-name="Ellipse 4860" cx="1" cy="1" r="1" transform="translate(453 399)" fill="#ffe2eb"/>
    <circle id="Ellipse_4861" data-name="Ellipse 4861" cx="1" cy="1" r="1" transform="translate(461 399)" fill="#ffe2eb"/>
    <circle id="Ellipse_4862" data-name="Ellipse 4862" cx="1" cy="1" r="1" transform="translate(469 399)" fill="#ffe2eb"/>
    <circle id="Ellipse_4863" data-name="Ellipse 4863" cx="1" cy="1" r="1" transform="translate(477 399)" fill="#ffe2eb"/>
    <circle id="Ellipse_4864" data-name="Ellipse 4864" cx="1" cy="1" r="1" transform="translate(485 399)" fill="#ffe2eb"/>
    <circle id="Ellipse_4865" data-name="Ellipse 4865" cx="1" cy="1" r="1" transform="translate(493 399)" fill="#ffe2eb"/>
    <circle id="Ellipse_4866" data-name="Ellipse 4866" cx="1" cy="1" r="1" transform="translate(501 399)" fill="#ffe2eb"/>
    <circle id="Ellipse_4867" data-name="Ellipse 4867" cx="1" cy="1" r="1" transform="translate(509 399)" fill="#ffe2eb"/>
    <circle id="Ellipse_4868" data-name="Ellipse 4868" cx="1" cy="1" r="1" transform="translate(517 399)" fill="#ffe2eb"/>
    <circle id="Ellipse_4869" data-name="Ellipse 4869" cx="1" cy="1" r="1" transform="translate(525 399)" fill="#ffe2eb"/>
    <circle id="Ellipse_4870" data-name="Ellipse 4870" cx="1" cy="1" r="1" transform="translate(405 407)" fill="#ffe2eb"/>
    <circle id="Ellipse_4871" data-name="Ellipse 4871" cx="1" cy="1" r="1" transform="translate(413 407)" fill="#ffe2eb"/>
    <circle id="Ellipse_4872" data-name="Ellipse 4872" cx="1" cy="1" r="1" transform="translate(421 407)" fill="#ffe2eb"/>
    <circle id="Ellipse_4873" data-name="Ellipse 4873" cx="1" cy="1" r="1" transform="translate(429 407)" fill="#ffe2eb"/>
    <circle id="Ellipse_4874" data-name="Ellipse 4874" cx="1" cy="1" r="1" transform="translate(437 407)" fill="#ffe2eb"/>
    <circle id="Ellipse_4875" data-name="Ellipse 4875" cx="1" cy="1" r="1" transform="translate(445 407)" fill="#ffe2eb"/>
    <circle id="Ellipse_4876" data-name="Ellipse 4876" cx="1" cy="1" r="1" transform="translate(453 407)" fill="#ffe2eb"/>
    <circle id="Ellipse_4877" data-name="Ellipse 4877" cx="1" cy="1" r="1" transform="translate(461 407)" fill="#ffe2eb"/>
    <circle id="Ellipse_4878" data-name="Ellipse 4878" cx="1" cy="1" r="1" transform="translate(469 407)" fill="#ffe2eb"/>
    <circle id="Ellipse_4879" data-name="Ellipse 4879" cx="1" cy="1" r="1" transform="translate(477 407)" fill="#ffe2eb"/>
    <circle id="Ellipse_4880" data-name="Ellipse 4880" cx="1" cy="1" r="1" transform="translate(485 407)" fill="#ffe2eb"/>
    <circle id="Ellipse_4881" data-name="Ellipse 4881" cx="1" cy="1" r="1" transform="translate(493 407)" fill="#ffe2eb"/>
    <circle id="Ellipse_4882" data-name="Ellipse 4882" cx="1" cy="1" r="1" transform="translate(501 407)" fill="#ffe2eb"/>
    <circle id="Ellipse_4883" data-name="Ellipse 4883" cx="1" cy="1" r="1" transform="translate(509 407)" fill="#ffe2eb"/>
    <circle id="Ellipse_4884" data-name="Ellipse 4884" cx="1" cy="1" r="1" transform="translate(517 407)" fill="#ffe2eb"/>
    <circle id="Ellipse_4885" data-name="Ellipse 4885" cx="1" cy="1" r="1" transform="translate(525 407)" fill="#ffe2eb"/>
  </g>
</svg>
