<svg id="Layer_1" data-name="Layer 1" xmlns="http://www.w3.org/2000/svg" viewBox="0 0 12 22.2"><defs><style>.cls-1{fill:#003f77;}</style></defs><title>icon_fb</title><path class="cls-1" d="M55.55,38.91H52.67c-3.23,0-5.32,2.15-5.32,5.46v2.52h-2.9a.46.46,0,0,0-.45.46V51a.45.45,0,0,0,.45.46h2.9v9.21a.45.45,0,0,0,.45.45h3.77a.46.46,0,0,0,.46-.45V51.44h3.38a.45.45,0,0,0,.45-.46V47.34a.48.48,0,0,0-.46-.46H52V44.75c0-1,.24-1.55,1.58-1.55h1.94a.45.45,0,0,0,.45-.45V39.36A.45.45,0,0,0,55.55,38.91Z" transform="translate(-44 -38.9)"/></svg>