<svg id="Layer_1" data-name="Layer 1" xmlns="http://www.w3.org/2000/svg" viewBox="0 0 88 86.74"><defs><style>.cls-1{fill:#003f77;}</style></defs><title>icon_skyp</title><path class="cls-1" d="M89.82,55.67a41,41,0,0,0,.38-5.46A40.3,40.3,0,0,0,49.79,10a41,41,0,0,0-6.51.52A24.12,24.12,0,0,0,9.88,43.88,40.21,40.21,0,0,0,49.79,90.41a41.25,41.25,0,0,0,7.35-.68A24.12,24.12,0,0,0,89.82,55.67ZM53.56,79.84c-12.84.67-18.84-2.17-24.35-7.34-6.15-5.77-3.68-12.35,1.33-12.68s8,5.67,10.68,7.34,12.83,5.46,18.19-.67c5.84-6.67-3.89-10.13-11-11.17-10.18-1.51-23-7-22-17.86s9.21-16.4,17.85-17.19c11-1,18.19,1.67,23.86,6.51,6.55,5.59,3,11.84-1.17,12.35s-8.84-9.2-18-9.35c-9.46-.15-15.85,9.85-4.18,12.69s24.19,4,28.7,14.68S66.42,79.17,53.56,79.84Z" transform="translate(-6 -6.63)"/></svg>