<svg id="Layer_1" data-name="Layer 1" xmlns="http://www.w3.org/2000/svg" viewBox="0 0 93.33 75.81"><defs><style>.cls-1{fill:#003f77;}</style></defs><title>icon_tt</title><path class="cls-1" d="M96.66,21.06a37.92,37.92,0,0,1-11,3,19.22,19.22,0,0,0,8.42-10.59,38.41,38.41,0,0,1-12.17,4.65A19.16,19.16,0,0,0,49.3,35.6a54.34,54.34,0,0,1-39.46-20,19.18,19.18,0,0,0,5.92,25.56,19.31,19.31,0,0,1-8.67-2.4V39A19.16,19.16,0,0,0,22.45,57.76a19.53,19.53,0,0,1-5.05.67,17.87,17.87,0,0,1-3.6-.36,19.15,19.15,0,0,0,17.88,13.3A38.43,38.43,0,0,1,7.9,79.55a40.33,40.33,0,0,1-4.56-.26A54.1,54.1,0,0,0,32.68,87.9c35.22,0,54.47-29.17,54.47-54.47L87.09,31A38.34,38.34,0,0,0,96.66,21.06Z" transform="translate(-3.34 -12.1)"/></svg>