<svg id="Layer_1" data-name="Layer 1" xmlns="http://www.w3.org/2000/svg" viewBox="0 0 93.71 89.55"><defs><style>.cls-1{fill:#003f77;}</style></defs><title>icon_in</title><path id="LinkedIn" class="cls-1" d="M96.86,60.13V94.77H76.77V62.45c0-8.12-2.9-13.66-10.17-13.66-5.55,0-8.86,3.73-10.31,7.34a13.77,13.77,0,0,0-.67,4.9V94.77H35.53s.27-54.75,0-60.42H55.62v8.57l-.13.19h.13v-.19c2.67-4.11,7.44-10,18.11-10C87,32.93,96.86,41.57,96.86,60.13ZM14.51,5.23c-6.87,0-11.37,4.5-11.37,10.43S7.51,26.11,14.25,26.11h.13c7,0,11.36-4.65,11.36-10.45S21.39,5.23,14.51,5.23ZM4.34,94.77H24.42V34.35H4.34Z" transform="translate(-3.14 -5.23)"/></svg>