<svg id="Layer_1" data-name="Layer 1" xmlns="http://www.w3.org/2000/svg" viewBox="0 0 92.25 92.25"><defs><style>.cls-1{fill:#003f77;}</style></defs><title>icon_pi</title><path class="cls-1" d="M50,3.88A46.13,46.13,0,1,0,96.13,50,46.12,46.12,0,0,0,50,3.88Zm5.31,61.44C51,65.32,47,63,45.65,60.4c0,0-2.29,9.1-2.77,10.85-1.71,6.21-6.75,12.43-7.14,12.93A.52.52,0,0,1,34.8,84c-.1-.79-1.39-8.63.12-15C35.68,65.73,40,47.41,40,47.41a15.18,15.18,0,0,1-1.26-6.25c0-5.85,3.4-10.23,7.62-10.23,3.6,0,5.33,2.7,5.33,5.94,0,3.61-2.3,9-3.48,14-1,4.19,2.1,7.61,6.23,7.61,7.49,0,12.52-9.62,12.52-21,0-8.66-5.82-15.14-16.43-15.14-12,0-19.46,8.93-19.46,18.92A11.41,11.41,0,0,0,33.68,49a1.92,1.92,0,0,1,.57,2.2c-.19.73-.62,2.48-.81,3.17a1.36,1.36,0,0,1-2,1c-5.51-2.25-8.09-8.3-8.09-15.09,0-11.23,9.47-24.69,28.24-24.69,15.09,0,25,10.92,25,22.64C76.63,53.74,68,65.32,55.31,65.32Z" transform="translate(-3.88 -3.88)"/></svg>