<svg xmlns="http://www.w3.org/2000/svg" width="536.611" height="305.038"><defs><clipPath id="clip-path"><path id="Path_54" data-name="Path 54" d="M3.194 0h530.223a3.194 3.194 0 0 1 3.194 3.194v301.844H0V3.194A3.194 3.194 0 0 1 3.194 0z" transform="translate(937 440)" fill="#39b82b"/></clipPath><linearGradient id="linear-gradient" x1=".025" y1=".081" x2=".941" y2=".786" gradientUnits="objectBoundingBox"><stop offset="0" stop-color="#fff"/><stop offset="1" stop-color="#f1f1f1"/></linearGradient><linearGradient id="linear-gradient-2" x1=".33" y1=".311" x2=".952" y2=".546" gradientUnits="objectBoundingBox"><stop offset="0" stop-color="#fff" stop-opacity=".278"/><stop offset="1" stop-color="#fff" stop-opacity="0"/></linearGradient></defs><g id="Mask_Group_4" data-name="Mask Group 4" transform="translate(-937 -440)" clip-path="url(#clip-path)"><g id="homepage-wave-bg" transform="translate(879.367 551.794)"><path id="Path_55" data-name="Path 55" d="M643.32 435.7H0V268.316c71.3-8.172 32-104.923 188.508-112.842S303.541-19.22 478.221 49.065Q576.07 87.316 643.32 0z" fill="rgba(255,255,255,0.2)" fill-rule="evenodd"/><path id="Path_56" data-name="Path 56" d="M643.32 30.955c-172.605-89.069-223.274 37.268-338.653 88.418S48.535 141.5 0 227.968v194.6h643.32z" transform="translate(0 13.132)" opacity=".19" fill="url(#linear-gradient)"/><path id="Path_57" data-name="Path 57" d="M424.225 200.394H0c113.025 0 74.863-139.521 206.326-128.465S304.93 10.4 359.1 1.649q42.654-6.888 65.125 15z" transform="translate(190.349 85.186)" fill="url(#linear-gradient-2)"/></g></g></svg>