<svg id="Layer_1" data-name="Layer 1" xmlns="http://www.w3.org/2000/svg" viewBox="0 0 1193.32 389.51"><defs><style>.cls-1{fill:#18185d;}.cls-2{opacity:0.6;}.cls-3{fill:#222337;}.cls-4{fill:#3953ff;}.cls-5{fill:#fff;}</style></defs><title>newagecrm</title><path class="cls-1" d="M14,0H35.47a7,7,0,0,1,5.6,2.81l70,93.88V7a7,7,0,0,1,7-7H136.3a7,7,0,0,1,7,7V142.61a7,7,0,0,1-7,7H114.56a7,7,0,0,1-5.6-2.81L39,52.91v89.7a7,7,0,0,1-7,7H14a7,7,0,0,1-7-7V7A7,7,0,0,1,14,0Z"/><path class="cls-1" d="M235.8,118.54l10.68,10.9a7,7,0,0,1-.85,10.53c-10.66,7.51-26.22,12.24-39.86,12.24-33.53,0-59.66-24.61-59.66-59.23,0-34,25-58.57,57.92-58.57,35.28,0,56,26.78,56,69.24H178.77c3.7,12.2,13.5,20.47,26.78,20.47A42.12,42.12,0,0,0,227,117.57,7,7,0,0,1,235.8,118.54ZM179.21,80.79h50.3c-3-11.11-11.33-18.29-24.18-18.29A27.18,27.18,0,0,0,179.21,80.79Z"/><path class="cls-1" d="M255.16,37h16.2A7,7,0,0,1,278,42l19.84,65.17L318.54,41.9A7,7,0,0,1,325.2,37h16.12A7,7,0,0,1,348,41.9l20.67,65.24,26.56-65.75A7,7,0,0,1,401.69,37h16.08a7,7,0,0,1,6.48,9.6l-39.69,98.6a7,7,0,0,1-6.48,4.38H359.5a7,7,0,0,1-6.7-5L333.37,78.83l-19.63,65.78a7,7,0,0,1-6.7,5H288.72a7,7,0,0,1-6.61-4.74l-33.57-98.6A7,7,0,0,1,255.16,37Z"/><path class="cls-1" d="M497.71,129.58H431.08l-7.81,19.16a7,7,0,0,1-6.47,4.35H396a7,7,0,0,1-6.47-9.62L444.76,7.84a7,7,0,0,1,6.47-4.35h26.54a7,7,0,0,1,6.47,4.35l55.28,135.63a7,7,0,0,1-6.47,9.62H512a7,7,0,0,1-6.47-4.35Zm-11.1-27.22L464.39,47.7l-22.21,54.66Z"/><path class="cls-1" d="M638.77,40.51a7,7,0,0,1,7,7v93.61c0,29-25,49.44-60.54,49.44-17,0-33.21-4.66-44.48-11.48a6.91,6.91,0,0,1-2.48-9l4.86-9.81a7,7,0,0,1,9.73-3c7.45,4,17.41,6.44,27.36,6.44,20.47,0,33.54-9.36,33.54-23.95V127.4a47.91,47.91,0,0,1-37.24,17.42c-28.31,0-49.87-22.21-49.87-53.57S548.2,37.9,576.51,37.9c15.25,0,29.61,7.18,37.24,17.86V47.5a7,7,0,0,1,7-7Zm-25,50.74c0-15.68-11.33-26.57-27.22-26.57s-27.22,10.89-27.22,26.57S570.63,118,586.53,118,613.75,106.93,613.75,91.25Z"/><path class="cls-1" d="M739.59,122l10.67,10.9a7,7,0,0,1-.84,10.53c-10.66,7.51-26.22,12.25-39.86,12.25-33.53,0-59.66-24.61-59.66-59.23,0-34,25-58.58,57.92-58.58,35.27,0,56,26.78,56,69.25H682.56c3.7,12.19,13.5,20.46,26.78,20.46a42.12,42.12,0,0,0,21.48-6.55A7,7,0,0,1,739.59,122ZM683,84.28H733.3C730.25,73.18,722,66,709.12,66A27.22,27.22,0,0,0,683,84.28Z"/><g class="cls-2"><path class="cls-3" d="M9.15,169H0v-2.35H20.75V169H11.61v24.06H9.15Z"/><path class="cls-3" d="M48,166.64v26.41H45.58V180.78H29.47v12.27H27V166.64h2.46V178.4H45.58V166.64Z"/><path class="cls-3" d="M58.1,169v9.41H72.55v2.38H58.1v9.92H74v2.35H55.6V166.64H74V169Z"/><path class="cls-3" d="M92.26,179.83a13.78,13.78,0,0,1,13.53-13.65,13.36,13.36,0,0,1,9.5,4l-1.7,1.69a10.9,10.9,0,0,0-7.8-3.42,11.36,11.36,0,0,0,0,22.71,10.78,10.78,0,0,0,7.8-3.46l1.7,1.73a13.53,13.53,0,0,1-9.5,4A13.81,13.81,0,0,1,92.26,179.83Z"/><path class="cls-3" d="M119.32,179.83a13.51,13.51,0,1,1,13.53,13.68A13.77,13.77,0,0,1,119.32,179.83Zm24.52,0a11,11,0,1,0-11,11.37A11.29,11.29,0,0,0,143.84,179.83Z"/><path class="cls-3" d="M153.44,166.64h2.46L166,185.55,176,166.64h2.46v26.41H176V171.87L166,190.78,155.9,171.87v21.18h-2.46Z"/><path class="cls-3" d="M186.64,166.64h10.84c5.42,0,9.53,3.46,9.53,8.34s-4.11,8.31-9.53,8.31H189.1v9.76h-2.46Zm10.42,14.3c4.42,0,7.49-2.31,7.49-6s-3.07-6-7.49-6h-8v11.95Z"/><path class="cls-3" d="M229.53,190.7v2.35H212.39V166.64h2.46V190.7Z"/><path class="cls-3" d="M237.87,169v9.41h14.45v2.38H237.87v9.92h15.91v2.35H235.37V166.64h18.41V169Z"/><path class="cls-3" d="M268.26,169h-9.14v-2.35h20.75V169h-9.15v24.06h-2.46Z"/><path class="cls-3" d="M288.63,169v9.41h14.45v2.38H288.63v9.92h15.91v2.35H286.13V166.64h18.41V169Z"/><path class="cls-3" d="M322.56,189.28l1.54-1.92a12.4,12.4,0,0,0,8.95,3.84c4.19,0,6.61-2.31,6.61-5,0-2.89-2.42-4.19-7.41-5.35-5.58-1.3-8.65-3-8.65-7.18,0-4.31,3.69-7.54,8.72-7.54a13.46,13.46,0,0,1,9.23,3.77L340,171.83a11.25,11.25,0,0,0-7.8-3.42c-3.58,0-6.11,2.27-6.11,5.07s2.49,3.81,7.38,5c5.41,1.27,8.68,3.19,8.68,7.49s-3.34,7.5-9.18,7.5A14.58,14.58,0,0,1,322.56,189.28Z"/><path class="cls-3" d="M347.73,179.83a13.51,13.51,0,1,1,13.53,13.68A13.78,13.78,0,0,1,347.73,179.83Zm24.52,0a11,11,0,1,0-11,11.37A11.29,11.29,0,0,0,372.25,179.83Z"/><path class="cls-3" d="M398,190.7v2.35H380.86V166.64h2.46V190.7Z"/><path class="cls-3" d="M404.1,182.36V166.64h2.46v15.72c0,5.19,3.46,8.88,8.3,8.88s8.31-3.69,8.31-8.88V166.64h2.46v15.72c0,6.53-4.46,11.15-10.77,11.15S404.1,188.89,404.1,182.36Z"/><path class="cls-3" d="M441.3,169h-9.14v-2.35h20.75V169h-9.15v24.06H441.3Z"/><path class="cls-3" d="M459.17,166.64h2.46v26.41h-2.46Z"/><path class="cls-3" d="M468.16,179.83a13.51,13.51,0,1,1,13.53,13.68A13.78,13.78,0,0,1,468.16,179.83Zm24.52,0a11,11,0,1,0-11,11.37A11.29,11.29,0,0,0,492.68,179.83Z"/><path class="cls-3" d="M502.29,166.64h2.46l16.91,22.41V166.64h2.46v26.41h-2.46l-16.91-22.41v22.41h-2.46Z"/></g><path class="cls-4" d="M769.32,84.46c0-41.27,36.13-75.91,78.9-75.91a80.49,80.49,0,0,1,54.3,21.22,5.18,5.18,0,0,1-.07,7.69L883.71,54.1a5.15,5.15,0,0,1-7.05-.17,40.4,40.4,0,0,0-28.44-12.24c-22.45,0-41.48,19.67-41.48,42.77,0,23.3,19,43,41.48,43,11,0,21-4.71,28.64-12.29a5.14,5.14,0,0,1,7-.15l18.59,16.48a5.19,5.19,0,0,1,.09,7.67,79.85,79.85,0,0,1-54.35,21.43C805.45,160.58,769.32,125.73,769.32,84.46Z"/><path class="cls-4" d="M993,155.81l-29.19-41.57a5.18,5.18,0,0,0-4.24-2.2H949.51a5.18,5.18,0,0,0-5.18,5.18v35.62a5.17,5.17,0,0,1-5.18,5.17H912.94a5.16,5.16,0,0,1-5.17-5.17V16.29a5.16,5.16,0,0,1,5.17-5.17h63c32.28,0,55.8,20.74,55.8,50.46,0,19.33-10,35-25.93,43.51a5.16,5.16,0,0,0-1.74,7.51l26.22,37.26a5.18,5.18,0,0,1-4.24,8.15H997.27A5.18,5.18,0,0,1,993,155.81Zm-48.7-82.3a5.17,5.17,0,0,0,5.18,5.17h23c12.61,0,21.59-6.84,21.59-17.1s-9-17.11-21.59-17.11h-23a5.18,5.18,0,0,0-5.18,5.18Z"/><path class="cls-4" d="M1040.69,11.12H1069a5.17,5.17,0,0,1,4.53,2.67l36.33,65.68a5.17,5.17,0,0,0,9.06,0l36.33-65.68a5.16,5.16,0,0,1,4.53-2.67h28.33a5.17,5.17,0,0,1,5.18,5.17V152.84a5.17,5.17,0,0,1-5.18,5.17h-26.21a5.16,5.16,0,0,1-5.17-5.17V93a5.18,5.18,0,0,0-9.71-2.51L1119,141.27a5.18,5.18,0,0,1-9.06,0l-28.1-50.81a5.18,5.18,0,0,0-9.71,2.51v59.87a5.17,5.17,0,0,1-5.17,5.17h-26.22a5.16,5.16,0,0,1-5.17-5.17V16.29A5.16,5.16,0,0,1,1040.69,11.12Z"/><path class="cls-5" d="M14,196H35.47a7,7,0,0,1,5.6,2.81l70,93.88V203a7,7,0,0,1,7-7H136.3a7,7,0,0,1,7,7V338.61a7,7,0,0,1-7,7H114.56a7,7,0,0,1-5.6-2.81L39,248.91v89.7a7,7,0,0,1-7,7H14a7,7,0,0,1-7-7V203A7,7,0,0,1,14,196Z"/><path class="cls-5" d="M235.8,314.54l10.68,10.9a7,7,0,0,1-.85,10.53c-10.66,7.51-26.22,12.24-39.86,12.24-33.53,0-59.66-24.61-59.66-59.23,0-34,25-58.57,57.92-58.57,35.28,0,56,26.78,56,69.24H178.77c3.7,12.2,13.5,20.47,26.78,20.47A42.12,42.12,0,0,0,227,313.57,7,7,0,0,1,235.8,314.54Zm-56.59-37.75h50.3c-3-11.11-11.33-18.29-24.18-18.29A27.18,27.18,0,0,0,179.21,276.79Z"/><path class="cls-5" d="M255.16,233h16.2A7,7,0,0,1,278,238l19.84,65.17,20.66-65.24A7,7,0,0,1,325.2,233h16.12A7,7,0,0,1,348,237.9l20.67,65.24,26.56-65.75a7,7,0,0,1,6.48-4.37h16.08a7,7,0,0,1,6.48,9.6l-39.69,98.6a7,7,0,0,1-6.48,4.38H359.5a7,7,0,0,1-6.7-5l-19.43-65.76-19.63,65.78a7,7,0,0,1-6.7,5H288.72a7,7,0,0,1-6.61-4.74l-33.57-98.6A7,7,0,0,1,255.16,233Z"/><path class="cls-5" d="M497.71,325.58H431.08l-7.81,19.16a7,7,0,0,1-6.47,4.35H396a7,7,0,0,1-6.47-9.62l55.27-135.63a7,7,0,0,1,6.47-4.35h26.54a7,7,0,0,1,6.47,4.35l55.28,135.63a7,7,0,0,1-6.47,9.62H512a7,7,0,0,1-6.47-4.35Zm-11.1-27.22L464.39,243.7l-22.21,54.66Z"/><path class="cls-5" d="M638.77,236.51a7,7,0,0,1,7,7v93.61c0,29-25,49.44-60.54,49.44-17,0-33.21-4.66-44.48-11.48a6.91,6.91,0,0,1-2.48-9l4.86-9.81a7,7,0,0,1,9.73-3c7.45,4,17.41,6.44,27.36,6.44,20.47,0,33.54-9.36,33.54-23.95V323.4a47.91,47.91,0,0,1-37.24,17.42c-28.31,0-49.87-22.21-49.87-53.57s21.56-53.35,49.87-53.35c15.25,0,29.61,7.18,37.24,17.86V243.5a7,7,0,0,1,7-7Zm-25,50.74c0-15.68-11.33-26.57-27.22-26.57s-27.22,10.89-27.22,26.57S570.63,314,586.53,314,613.75,302.93,613.75,287.25Z"/><path class="cls-5" d="M739.59,318l10.67,10.9a7,7,0,0,1-.84,10.53c-10.66,7.51-26.22,12.25-39.86,12.25-33.53,0-59.66-24.61-59.66-59.23,0-34,25-58.58,57.92-58.58,35.27,0,56,26.78,56,69.25H682.56c3.7,12.19,13.5,20.46,26.78,20.46a42.12,42.12,0,0,0,21.48-6.55A7,7,0,0,1,739.59,318ZM683,280.28H733.3c-3-11.1-11.33-18.29-24.18-18.29A27.22,27.22,0,0,0,683,280.28Z"/><g class="cls-2"><path class="cls-5" d="M9.15,365H0v-2.35H20.75V365H11.61v24.06H9.15Z"/><path class="cls-5" d="M48,362.64v26.41H45.58V376.78H29.47v12.27H27V362.64h2.46V374.4H45.58V362.64Z"/><path class="cls-5" d="M58.1,365v9.41H72.55v2.38H58.1v9.92H74v2.35H55.6V362.64H74V365Z"/><path class="cls-5" d="M92.26,375.83a13.78,13.78,0,0,1,13.53-13.65,13.36,13.36,0,0,1,9.5,4l-1.7,1.69a10.9,10.9,0,0,0-7.8-3.42,11.36,11.36,0,0,0,0,22.71,10.78,10.78,0,0,0,7.8-3.46l1.7,1.73a13.53,13.53,0,0,1-9.5,4A13.81,13.81,0,0,1,92.26,375.83Z"/><path class="cls-5" d="M119.32,375.83a13.51,13.51,0,1,1,13.53,13.68A13.77,13.77,0,0,1,119.32,375.83Zm24.52,0a11,11,0,1,0-11,11.37A11.29,11.29,0,0,0,143.84,375.83Z"/><path class="cls-5" d="M153.44,362.64h2.46L166,381.55,176,362.64h2.46v26.41H176V367.87L166,386.78,155.9,367.87v21.18h-2.46Z"/><path class="cls-5" d="M186.64,362.64h10.84c5.42,0,9.53,3.46,9.53,8.34s-4.11,8.31-9.53,8.31H189.1v9.76h-2.46Zm10.42,14.3c4.42,0,7.49-2.31,7.49-6s-3.07-6-7.49-6h-8v11.95Z"/><path class="cls-5" d="M229.53,386.7v2.35H212.39V362.64h2.46V386.7Z"/><path class="cls-5" d="M237.87,365v9.41h14.45v2.38H237.87v9.92h15.91v2.35H235.37V362.64h18.41V365Z"/><path class="cls-5" d="M268.26,365h-9.14v-2.35h20.75V365h-9.15v24.06h-2.46Z"/><path class="cls-5" d="M288.63,365v9.41h14.45v2.38H288.63v9.92h15.91v2.35H286.13V362.64h18.41V365Z"/><path class="cls-5" d="M322.56,385.28l1.54-1.92a12.4,12.4,0,0,0,8.95,3.84c4.19,0,6.61-2.31,6.61-5,0-2.89-2.42-4.19-7.41-5.35-5.58-1.3-8.65-3-8.65-7.18,0-4.31,3.69-7.54,8.72-7.54a13.46,13.46,0,0,1,9.23,3.77L340,367.83a11.25,11.25,0,0,0-7.8-3.42c-3.58,0-6.11,2.27-6.11,5.07,0,2.65,2.49,3.81,7.38,5,5.41,1.27,8.68,3.19,8.68,7.49s-3.34,7.5-9.18,7.5A14.58,14.58,0,0,1,322.56,385.28Z"/><path class="cls-5" d="M347.73,375.83a13.51,13.51,0,1,1,13.53,13.68A13.78,13.78,0,0,1,347.73,375.83Zm24.52,0a11,11,0,1,0-11,11.37A11.29,11.29,0,0,0,372.25,375.83Z"/><path class="cls-5" d="M398,386.7v2.35H380.86V362.64h2.46V386.7Z"/><path class="cls-5" d="M404.1,378.36V362.64h2.46v15.72c0,5.19,3.46,8.88,8.3,8.88s8.31-3.69,8.31-8.88V362.64h2.46v15.72c0,6.53-4.46,11.15-10.77,11.15S404.1,384.89,404.1,378.36Z"/><path class="cls-5" d="M441.3,365h-9.14v-2.35h20.75V365h-9.15v24.06H441.3Z"/><path class="cls-5" d="M459.17,362.64h2.46v26.41h-2.46Z"/><path class="cls-5" d="M468.16,375.83a13.51,13.51,0,1,1,13.53,13.68A13.78,13.78,0,0,1,468.16,375.83Zm24.52,0a11,11,0,1,0-11,11.37A11.29,11.29,0,0,0,492.68,375.83Z"/><path class="cls-5" d="M502.29,362.64h2.46l16.91,22.41V362.64h2.46v26.41h-2.46l-16.91-22.41v22.41h-2.46Z"/></g><path class="cls-4" d="M769.32,280.46c0-41.27,36.13-75.91,78.9-75.91a80.49,80.49,0,0,1,54.3,21.22,5.18,5.18,0,0,1-.07,7.69L883.71,250.1a5.15,5.15,0,0,1-7.05-.17,40.4,40.4,0,0,0-28.44-12.24c-22.45,0-41.48,19.67-41.48,42.77,0,23.3,19,43,41.48,43,11,0,21-4.71,28.64-12.29a5.14,5.14,0,0,1,7-.15l18.59,16.48a5.19,5.19,0,0,1,.09,7.67,79.85,79.85,0,0,1-54.35,21.43C805.45,356.58,769.32,321.73,769.32,280.46Z"/><path class="cls-4" d="M993,351.81l-29.19-41.57a5.18,5.18,0,0,0-4.24-2.2H949.51a5.18,5.18,0,0,0-5.18,5.18v35.62a5.17,5.17,0,0,1-5.18,5.17H912.94a5.16,5.16,0,0,1-5.17-5.17V212.29a5.16,5.16,0,0,1,5.17-5.17h63c32.28,0,55.8,20.74,55.8,50.46,0,19.33-10,35-25.93,43.51a5.16,5.16,0,0,0-1.74,7.51l26.22,37.26a5.18,5.18,0,0,1-4.24,8.15H997.27A5.18,5.18,0,0,1,993,351.81Zm-48.7-82.3a5.17,5.17,0,0,0,5.18,5.17h23c12.61,0,21.59-6.84,21.59-17.1s-9-17.11-21.59-17.11h-23a5.18,5.18,0,0,0-5.18,5.18Z"/><path class="cls-4" d="M1040.69,207.12H1069a5.17,5.17,0,0,1,4.53,2.67l36.33,65.68a5.17,5.17,0,0,0,9.06,0l36.33-65.68a5.16,5.16,0,0,1,4.53-2.67h28.33a5.17,5.17,0,0,1,5.18,5.17V348.84a5.17,5.17,0,0,1-5.18,5.17h-26.21a5.16,5.16,0,0,1-5.17-5.17V289a5.18,5.18,0,0,0-9.71-2.51L1119,337.27a5.18,5.18,0,0,1-9.06,0l-28.1-50.81a5.18,5.18,0,0,0-9.71,2.51v59.87a5.17,5.17,0,0,1-5.17,5.17h-26.22a5.16,5.16,0,0,1-5.17-5.17V212.29A5.16,5.16,0,0,1,1040.69,207.12Z"/></svg>