<?xml version="1.0" encoding="utf-8"?>
<!-- Generator: Adobe Illustrator 22.1.0, SVG Export Plug-In . SVG Version: 6.00 Build 0)  -->
<svg version="1.1" id="Layer_1" xmlns="http://www.w3.org/2000/svg" xmlns:xlink="http://www.w3.org/1999/xlink" x="0px" y="0px"
	 viewBox="0 0 315.9 111.4" style="enable-background:new 0 0 315.9 111.4;" xml:space="preserve">
<style type="text/css">
	.st0{fill:#18185D;}
	.st1{opacity:0.75;fill:#18185D;}
	.st2{fill:url(#SVGID_1_);}
	.st3{fill:#FFFFFF;}
	.st4{opacity:0.75;fill:#FFFFFF;}
	.st5{fill:url(#SVGID_2_);}
</style>
<path class="st0" d="M2.8,0h5C8.6,0,9.5,0.4,10,1.1l19.8,26.5V0h6.5C37.8,0,39,1.2,39,2.8v37.2c0,1.6-1.3,2.9-2.9,2.9h-5
	c-0.9,0-1.7-0.4-2.2-1.1L9.2,15.1v27.7H0V2.8C0,1.2,1.2,0,2.8,0z"/>
<path class="st0" d="M64.3,32.7l5.8,5.9c-2.9,3-8.4,5-13.2,5c-9.6,0-17.1-7-17.1-17c0-9.7,7.2-16.8,16.6-16.8c10.1,0,16,7.7,16,19.8
	H49.2c1.1,3.5,3.9,5.9,7.7,5.9C59.4,35.5,62.5,34.3,64.3,32.7z M49.3,23.1h14.4c-0.9-3.2-3.2-5.2-6.9-5.2
	C53.4,17.9,50.5,19.9,49.3,23.1z"/>
<path class="st0" d="M68.2,10.6h8.9l6.1,20.1L89,12.6c0.4-1.2,1.5-2,2.7-2h3.4c1.2,0,2.3,0.8,2.7,2l5.7,18.1l8.1-20.1h8.9l-13,32.2
	h-8.2l-6-20.3l-6,20.3h-8.2L68.2,10.6z"/>
<path class="st0" d="M141.5,36.1h-19.1l-2.7,6.7h-10.3l16.8-41.1c0.4-1,1.4-1.7,2.6-1.7h6.6c1.1,0,2.1,0.7,2.6,1.7l16.8,41.1h-10.3
	L141.5,36.1z M138.3,28.3l-6.4-15.6l-6.4,15.6H138.3z"/>
<path class="st0" d="M183.9,10.6v28.8c0,8.3-7.2,14.1-17.3,14.1c-5.7,0-11-1.8-14.2-4.3l3.2-6.4c2.1,1.9,5.9,3.1,9.6,3.1
	c5.9,0,9.6-2.7,9.6-6.9v-3.6c-2.6,3.1-6.4,5-10.7,5c-8.1,0-14.3-6.4-14.3-15.3S155.9,9.8,164,9.8c4.4,0,8.5,2.1,10.7,5.1v-4.4H183.9
	z M174.7,25.1c0-4.5-3.2-7.6-7.8-7.6c-4.6,0-7.8,3.1-7.8,7.6c0,4.5,3.2,7.7,7.8,7.7C171.4,32.8,174.7,29.6,174.7,25.1z"/>
<path class="st0" d="M209.5,32.7l5.8,5.9c-2.9,3-8.4,5-13.2,5c-9.6,0-17.1-7-17.1-17c0-9.7,7.2-16.8,16.6-16.8
	c10.1,0,16,7.7,16,19.8h-23.3c1.1,3.5,3.9,5.9,7.7,5.9C204.6,35.5,207.7,34.3,209.5,32.7z M194.5,23.1h14.4
	c-0.9-3.2-3.2-5.2-6.9-5.2C198.6,17.9,195.7,19.9,194.5,23.1z"/>
<path class="st1" d="M2.6,48.4H0v-0.7h5.9v0.7H3.3v6.9H2.6V48.4z"/>
<path class="st1" d="M13.8,47.7v7.6H13v-3.5H8.4v3.5H7.7v-7.6h0.7v3.4H13v-3.4H13.8z"/>
<path class="st1" d="M16.6,48.4v2.7h4.1v0.7h-4.1v2.8h4.6v0.7h-5.3v-7.6h5.3v0.7H16.6z"/>
<path class="st1" d="M26.4,51.5c0-2.1,1.8-3.9,3.9-3.9c1,0,2,0.4,2.7,1.2l-0.5,0.5c-0.6-0.6-1.4-1-2.2-1c-1.7,0-3.2,1.5-3.2,3.2
	c0,1.8,1.4,3.3,3.2,3.3c0.9,0,1.7-0.4,2.2-1l0.5,0.5c-0.7,0.7-1.7,1.2-2.7,1.2C28.2,55.4,26.4,53.6,26.4,51.5z"/>
<path class="st1" d="M34.2,51.5c0-2.1,1.8-3.9,3.9-3.9c2.1,0,3.9,1.8,3.9,3.9c0,2.1-1.8,3.9-3.9,3.9C35.9,55.4,34.2,53.6,34.2,51.5z
	 M41.2,51.5c0-1.8-1.4-3.2-3.1-3.2s-3.2,1.5-3.2,3.2c0,1.8,1.4,3.3,3.2,3.3S41.2,53.2,41.2,51.5z"/>
<path class="st1" d="M43.9,47.7h0.7l2.9,5.4l2.9-5.4h0.7v7.6h-0.7v-6.1l-2.9,5.4l-2.9-5.4v6.1h-0.7V47.7z"/>
<path class="st1" d="M53.4,47.7h3.1c1.6,0,2.7,1,2.7,2.4s-1.2,2.4-2.7,2.4h-2.4v2.8h-0.7V47.7z M56.4,51.8c1.3,0,2.1-0.7,2.1-1.7
	c0-1.1-0.9-1.7-2.1-1.7h-2.3v3.4H56.4z"/>
<path class="st1" d="M65.7,54.6v0.7h-4.9v-7.6h0.7v6.9H65.7z"/>
<path class="st1" d="M68.1,48.4v2.7h4.1v0.7h-4.1v2.8h4.6v0.7h-5.3v-7.6h5.3v0.7H68.1z"/>
<path class="st1" d="M76.8,48.4h-2.6v-0.7h5.9v0.7h-2.6v6.9h-0.7V48.4z"/>
<path class="st1" d="M82.6,48.4v2.7h4.1v0.7h-4.1v2.8h4.6v0.7h-5.3v-7.6h5.3v0.7H82.6z"/>
<path class="st1" d="M92.3,54.2l0.4-0.5c0.7,0.7,1.5,1.1,2.6,1.1c1.2,0,1.9-0.7,1.9-1.4c0-0.8-0.7-1.2-2.1-1.5
	c-1.6-0.4-2.5-0.9-2.5-2.1c0-1.2,1.1-2.2,2.5-2.2c1.1,0,1.9,0.4,2.6,1.1l-0.4,0.5c-0.6-0.6-1.4-1-2.2-1c-1,0-1.7,0.6-1.7,1.5
	c0,0.8,0.7,1.1,2.1,1.4c1.6,0.4,2.5,0.9,2.5,2.1c0,1.2-1,2.1-2.6,2.1C94.1,55.4,93.1,54.9,92.3,54.2z"/>
<path class="st1" d="M99.5,51.5c0-2.1,1.8-3.9,3.9-3.9c2.1,0,3.9,1.8,3.9,3.9c0,2.1-1.8,3.9-3.9,3.9C101.3,55.4,99.5,53.6,99.5,51.5
	z M106.6,51.5c0-1.8-1.4-3.2-3.1-3.2c-1.7,0-3.2,1.5-3.2,3.2c0,1.8,1.4,3.3,3.2,3.3C105.1,54.7,106.6,53.2,106.6,51.5z"/>
<path class="st1" d="M113.9,54.6v0.7H109v-7.6h0.7v6.9H113.9z"/>
<path class="st1" d="M115.7,52.2v-4.5h0.7v4.5c0,1.5,1,2.5,2.4,2.5s2.4-1.1,2.4-2.5v-4.5h0.7v4.5c0,1.9-1.3,3.2-3.1,3.2
	C116.9,55.4,115.7,54.1,115.7,52.2z"/>
<path class="st1" d="M126.3,48.4h-2.6v-0.7h5.9v0.7H127v6.9h-0.7V48.4z"/>
<path class="st1" d="M131.4,47.7h0.7v7.6h-0.7V47.7z"/>
<path class="st1" d="M134,51.5c0-2.1,1.8-3.9,3.9-3.9c2.1,0,3.9,1.8,3.9,3.9c0,2.1-1.8,3.9-3.9,3.9C135.8,55.4,134,53.6,134,51.5z
	 M141,51.5c0-1.8-1.4-3.2-3.1-3.2c-1.7,0-3.2,1.5-3.2,3.2c0,1.8,1.4,3.3,3.2,3.3C139.6,54.7,141,53.2,141,51.5z"/>
<path class="st1" d="M143.8,47.7h0.7l4.8,6.4v-6.4h0.7v7.6h-0.7l-4.8-6.4v6.4h-0.7V47.7z"/>
<radialGradient id="SVGID_1_" cx="289.7501" cy="38.5988" r="42.5961" fx="298.6198" fy="43.2158" gradientUnits="userSpaceOnUse">
	<stop  offset="0" style="stop-color:#0FA9FF"/>
	<stop  offset="1" style="stop-color:#3953FF"/>
</radialGradient>
<path class="st2" d="M287.5,5v39.8c0,0.8-0.7,1.5-1.5,1.5h-9c-0.9,0-1.5-0.7-1.5-1.5V28.9c0-1.6-2.1-2.1-2.8-0.8l-6.5,11.1
	c-0.6,0.9-1.9,1-2.5,0.1l-13.4-18.7c-0.2-0.3-0.3-0.6-0.3-0.9V8.2c0-1.5,1.9-2.1,2.8-0.9l9.9,14.5c0.6,0.9,2,0.9,2.6-0.1L275,4.2
	c0.3-0.5,0.8-0.8,1.3-0.8h9.7C286.8,3.4,287.5,4.1,287.5,5z M310.2,25c-0.9-0.6-0.9-1.8-0.1-2.5c2.5-2,3.8-4.9,3.8-8.3
	c0-6.2-5.7-10.8-13.8-10.8h-9.6c-0.8,0-1.5,0.7-1.5,1.5v7.2c0,0.8,0.7,1.5,1.5,1.5h6.6c2.5,0,4.3,1.4,4.3,3.2c0,1.9-1.8,3.2-4.3,3.2
	h-6.6c-0.8,0-1.5,0.7-1.5,1.5v6.1c0,0.8,0.7,1.5,1.5,1.5h8.4c2.6,0,4.5,1.4,4.5,3.4c0,2-1.9,3.4-4.5,3.4h-8.4
	c-0.8,0-1.5,0.7-1.5,1.5v7.2c0,0.8,0.7,1.5,1.5,1.5H301c8.7,0,15-4.7,15-11.5C315.9,30.7,313.8,27.2,310.2,25z M238.8,20.5
	c-6.1-1.3-7.6-2-7.6-4.2c0-1.6,1.4-2.8,4.4-2.8c3.1,0,6.7,1.1,10.1,3.1c1,0.6,2.2-0.2,2.2-1.3V6.8c0-0.7-0.4-1.3-1.1-1.6
	c-3.2-1.2-6.9-1.8-11-1.8c-10.2,0-16.9,5.6-16.9,14.1c0,8.9,7.2,11.3,16.4,13.5c5.9,1.4,7.4,1.7,7.4,3.7c0,1.9-1.8,3-5.1,3
	c-4.6,0-8.9-1.5-12.9-4.3c-0.7-0.5-1.7-0.4-2.2,0.3l-4.6,5.5c-0.6,0.7-0.5,1.9,0.3,2.4c5.3,4.1,12,6.1,19.1,6.1
	c10.7,0,17.6-5.3,17.6-14.3C255,25.3,248.7,22.6,238.8,20.5z"/>
<path class="st3" d="M2.8,56h5c0.9,0,1.7,0.4,2.3,1.1l19.8,26.5V56h6.5c1.5,0,2.8,1.2,2.8,2.8v37.2c0,1.6-1.3,2.9-2.9,2.9h-5
	c-0.9,0-1.7-0.4-2.2-1.1L9.2,71.1v27.7H0V58.8C0,57.2,1.2,56,2.8,56z"/>
<path class="st3" d="M64.3,88.7l5.8,5.9c-2.9,3-8.4,5-13.2,5c-9.6,0-17.1-7-17.1-17c0-9.7,7.2-16.8,16.6-16.8c10.1,0,16,7.7,16,19.8
	H49.2c1.1,3.5,3.9,5.9,7.7,5.9C59.4,91.5,62.5,90.3,64.3,88.7z M49.3,79.1h14.4c-0.9-3.2-3.2-5.2-6.9-5.2
	C53.4,73.9,50.5,75.9,49.3,79.1z"/>
<path class="st3" d="M68.2,66.6h8.9l6.1,20.1L89,68.6c0.4-1.2,1.5-2,2.7-2h3.4c1.2,0,2.3,0.8,2.7,2l5.7,18.1l8.1-20.1h8.9l-13,32.2
	h-8.2l-6-20.3l-6,20.3h-8.2L68.2,66.6z"/>
<path class="st3" d="M141.5,92.1h-19.1l-2.7,6.7h-10.3l16.8-41.1c0.4-1,1.4-1.7,2.6-1.7h6.6c1.1,0,2.1,0.7,2.6,1.7l16.8,41.1h-10.3
	L141.5,92.1z M138.3,84.3l-6.4-15.6l-6.4,15.6H138.3z"/>
<path class="st3" d="M183.9,66.6v28.8c0,8.3-7.2,14.1-17.3,14.1c-5.7,0-11-1.8-14.2-4.3l3.2-6.4c2.1,1.9,5.9,3.1,9.6,3.1
	c5.9,0,9.6-2.7,9.6-6.9v-3.6c-2.6,3.1-6.4,5-10.7,5c-8.1,0-14.3-6.4-14.3-15.3s6.2-15.3,14.3-15.3c4.4,0,8.5,2.1,10.7,5.1v-4.4
	H183.9z M174.7,81.1c0-4.5-3.2-7.6-7.8-7.6c-4.6,0-7.8,3.1-7.8,7.6c0,4.5,3.2,7.7,7.8,7.7C171.4,88.8,174.7,85.6,174.7,81.1z"/>
<path class="st3" d="M209.5,88.7l5.8,5.9c-2.9,3-8.4,5-13.2,5c-9.6,0-17.1-7-17.1-17c0-9.7,7.2-16.8,16.6-16.8
	c10.1,0,16,7.7,16,19.8h-23.3c1.1,3.5,3.9,5.9,7.7,5.9C204.6,91.5,207.7,90.3,209.5,88.7z M194.5,79.1h14.4
	c-0.9-3.2-3.2-5.2-6.9-5.2C198.6,73.9,195.7,75.9,194.5,79.1z"/>
<path class="st4" d="M2.6,104.4H0v-0.7h5.9v0.7H3.3v6.9H2.6V104.4z"/>
<path class="st4" d="M13.8,103.7v7.6H13v-3.5H8.4v3.5H7.7v-7.6h0.7v3.4H13v-3.4H13.8z"/>
<path class="st4" d="M16.6,104.4v2.7h4.1v0.7h-4.1v2.8h4.6v0.7h-5.3v-7.6h5.3v0.7H16.6z"/>
<path class="st4" d="M26.4,107.5c0-2.1,1.8-3.9,3.9-3.9c1,0,2,0.4,2.7,1.2l-0.5,0.5c-0.6-0.6-1.4-1-2.2-1c-1.7,0-3.2,1.5-3.2,3.2
	c0,1.8,1.4,3.3,3.2,3.3c0.9,0,1.7-0.4,2.2-1l0.5,0.5c-0.7,0.7-1.7,1.2-2.7,1.2C28.2,111.4,26.4,109.6,26.4,107.5z"/>
<path class="st4" d="M34.2,107.5c0-2.1,1.8-3.9,3.9-3.9c2.1,0,3.9,1.8,3.9,3.9c0,2.1-1.8,3.9-3.9,3.9
	C35.9,111.4,34.2,109.6,34.2,107.5z M41.2,107.5c0-1.8-1.4-3.2-3.1-3.2s-3.2,1.5-3.2,3.2c0,1.8,1.4,3.3,3.2,3.3
	S41.2,109.2,41.2,107.5z"/>
<path class="st4" d="M43.9,103.7h0.7l2.9,5.4l2.9-5.4h0.7v7.6h-0.7v-6.1l-2.9,5.4l-2.9-5.4v6.1h-0.7V103.7z"/>
<path class="st4" d="M53.4,103.7h3.1c1.6,0,2.7,1,2.7,2.4s-1.2,2.4-2.7,2.4h-2.4v2.8h-0.7V103.7z M56.4,107.8c1.3,0,2.1-0.7,2.1-1.7
	c0-1.1-0.9-1.7-2.1-1.7h-2.3v3.4H56.4z"/>
<path class="st4" d="M65.7,110.6v0.7h-4.9v-7.6h0.7v6.9H65.7z"/>
<path class="st4" d="M68.1,104.4v2.7h4.1v0.7h-4.1v2.8h4.6v0.7h-5.3v-7.6h5.3v0.7H68.1z"/>
<path class="st4" d="M76.8,104.4h-2.6v-0.7h5.9v0.7h-2.6v6.9h-0.7V104.4z"/>
<path class="st4" d="M82.6,104.4v2.7h4.1v0.7h-4.1v2.8h4.6v0.7h-5.3v-7.6h5.3v0.7H82.6z"/>
<path class="st4" d="M92.3,110.2l0.4-0.5c0.7,0.7,1.5,1.1,2.6,1.1c1.2,0,1.9-0.7,1.9-1.4c0-0.8-0.7-1.2-2.1-1.5
	c-1.6-0.4-2.5-0.9-2.5-2.1c0-1.2,1.1-2.2,2.5-2.2c1.1,0,1.9,0.4,2.6,1.1l-0.4,0.5c-0.6-0.6-1.4-1-2.2-1c-1,0-1.7,0.6-1.7,1.5
	c0,0.8,0.7,1.1,2.1,1.4c1.6,0.4,2.5,0.9,2.5,2.1c0,1.2-1,2.1-2.6,2.1C94.1,111.4,93.1,110.9,92.3,110.2z"/>
<path class="st4" d="M99.5,107.5c0-2.1,1.8-3.9,3.9-3.9c2.1,0,3.9,1.8,3.9,3.9c0,2.1-1.8,3.9-3.9,3.9
	C101.3,111.4,99.5,109.6,99.5,107.5z M106.6,107.5c0-1.8-1.4-3.2-3.1-3.2c-1.7,0-3.2,1.5-3.2,3.2c0,1.8,1.4,3.3,3.2,3.3
	C105.1,110.7,106.6,109.2,106.6,107.5z"/>
<path class="st4" d="M113.9,110.6v0.7H109v-7.6h0.7v6.9H113.9z"/>
<path class="st4" d="M115.7,108.2v-4.5h0.7v4.5c0,1.5,1,2.5,2.4,2.5s2.4-1.1,2.4-2.5v-4.5h0.7v4.5c0,1.9-1.3,3.2-3.1,3.2
	C116.9,111.4,115.7,110.1,115.7,108.2z"/>
<path class="st4" d="M126.3,104.4h-2.6v-0.7h5.9v0.7H127v6.9h-0.7V104.4z"/>
<path class="st4" d="M131.4,103.7h0.7v7.6h-0.7V103.7z"/>
<path class="st4" d="M134,107.5c0-2.1,1.8-3.9,3.9-3.9c2.1,0,3.9,1.8,3.9,3.9c0,2.1-1.8,3.9-3.9,3.9
	C135.8,111.4,134,109.6,134,107.5z M141,107.5c0-1.8-1.4-3.2-3.1-3.2c-1.7,0-3.2,1.5-3.2,3.2c0,1.8,1.4,3.3,3.2,3.3
	C139.6,110.7,141,109.2,141,107.5z"/>
<path class="st4" d="M143.8,103.7h0.7l4.8,6.4v-6.4h0.7v7.6h-0.7l-4.8-6.4v6.4h-0.7V103.7z"/>
<radialGradient id="SVGID_2_" cx="289.7501" cy="94.5988" r="42.5961" fx="298.6198" fy="99.2158" gradientUnits="userSpaceOnUse">
	<stop  offset="0" style="stop-color:#0FA9FF"/>
	<stop  offset="1" style="stop-color:#3953FF"/>
</radialGradient>
<path class="st5" d="M287.5,61v39.8c0,0.8-0.7,1.5-1.5,1.5h-9c-0.9,0-1.5-0.7-1.5-1.5V84.9c0-1.6-2.1-2.1-2.8-0.8l-6.5,11.1
	c-0.6,0.9-1.9,1-2.5,0.1l-13.4-18.7c-0.2-0.3-0.3-0.6-0.3-0.9V64.2c0-1.5,1.9-2.1,2.8-0.9l9.9,14.5c0.6,0.9,2,0.9,2.6-0.1l9.8-17.5
	c0.3-0.5,0.8-0.8,1.3-0.8h9.7C286.8,59.4,287.5,60.1,287.5,61z M310.2,81c-0.9-0.6-0.9-1.8-0.1-2.5c2.5-2,3.8-4.9,3.8-8.3
	c0-6.2-5.7-10.8-13.8-10.8h-9.6c-0.8,0-1.5,0.7-1.5,1.5v7.2c0,0.8,0.7,1.5,1.5,1.5h6.6c2.5,0,4.3,1.4,4.3,3.2c0,1.9-1.8,3.2-4.3,3.2
	h-6.6c-0.8,0-1.5,0.7-1.5,1.5v6.1c0,0.8,0.7,1.5,1.5,1.5h8.4c2.6,0,4.5,1.4,4.5,3.4c0,2-1.9,3.4-4.5,3.4h-8.4
	c-0.8,0-1.5,0.7-1.5,1.5v7.2c0,0.8,0.7,1.5,1.5,1.5H301c8.7,0,15-4.7,15-11.5C315.9,86.7,313.8,83.2,310.2,81z M238.8,76.5
	c-6.1-1.3-7.6-2-7.6-4.2c0-1.6,1.4-2.8,4.4-2.8c3.1,0,6.7,1.1,10.1,3.1c1,0.6,2.2-0.2,2.2-1.3v-8.4c0-0.7-0.4-1.3-1.1-1.6
	c-3.2-1.2-6.9-1.8-11-1.8c-10.2,0-16.9,5.6-16.9,14.1c0,8.9,7.2,11.3,16.4,13.5c5.9,1.4,7.4,1.7,7.4,3.7c0,1.9-1.8,3-5.1,3
	c-4.6,0-8.9-1.5-12.9-4.3c-0.7-0.5-1.7-0.4-2.2,0.3l-4.6,5.5c-0.6,0.7-0.5,1.9,0.3,2.4c5.3,4.1,12,6.1,19.1,6.1
	c10.7,0,17.6-5.3,17.6-14.3C255,81.3,248.7,78.6,238.8,76.5z"/>
</svg>
