<?xml version="1.0" encoding="utf-8"?>
<!-- Generator: Adobe Illustrator 22.1.0, SVG Export Plug-In . SVG Version: 6.00 Build 0)  -->
<svg version="1.1" id="Capa_1" xmlns="http://www.w3.org/2000/svg" xmlns:xlink="http://www.w3.org/1999/xlink" x="0px" y="0px"
	 viewBox="0 0 453.5 907.1" style="enable-background:new 0 0 453.5 907.1;" xml:space="preserve">
<style type="text/css">
	.st0{fill:#8D9BC9;}
</style>
<path id="XMLID_485_" class="st0" d="M449.4,305.3c-4.3-4.2-10.8-5.1-16.1-2.3c-79,41.5-178.9,29-245.4-37.4
	c-66.4-66.4-78.9-166.4-37.4-245.4c2.8-5.3,1.8-11.8-2.4-16.1c-4.2-4.3-10.6-5.4-16-2.7c-22.5,11.2-43.6,26.1-62.4,44.8
	c-93.2,93.2-93.2,244.2,0,337.4c93.2,93.2,244.2,93.2,337.4,0c18.7-18.7,33.7-39.8,44.8-62.3C454.8,316,453.7,309.5,449.4,305.3z"/>
<g>
	<g>
		<g>
			<path class="st0" d="M226.8,535.1c-80.4,0-145.6,65.2-145.6,145.6s65.2,145.6,145.6,145.6s145.6-65.2,145.6-145.6
				C372.3,600.3,307.1,535.2,226.8,535.1z"/>
			<path class="st0" d="M412.1,721.9l39.6-39.6c0.9-0.9,0.9-2.3,0-3.1l-39.6-39.8c-4.1-4.1-5.7-10.1-4.2-15.7l14.5-54.1
				c0.3-1.2-0.4-2.4-1.6-2.7l-54.1-14.6c-5.6-1.5-10-5.9-11.5-11.5l-14.5-54.1c-0.3-1.2-1.5-1.9-2.7-1.6l-54.2,14.4
				c-5.6,1.5-11.6-0.1-15.7-4.2l-39.6-39.6c-0.9-0.9-2.3-0.9-3.1,0l-39.8,39.6c-4.1,4.1-10.1,5.7-15.7,4.2l-54.1-14.5
				c-1.2-0.3-2.4,0.4-2.7,1.6l-14.6,54.1c-1.5,5.6-5.9,10-11.5,11.5l-54.1,14.5c-1.2,0.3-1.9,1.5-1.6,2.7l14.4,54.2
				c1.5,5.6-0.1,11.6-4.2,15.7L1.9,679c-0.9,0.9-0.9,2.3,0,3.1l39.6,39.8c4.1,4.1,5.7,10.1,4.2,15.7l-14.5,54.1
				c-0.3,1.2,0.4,2.4,1.6,2.7L86.9,809c5.6,1.5,10,5.9,11.5,11.5l14.5,54.1c0.3,1.2,1.5,1.9,2.7,1.6l54.2-14.4
				c1.3-0.4,2.7-0.6,4.1-0.6c4.3,0,8.5,1.7,11.6,4.8l39.6,39.6c0.9,0.9,2.3,0.9,3.1,0L268,866c4.1-4.1,10.1-5.8,15.7-4.2l54.1,14.5
				c1.2,0.3,2.4-0.4,2.7-1.6l14.6-54.1c1.5-5.6,5.9-10,11.5-11.5l54.1-14.5c1.2-0.3,1.9-1.5,1.6-2.7l-14.4-54.2
				C406.3,732,407.9,726,412.1,721.9z M226.8,842.4c-88.6,0-160.5-71.2-161.7-159.5c-1.2-90.5,73.5-165.2,164-164
				c88.3,1.2,159.5,73.2,159.5,161.7C388.4,770,316.1,842.3,226.8,842.4z"/>
		</g>
	</g>
</g>
</svg>
