<svg xmlns="http://www.w3.org/2000/svg" xmlns:xlink="http://www.w3.org/1999/xlink" width="204.4" height="170" viewBox="0 0 204.4 170">
  <defs>
    <linearGradient id="linear-gradient" x1="0.505" y1="1.007" x2="0.505" gradientUnits="objectBoundingBox">
      <stop offset="0" stop-color="gray" stop-opacity="0.251"/>
      <stop offset="0.54" stop-color="gray" stop-opacity="0.122"/>
      <stop offset="1" stop-color="gray" stop-opacity="0.102"/>
    </linearGradient>
    <linearGradient id="linear-gradient-2" x1="0.5" y1="1" x2="0.5" y2="0" xlink:href="#linear-gradient"/>
  </defs>
  <g id="undraw_order_confirmed_1m3v" transform="translate(0.004 0.002)">
    <path id="Path_778" data-name="Path 778" d="M213.984,52.733c-13.1-.456-25.584-4.685-37.5-9.313s-23.721-9.757-36.511-12.209c-8.226-1.577-17.635-1.8-24.262,2.61-6.38,4.252-8.441,11.571-9.548,18.37-.834,5.114-1.324,10.5.96,15.284,1.587,3.325,4.4,6.119,6.349,9.3,6.777,11.079,1.986,24.741-5.355,35.559-3.442,5.076-7.441,9.921-10.1,15.319s-3.887,11.591-1.561,17.1c2.3,5.467,7.8,9.565,13.748,12.45,12.085,5.861,26.321,7.538,40.212,8.487,30.741,2.1,61.643,1.193,92.465.281,11.407-.338,22.863-.68,34.083-2.444,6.232-.98,12.664-2.533,17.189-6.287a14.4,14.4,0,0,0,3.316-18.805c-6.455-10.02-24.3-12.508-28.813-23.261-2.482-5.92.067-12.512,3.677-18,7.742-11.775,20.719-22.107,21.4-35.567.47-9.245-5.768-18.5-15.414-22.879-10.109-4.584-24.13-4.009-31.585,3.582C239.051,50.128,225.555,53.134,213.984,52.733Z" transform="translate(-95.23 -30.18)" fill="#0063f2" opacity="0.42"/>
    <ellipse id="Ellipse_173" data-name="Ellipse 173" cx="61.544" cy="8.325" rx="61.544" ry="8.325" transform="translate(36.344 149.798)" fill="#0063f2" opacity="0.1"/>
    <rect id="Rectangle_136" data-name="Rectangle 136" width="1.794" height="14.784" rx="0.897" transform="translate(130.143 58.677)" fill="#3a3768"/>
    <rect id="Rectangle_137" data-name="Rectangle 137" width="1.006" height="4.867" rx="0.503" transform="translate(70.53 47.094)" fill="#3a3768"/>
    <rect id="Rectangle_138" data-name="Rectangle 138" width="1.134" height="8.471" rx="0.567" transform="translate(70.494 56.007)" fill="#3a3768"/>
    <rect id="Rectangle_139" data-name="Rectangle 139" width="1.079" height="8.544" rx="0.54" transform="translate(70.512 67.442)" fill="#3a3768"/>
    <path id="Path_825" data-name="Path 825" d="M7.894,0H52.117a7.894,7.894,0,0,1,7.894,7.894V114.07a7.894,7.894,0,0,1-7.894,7.894H7.894A7.894,7.894,0,0,1,0,114.07V7.894A7.894,7.894,0,0,1,7.894,0Z" transform="translate(71.099 31.01)" fill="#1b184a"/>
    <path id="Path_779" data-name="Path 779" d="M512.559,199h-6.884v.828a3.924,3.924,0,0,1-3.926,3.924H479.856a3.924,3.924,0,0,1-3.926-3.924V199h-6.445a4.766,4.766,0,0,0-4.766,4.766V309.853a4.766,4.766,0,0,0,4.766,4.766h43.073a4.766,4.766,0,0,0,4.766-4.766V203.774A4.766,4.766,0,0,0,512.559,199Z" transform="translate(-389.914 -164.821)" fill="#0063f2"/>
    <rect id="Rectangle_141" data-name="Rectangle 141" width="8.38" height="1.701" rx="0.85" transform="translate(95.316 34.653)" fill="#e6e8ec"/>
    <circle id="Ellipse_174" data-name="Ellipse 174" cx="0.966" cy="0.966" r="0.966" transform="translate(104.964 34.537)" fill="#e6e8ec"/>
    <path id="Path_780" data-name="Path 780" d="M785.541,156.843s-17.048-1.029-15.039,10.917a2.9,2.9,0,0,0,1.514,3.069s.03-.885,1.749-.583a8,8,0,0,0,1.853.089,3.859,3.859,0,0,0,2.264-.925h0s4.792-1.98,6.655-9.812c0,0,1.379-1.709,1.324-2.148l-2.877,1.229a5.13,5.13,0,0,1,.2,3.8s-.093-3.725-.646-3.644c-.111.016-1.494.719-1.494.719s1.691,3.614.415,6.242c0,0,.484-4.454-.943-5.981L778.493,161s1.976,3.734.636,6.781c0,0,.344-4.673-1.063-6.493l-1.834,1.431s1.857,3.679.725,6.206c0,0-.148-5.438-1.122-5.849a11.273,11.273,0,0,0-1.85,2s1.271,2.673.482,4.082c0,0-.484-3.624-.881-3.644a12.032,12.032,0,0,0-1.766,4.049,8.725,8.725,0,0,1,1.379-4.276,4.82,4.82,0,0,0-2.45,1.267s.249-1.7,2.845-1.847a11.134,11.134,0,0,1,1.674-1.932,10.5,10.5,0,0,0-4.145.478s1.377-1.6,4.618-.873l1.812-1.48s-3.4-.464-4.839.049c0,0,1.658-1.417,5.327-.385l1.972-1.178a18.093,18.093,0,0,0-4.622-.4s1.822-.982,5.2.083l1.417-.634s-2.122-.417-2.743-.484-.654-.237-.654-.237a7.359,7.359,0,0,1,3.986.443A17.955,17.955,0,0,0,785.541,156.843Z" transform="translate(-633.654 -131.181)" fill="#0063f2"/>
    <path id="Path_781" data-name="Path 781" d="M732.007,130.651s-7.694-.464-6.795,4.934a1.317,1.317,0,0,0,.684,1.387s.014-.4.792-.265a3.545,3.545,0,0,0,.836.04,1.733,1.733,0,0,0,1.022-.421h0s2.166-.895,3.009-4.434c0,0,.622-.771.6-.97l-1.3.555a2.336,2.336,0,0,1,.1,1.717s-.042-1.683-.292-1.644c-.051,0-.676.326-.676.326a3.839,3.839,0,0,1,.188,2.82s.219-2.013-.427-2.7l-.915.543a4.039,4.039,0,0,1,.287,3.063s.156-2.112-.48-2.934l-.828.648a3.957,3.957,0,0,1,.328,2.8s-.069-2.458-.508-2.644a5.076,5.076,0,0,0-.836.9s.575,1.215.219,1.844c0,0-.219-1.638-.4-1.646a5.449,5.449,0,0,0-.8,1.822,3.95,3.95,0,0,1,.624-1.932,2.178,2.178,0,0,0-1.108.573s.113-.767,1.286-.834a5.538,5.538,0,0,1,.757-.875,4.747,4.747,0,0,0-1.873.217,2.1,2.1,0,0,1,2.085-.395l.81-.668a6.989,6.989,0,0,0-2.187.022,2.662,2.662,0,0,1,2.407-.174l.891-.532a8.113,8.113,0,0,0-2.089-.18,3.209,3.209,0,0,1,2.351.036l.638-.285s-.96-.188-1.241-.219-.3-.107-.3-.107a3.318,3.318,0,0,1,1.8.2A8.244,8.244,0,0,0,732.007,130.651Z" transform="translate(-597.607 -110.302)" fill="#0063f2"/>
    <ellipse id="Ellipse_175" data-name="Ellipse 175" cx="5.452" cy="0.921" rx="5.452" ry="0.921" transform="translate(169.51 155.653)" fill="#0063f2" opacity="0.1"/>
    <ellipse id="Ellipse_176" data-name="Ellipse 176" cx="5.452" cy="0.921" rx="5.452" ry="0.921" transform="translate(12.987 163.213)" fill="#0063f2" opacity="0.1"/>
    <ellipse id="Ellipse_177" data-name="Ellipse 177" cx="5.452" cy="0.921" rx="5.452" ry="0.921" transform="translate(34.078 168.156)" fill="#0063f2" opacity="0.1"/>
    <ellipse id="Ellipse_178" data-name="Ellipse 178" cx="8.141" cy="1.377" rx="8.141" ry="1.377" transform="translate(154.886 165.07)" fill="#0063f2"/>
    <path id="Path_782" data-name="Path 782" d="M887.419,826.379a2.372,2.372,0,0,0,.776-1.172,1.046,1.046,0,0,0-.543-1.193c-.5-.19-1.031.156-1.434.5a1.913,1.913,0,0,1-1.395.672,2.122,2.122,0,0,0,.658-1.986.838.838,0,0,0-.184-.4c-.276-.3-.778-.17-1.108.065a4.128,4.128,0,0,0-1.353,3.456,6.5,6.5,0,0,1-.02-1.417,1.464,1.464,0,0,0-.535-1.261,1.606,1.606,0,0,0-.81-.19,1.686,1.686,0,0,0-1.324.377,1.305,1.305,0,0,0,.053,1.62,5.157,5.157,0,0,0,1.371,1.1,3.037,3.037,0,0,1,.978.933.843.843,0,0,1,.073.168h2.958A8.31,8.31,0,0,0,887.419,826.379Z" transform="translate(-721.025 -662.184)" fill="#0063f2"/>
    <path id="Path_783" data-name="Path 783" d="M279.819,753.45s1.114,1.456-.512,3.644-2.966,4.049-2.43,5.42c0,0,2.454-4.08,4.454-4.136S282.015,755.9,279.819,753.45Z" transform="translate(-240.007 -607.013)" fill="#0063f2"/>
    <path id="Path_784" data-name="Path 784" d="M280.077,753.45a1.79,1.79,0,0,1,.227.458c1.948,2.288,2.986,4.424,1.114,4.477-1.743.051-3.835,3.169-4.337,3.956.016.061.036.119.059.18,0,0,2.454-4.08,4.454-4.136S282.273,755.9,280.077,753.45Z" transform="translate(-240.265 -607.013)" opacity="0.1"/>
    <path id="Path_785" data-name="Path 785" d="M301.085,761.318c0,.512-.057.927-.128.927s-.128-.415-.128-.927.071-.271.142-.271S301.085,760.806,301.085,761.318Z" transform="translate(-259.206 -613.027)" fill="#ffd037"/>
    <path id="Path_786" data-name="Path 786" d="M302.146,764.243c-.449.245-.842.393-.875.33s.3-.312.751-.557.273-.067.306,0S302.6,764,302.146,764.243Z" transform="translate(-259.556 -615.34)" fill="#ffd037"/>
    <path id="Path_787" data-name="Path 787" d="M253.02,753.45s-1.114,1.456.512,3.644,2.966,4.049,2.43,5.42c0,0-2.452-4.08-4.454-4.136S250.82,755.9,253.02,753.45Z" transform="translate(-219.082 -607.013)" fill="#0063f2"/>
    <path id="Path_788" data-name="Path 788" d="M253,753.45a1.822,1.822,0,0,0-.229.458c-1.948,2.288-2.984,4.424-1.114,4.477,1.745.051,3.837,3.169,4.339,3.956a1.594,1.594,0,0,1-.061.18s-2.452-4.08-4.454-4.136S250.8,755.9,253,753.45Z" transform="translate(-219.065 -607.013)" opacity="0.1"/>
    <path id="Path_789" data-name="Path 789" d="M252.65,761.318c0,.512.059.927.13.927s.128-.415.128-.927-.071-.271-.142-.271S252.65,760.806,252.65,761.318Z" transform="translate(-220.781 -613.027)" fill="#ffd037"/>
    <path id="Path_790" data-name="Path 790" d="M248.071,764.243c.449.245.84.393.875.33s-.3-.312-.753-.557-.271-.067-.306,0S247.621,764,248.071,764.243Z" transform="translate(-216.91 -615.34)" fill="#ffd037"/>
    <path id="Path_791" data-name="Path 791" d="M254.4,790.688s3.11-.1,4.049-.763,4.784-1.466,5.015-.395,4.675,5.323,1.164,5.351-8.159-.547-9.095-1.116S254.4,790.688,254.4,790.688Z" transform="translate(-222.177 -635.371)" fill="#a8a8a8"/>
    <path id="Path_792" data-name="Path 792" d="M264.689,801.115c-3.511.029-8.159-.547-9.095-1.116-.711-.435-1-1.992-1.091-2.709h-.1s.2,2.506,1.132,3.078,5.584,1.144,9.095,1.115c1.012,0,1.363-.368,1.344-.9C265.829,800.908,265.443,801.109,264.689,801.115Z" transform="translate(-222.177 -641.977)" opacity="0.2"/>
    <path id="Path_793" data-name="Path 793" d="M377.46,474.88a.186.186,0,0,0,.221.028A.781.781,0,0,1,377.46,474.88Z" transform="translate(-320.321 -384.844)" fill="url(#linear-gradient)"/>
    <path id="Path_794" data-name="Path 794" d="M270.757,228.308c-.427-.126-1.035-.33-1.77-.587a9.481,9.481,0,0,0,1.64-3.347l-.063.024c.02-.075.042-.148.063-.223-1.405.579-2.962-.4-3.952-1.662s-1.664-2.822-2.748-3.983a12.7,12.7,0,0,0-1.456-1.269,1.935,1.935,0,0,0-1.057-.524c-.632-.018-1.128.607-1.737.8a2.353,2.353,0,0,1-1.215-.045,40.673,40.673,0,0,0-4.687-1.215,5.417,5.417,0,0,0-2.543.29c-.81.312-1.174.929-1.822,1.417-.7.53-2.1.518-2.93.607a20.976,20.976,0,0,1-3.025.128,6.859,6.859,0,0,0-1.741.065,6.7,6.7,0,0,0-3.069,2.166,1.62,1.62,0,0,0-.508.81,1.076,1.076,0,0,0,0,.267,1.739,1.739,0,0,0,.121.709,9.4,9.4,0,0,0,1.154,2.361,7.077,7.077,0,0,1,1.012,1.668,3.285,3.285,0,0,1,.156.962,7.375,7.375,0,0,1-.107,1.035,13.16,13.16,0,0,1-.779,2.751,5.292,5.292,0,0,0-.456,1.452,2.627,2.627,0,0,0,0,.308c-.061,1.585,1.521,2.729,1.822,4.306a2.874,2.874,0,0,1,.045.395,2.692,2.692,0,0,1-1.4,2.326c.071.028.144.053.217.079a2.278,2.278,0,0,1-.217.121c.148.057.3.105.454.15a10.653,10.653,0,0,0-2.31,2.871c-2.725,5.169-21.3,15.309-21.3,15.309s.105.059.275.16c-.069.043-.142.091-.223.146-1.608,1.085-5.382,4.252-1.97,8.244a43.5,43.5,0,0,1,4.527-6.074c.085-.081.166-.156.245-.227a.553.553,0,0,1,.073.437l12.215-6.959s4.341-3.082,5.552-3.778a9.966,9.966,0,0,1,2.752-1.2l-.142.063a5.5,5.5,0,0,1,1.4-.2c2.162.034,4.5,1.64,5.276,8,1.035,8.516.555,10.051.223,10.261a.578.578,0,0,1-.121-.022.179.179,0,0,0,.032.024.587.587,0,0,1-.134-.024.186.186,0,0,0,.178.045.174.174,0,0,0,.136-.016h.164c0,.077-.012.158-.018.237-.016,0-.1.047,0,.053h0c-.024.48-.022,1.012,0,1.549-1.075.061-2.148.126-3.09.184l.085-.451.038-.2c.824-.067,1.608-.312,1.7-.992.2-1.49-1.822-2.286-3.533-2.385s-12.012.6-12.012.6-1.545,2.025,3.353,2.654c.146.077.3.162.451.251a54.284,54.284,0,0,1,5.766,4.157l.174.14-.559.452c3.037.7,5.957,12.427,7.57,17.795s5.149,5.169,8.076,4.375c2.744-.747,3.094-8.824,3.126-9.838v-.1l4.877,6.1.37.464c.144.075.283.146.421.213a4.714,4.714,0,0,0,6.615-5.521,105.678,105.678,0,0,0-4.209-12.187c-1.012-2.055-2.33-5.467-3.128-7.609a2.807,2.807,0,0,0,.3-.146s-.018-.1-.051-.271l.051-.026a76.731,76.731,0,0,1-1.239-10.577v-.375c.883-.2,1.442-.283,1.442-.283l.016-.19-.1.022.49-5.7s1.8-3.885.423-5.505a3.442,3.442,0,0,1-.81-1.682c-.231-1.49,0-3.97,3.213-6.034a27.612,27.612,0,0,0,6.866-5.766S273.786,229.2,270.757,228.308Zm-9.824,3.952v-2.632c.917-.045,1.855.063,2.776,0a7,7,0,0,0,1.34-.227l.223.156A24.439,24.439,0,0,1,260.933,232.26ZM246.91,273.525c.362.255.727.52,1.085.786.223,1.3.419,2.215.433,2.278a18.269,18.269,0,0,0-1.518-3.063Z" transform="translate(-189.356 -178.563)" fill="url(#linear-gradient-2)"/>
    <path id="Path_795" data-name="Path 795" d="M373.139,491l-.219,1.186-.168.907-.306,1.66-2.964,2.075s-.267-.229-.709-.589a51.632,51.632,0,0,0-5.643-4.13,6.313,6.313,0,0,0-1.551-.715Z" transform="translate(-307.656 -397.701)" fill="#ffbdc6"/>
    <path id="Path_796" data-name="Path 796" d="M373.139,491l-.219,1.186a9.249,9.249,0,0,1-1.956-.1l-6.916.1c-.326-.02-.632-.045-.917-.075a6.316,6.316,0,0,0-1.551-.715Z" transform="translate(-307.656 -397.701)" opacity="0.1"/>
    <path id="Path_797" data-name="Path 797" d="M361.517,482.5s3.456.593,3.659-.883-1.78-2.274-3.458-2.373-11.757.593-11.757.593-1.778,2.371,4.643,2.768Z" transform="translate(-298.209 -388.315)" fill="#474463"/>
    <path id="Path_798" data-name="Path 798" d="M373.139,491l-.219,1.186-.168.907-.306,1.66-2.964,2.075s-.267-.229-.709-.589a51.632,51.632,0,0,0-5.643-4.13,6.313,6.313,0,0,0-1.551-.715Z" transform="translate(-307.656 -397.701)" opacity="0.1"/>
    <path id="Path_799" data-name="Path 799" d="M373.139,491l-.219,1.186a9.249,9.249,0,0,1-1.956-.1l-6.916.1c-.326-.02-.632-.045-.917-.075a6.316,6.316,0,0,0-1.551-.715Z" transform="translate(-307.656 -397.701)" opacity="0.1"/>
    <path id="Path_800" data-name="Path 800" d="M361.509,482.453s3.458.591,3.657-.891-1.78-2.272-3.458-2.371-11.757.593-11.757.593-1.778,2.371,4.643,2.766Z" transform="translate(-298.201 -388.275)" opacity="0.1"/>
    <rect id="Rectangle_142" data-name="Rectangle 142" width="18.08" height="21.439" transform="translate(52.786 45.477)" fill="#474463"/>
    <rect id="Rectangle_143" data-name="Rectangle 143" width="18.08" height="21.439" transform="translate(52.786 45.574)" opacity="0.1"/>
    <path id="Path_801" data-name="Path 801" d="M224.175,429.052a2.894,2.894,0,0,0-1.1.779,43.672,43.672,0,0,0-4.432,6.038c-3.337-3.974.356-7.115,1.93-8.194.383-.261.64-.4.64-.4Z" transform="translate(-192.58 -346.874)" fill="#ffbdc6"/>
    <path id="Path_802" data-name="Path 802" d="M379.943,288.22s.889,6.224,3.952,7.706-3.952,4.252-3.952,4.252l-9.583-3.559s5.434-1.78,4.347-7.015Z" transform="translate(-314.658 -235.977)" fill="#ffbdc6"/>
    <path id="Path_803" data-name="Path 803" d="M321.377,473.16l-.217,1.182-.176.911-.306,1.66-2.964,2.073s-.267-.227-.709-.587a51.48,51.48,0,0,0-5.645-4.13,6.273,6.273,0,0,0-1.551-.715Z" transform="translate(-266.368 -383.473)" fill="#ffbdc6"/>
    <path id="Path_804" data-name="Path 804" d="M321.409,473.16l-.217,1.182a9.258,9.258,0,0,1-1.956-.1l-6.916.1c-.326-.02-.634-.044-.919-.075a6.276,6.276,0,0,0-1.551-.715Z" transform="translate(-266.4 -383.473)" opacity="0.1"/>
    <path id="Path_805" data-name="Path 805" d="M309.787,464.663s3.458.591,3.655-.889-1.778-2.274-3.458-2.373-11.755.593-11.755.593-1.78,2.371,4.643,2.768Z" transform="translate(-256.951 -374.087)" fill="#171246"/>
    <path id="Path_806" data-name="Path 806" d="M349.328,483.229l-.306,1.66-2.964,2.073s-.267-.227-.709-.587l3.92-3.215Z" transform="translate(-294.712 -391.448)" opacity="0.1"/>
    <path id="Path_807" data-name="Path 807" d="M367.477,488.556c-.136-.067-.271-.136-.4-.2l-.364-.46-4.78-6.062v.105c-.032,1.012-.377,9.034-3.061,9.775-2.865.79-6.321.988-7.9-4.347s-4.454-16.993-7.41-17.685l4.4-3.606a26.347,26.347,0,0,1,4.1,6.665c-.045-.2-2.055-9.6-.4-11.259h14.426s2.227,6.343,3.754,9.486a106.42,106.42,0,0,1,4.12,12.112A4.634,4.634,0,0,1,367.477,488.556Z" transform="translate(-293.285 -374.158)" fill="#171246"/>
    <path id="Path_808" data-name="Path 808" d="M396.282,415.743c-2.227,1.318-12,.781-15.185.567l-.866-.063c-.093,0,.014-.053.014-.053l.089-.9,2.371-6.025L395.4,401.91a11.055,11.055,0,0,0-.322,3.32A77.113,77.113,0,0,0,396.282,415.743Z" transform="translate(-322.5 -326.648)" opacity="0.1"/>
    <path id="Path_809" data-name="Path 809" d="M395.865,414.3c-2.227,1.318-12,.782-15.185.567l-.867-.061-.144-.012.158-.04.782-.2,1.678-6.718,12.695-7.36a11.052,11.052,0,0,0-.322,3.32A77.059,77.059,0,0,0,395.865,414.3Z" transform="translate(-322.084 -325.5)" fill="#f2f1f2"/>
    <path id="Path_810" data-name="Path 810" d="M395.187,403.786c-2.581.6-8.263,2.343-10.445,6.56-1.456,2.808-2.681,4.013-3.535,4.517l-.867-.061a.5.5,0,0,0,.014-.053l.781-.2,1.678-6.718,12.695-7.36A11.074,11.074,0,0,0,395.187,403.786Z" transform="translate(-322.618 -325.5)" opacity="0.1"/>
    <path id="Path_811" data-name="Path 811" d="M234.14,427.29l2.964,1.778a2.9,2.9,0,0,0-1.1.779c-.247-.721-1.8-1.727-2.5-2.156C233.883,427.434,234.14,427.29,234.14,427.29Z" transform="translate(-205.508 -346.89)" opacity="0.1"/>
    <path id="Path_812" data-name="Path 812" d="M376.932,471.718a.176.176,0,0,1-.2-.028.7.7,0,0,0,.2.028Z" transform="translate(-319.739 -382.3)" opacity="0.1"/>
    <path id="Path_813" data-name="Path 813" d="M269.17,264.81a5.874,5.874,0,0,1-4.545-1.68s-7.9,2.274-10.571,7.41S233.2,285.755,233.2,285.755s3.163,1.778,2.865,2.667l11.956-6.916s4.252-3.061,5.432-3.754,7.708-4.94,9.091,6.619,0,10.176,0,10.176,1.976.692,4.841-4.841,11.755-6.817,11.755-6.817l.494-5.827s1.763-3.863.4-5.467a3.442,3.442,0,0,1-.792-1.672c-.225-1.48,0-3.946,3.146-6a27.176,27.176,0,0,0,6.718-5.73s.1-1.879-2.865-2.768-15.017-5.73-15.017-5.73l-.4,1.68,9.51,6.712s-4.742,3.847-8.5,3.754C271.831,261.846,272.529,264.711,269.17,264.81Z" transform="translate(-205.269 -205.256)" fill="#ff748e"/>
    <path id="Path_814" data-name="Path 814" d="M396.652,292.093a19.3,19.3,0,0,1-.547-2.413l-5.236,1.383a5.74,5.74,0,0,1-.119,3.021A5.63,5.63,0,0,0,396.652,292.093Z" transform="translate(-330.92 -237.141)" opacity="0.1"/>
    <circle id="Ellipse_179" data-name="Ellipse 179" cx="5.631" cy="5.631" r="5.631" transform="translate(55.752 45.576)" fill="#ffbdc6"/>
    <path id="Path_815" data-name="Path 815" d="M352.843,219.668a39.482,39.482,0,0,1,4.586,1.215,2.275,2.275,0,0,0,1.186.047c.6-.186,1.083-.81,1.7-.792a1.811,1.811,0,0,1,1.033.52,12.508,12.508,0,0,1,1.417,1.263c1.061,1.152,1.719,2.7,2.687,3.956s2.494,2.227,3.869,1.652c-.935,3.644-4,6.42-7.313,6.647a17.408,17.408,0,0,0-3.956.2,3.494,3.494,0,0,1-1,.243c-.737,0-1.33-.676-1.79-1.334-1.077-1.547-1.93-3.3-3.142-4.715a2.591,2.591,0,0,0-1.44-.994,2.664,2.664,0,0,0-1.591.445,7.5,7.5,0,0,0-2.328,1.62,3.223,3.223,0,0,0-.786,2.835,6.625,6.625,0,0,1,.478,1.587c.012.9-.781,1.555-.937,2.43a9.12,9.12,0,0,0-.038,1.105,4.523,4.523,0,0,1-1.67,2.934,2.108,2.108,0,0,0-.765,1.061c-.063.308,0,.636-.041.948a1.727,1.727,0,0,1-1.581,1.276,4.6,4.6,0,0,1-2.373-.281,2.739,2.739,0,0,0,1.328-2.9c-.306-1.6-1.917-2.754-1.78-4.387a5.1,5.1,0,0,1,.445-1.444,13.171,13.171,0,0,0,.761-2.733,4.609,4.609,0,0,0-.047-2.181,6.745,6.745,0,0,0-.984-1.658,9.41,9.41,0,0,1-1.14-2.336,1.62,1.62,0,0,1-.109-.771,1.587,1.587,0,0,1,.5-.81,6.512,6.512,0,0,1,3-2.152,6.668,6.668,0,0,1,1.7-.067,19.843,19.843,0,0,0,2.962-.126c.81-.1,2.178-.081,2.865-.607.64-.492,1-1.105,1.788-1.417A5.228,5.228,0,0,1,352.843,219.668Z" transform="translate(-288.466 -181.268)" opacity="0.1"/>
    <path id="Path_816" data-name="Path 816" d="M428.67,507.07s3.26,6.422,2.272,8.4" transform="translate(-361.163 -410.517)" opacity="0.1"/>
    <path id="Path_817" data-name="Path 817" d="M438.9,562.808l-4.774-6.054v.105s-.275-1.96.634-1.3c1.992,1.442,5.179,3.8,5.248,4.211A11.6,11.6,0,0,1,438.9,562.808Z" transform="translate(-365.482 -449.08)" opacity="0.1"/>
    <g id="Group_76" data-name="Group 76" transform="translate(28.038 44.436)" opacity="0.1">
      <path id="Path_818" data-name="Path 818" d="M420.979,309.379a2.417,2.417,0,0,1-.9,2.5A2.224,2.224,0,0,0,422.1,309.3,6.355,6.355,0,0,1,420.979,309.379Z" transform="translate(-382.35 -297.225)"/>
      <path id="Path_819" data-name="Path 819" d="M234.817,338.9s18.178-10.077,20.854-15.213c1.913-3.687,6.526-5.9,8.975-6.854-1.786.607-7.8,2.9-10.063,7.248-2.667,5.137-20.854,15.215-20.854,15.215Z" transform="translate(-233.73 -303.23)"/>
      <path id="Path_820" data-name="Path 820" d="M424.159,261.029a21.415,21.415,0,0,0,6.05-3.363l-9.492-6.722.217-.919-.909-.364-.395,1.68,9.486,6.718A22.917,22.917,0,0,1,424.159,261.029Z" transform="translate(-381.991 -249.66)"/>
      <path id="Path_821" data-name="Path 821" d="M442.27,413.81a23.6,23.6,0,0,1,3.717-.939l.016-.19A25.2,25.2,0,0,0,442.27,413.81Z" transform="translate(-400.048 -379.674)"/>
      <path id="Path_822" data-name="Path 822" d="M353.94,397.876h-.087a.178.178,0,0,1-.2-.028.711.711,0,0,0,.2.028c.324-.188.81-1.664-.2-10.2-1.089-9.111-5.375-8.4-7.72-7.352,2.4-.66,5.7-.089,6.633,7.746,1.022,8.54.535,10.016.2,10.2A2.188,2.188,0,0,0,353.94,397.876Z" transform="translate(-323.213 -353.39)"/>
      <path id="Path_823" data-name="Path 823" d="M378.892,471.228a.713.713,0,0,1-.2-.028A.178.178,0,0,0,378.892,471.228Z" transform="translate(-349.34 -426.345)"/>
    </g>
    <path id="Path_824" data-name="Path 824" d="M352.845,218.7a39.88,39.88,0,0,1,4.586,1.215,2.276,2.276,0,0,0,1.186.045c.6-.184,1.083-.81,1.7-.792a1.888,1.888,0,0,1,1.033.52,12.7,12.7,0,0,1,1.417,1.263c1.061,1.152,1.719,2.7,2.687,3.956s2.494,2.227,3.869,1.652c-.935,3.644-4,6.42-7.313,6.647a17.641,17.641,0,0,0-3.956.2,3.431,3.431,0,0,1-1,.243c-.737,0-1.33-.676-1.79-1.334-1.077-1.547-1.93-3.3-3.142-4.713a2.584,2.584,0,0,0-1.44-1,2.665,2.665,0,0,0-1.591.448,7.468,7.468,0,0,0-2.328,1.62,3.223,3.223,0,0,0-.786,2.835,6.623,6.623,0,0,1,.478,1.587c.012.9-.781,1.555-.937,2.43a9.107,9.107,0,0,0-.038,1.105,4.528,4.528,0,0,1-1.67,2.934,2.1,2.1,0,0,0-.765,1.059c-.063.31,0,.636-.041.95a1.723,1.723,0,0,1-1.581,1.273,4.562,4.562,0,0,1-2.373-.281,2.736,2.736,0,0,0,1.328-2.9c-.306-1.6-1.917-2.756-1.78-4.387a5.086,5.086,0,0,1,.445-1.444,13.226,13.226,0,0,0,.761-2.735,4.611,4.611,0,0,0-.047-2.181,6.783,6.783,0,0,0-.984-1.658,9.431,9.431,0,0,1-1.14-2.334,1.643,1.643,0,0,1-.109-.773,1.6,1.6,0,0,1,.5-.8,6.527,6.527,0,0,1,3-2.152,6.762,6.762,0,0,1,1.7-.065,20.118,20.118,0,0,0,2.962-.126,6.5,6.5,0,0,0,2.865-.607c.64-.49,1-1.105,1.788-1.417A5.264,5.264,0,0,1,352.845,218.7Z" transform="translate(-288.467 -180.5)" fill="#171246"/>
  </g>
</svg>
