<svg version="1.1" id="Layer_1" xmlns="http://www.w3.org/2000/svg" xmlns:xlink="http://www.w3.org/1999/xlink" x="0" y="0" viewBox="0 0 595.3 841.9" xml:space="preserve"><defs><path id="SVGID_1_" d="M286.1 429.8h23v13.1h-23z"/></defs><clipPath id="SVGID_2_"><use xlink:href="#SVGID_1_" overflow="visible"/></clipPath><path d="M285.1 441.6l4.2 2.2c1.4.5 3 .6 4.4.1l2.2-.7c1.1-.4 2.3-.3 3.4.1l1.3.5c1.4.6 3 .6 4.5.1l5.1-2.3m-25.1-3.3l4.2 2.2c1.4.5 3 .6 4.4.1l2.2-.7c1.1-.4 2.3-.3 3.4.1l1.3.5c1.4.6 3 .6 4.5.1l5.1-2.3m-25.1-3.2l4.2 2.2c1.4.5 3 .6 4.4.1l2.2-.7c1.1-.4 2.3-.3 3.4.1l1.3.5c1.4.6 3 .6 4.5.1l5.1-2.3m-25.1-3.3l4.2 2.2c1.4.5 3 .6 4.4.1l2.2-.7c1.1-.4 2.3-.3 3.4.1l1.3.5c1.4.6 3 .6 4.5.1l5.1-2.3m-25.1-3.3l4.2 2.2c1.4.5 3 .6 4.4.1l2.2-.7c1.1-.4 2.3-.3 3.4.1l1.3.5c1.4.6 3 .6 4.5.1l5.1-2.3" clip-path="url(#SVGID_2_)" fill="none" stroke="#ddd" stroke-miterlimit="10"/></svg>